%TF.GenerationSoftware,KiCad,Pcbnew,(5.1.9)-1*%
%TF.CreationDate,2021-09-16T13:16:14+03:00*%
%TF.ProjectId,STM32-V1,53544d33-322d-4563-912e-6b696361645f,rev?*%
%TF.SameCoordinates,Original*%
%TF.FileFunction,Copper,L4,Bot*%
%TF.FilePolarity,Positive*%
%FSLAX46Y46*%
G04 Gerber Fmt 4.6, Leading zero omitted, Abs format (unit mm)*
G04 Created by KiCad (PCBNEW (5.1.9)-1) date 2021-09-16 13:16:14*
%MOMM*%
%LPD*%
G01*
G04 APERTURE LIST*
%TA.AperFunction,ComponentPad*%
%ADD10C,0.800000*%
%TD*%
%TA.AperFunction,ComponentPad*%
%ADD11C,6.400000*%
%TD*%
%TA.AperFunction,ComponentPad*%
%ADD12C,1.450000*%
%TD*%
%TA.AperFunction,ComponentPad*%
%ADD13O,1.900000X1.200000*%
%TD*%
%TA.AperFunction,ComponentPad*%
%ADD14R,1.700000X1.700000*%
%TD*%
%TA.AperFunction,ComponentPad*%
%ADD15O,1.700000X1.700000*%
%TD*%
%TA.AperFunction,ViaPad*%
%ADD16C,0.800000*%
%TD*%
%TA.AperFunction,Conductor*%
%ADD17C,0.300000*%
%TD*%
G04 APERTURE END LIST*
D10*
%TO.P,H4,1*%
%TO.N,GND*%
X89697056Y-92802944D03*
X88000000Y-92100000D03*
X86302944Y-92802944D03*
X85600000Y-94500000D03*
X86302944Y-96197056D03*
X88000000Y-96900000D03*
X89697056Y-96197056D03*
X90400000Y-94500000D03*
D11*
X88000000Y-94500000D03*
%TD*%
D10*
%TO.P,H3,1*%
%TO.N,GND*%
X89697056Y-138802944D03*
X88000000Y-138100000D03*
X86302944Y-138802944D03*
X85600000Y-140500000D03*
X86302944Y-142197056D03*
X88000000Y-142900000D03*
X89697056Y-142197056D03*
X90400000Y-140500000D03*
D11*
X88000000Y-140500000D03*
%TD*%
D10*
%TO.P,H2,1*%
%TO.N,GND*%
X131697056Y-138802944D03*
X130000000Y-138100000D03*
X128302944Y-138802944D03*
X127600000Y-140500000D03*
X128302944Y-142197056D03*
X130000000Y-142900000D03*
X131697056Y-142197056D03*
X132400000Y-140500000D03*
D11*
X130000000Y-140500000D03*
%TD*%
D10*
%TO.P,H1,1*%
%TO.N,GND*%
X131697056Y-92802944D03*
X130000000Y-92100000D03*
X128302944Y-92802944D03*
X127600000Y-94500000D03*
X128302944Y-96197056D03*
X130000000Y-96900000D03*
X131697056Y-96197056D03*
X132400000Y-94500000D03*
D11*
X130000000Y-94500000D03*
%TD*%
D12*
%TO.P,J1,6*%
%TO.N,Net-(J1-Pad6)*%
X128112500Y-110325000D03*
X128112500Y-105325000D03*
D13*
X130812500Y-111325000D03*
X130812500Y-104325000D03*
%TD*%
D14*
%TO.P,J2,1*%
%TO.N,SWO*%
X117250000Y-94000000D03*
D15*
%TO.P,J2,2*%
%TO.N,SWDIO*%
X119790000Y-94000000D03*
%TO.P,J2,3*%
%TO.N,Net-(J2-Pad3)*%
X117250000Y-96540000D03*
%TO.P,J2,4*%
%TO.N,NRST*%
X119790000Y-96540000D03*
%TO.P,J2,5*%
%TO.N,GND*%
X117250000Y-99080000D03*
%TO.P,J2,6*%
%TO.N,SWCLK*%
X119790000Y-99080000D03*
%TD*%
D16*
%TO.N,GND*%
X101275000Y-91800000D03*
X103725000Y-91725000D03*
X98325000Y-95750000D03*
X99825000Y-99500000D03*
X89350000Y-106225000D03*
X94900000Y-114950000D03*
X94825000Y-104200000D03*
X97950000Y-103300000D03*
X97875000Y-106225000D03*
X102175000Y-103325000D03*
X110175000Y-105250000D03*
X114325000Y-113625000D03*
X110250000Y-115200000D03*
X111300000Y-117175000D03*
X112375000Y-120750000D03*
X110800000Y-121450000D03*
X107875000Y-118450000D03*
X95225000Y-125200000D03*
X109425000Y-125225000D03*
X97250000Y-137775000D03*
X95325000Y-137800000D03*
X118800000Y-138950000D03*
X127575000Y-127800000D03*
X129325000Y-127850000D03*
X130950000Y-127775000D03*
X127525000Y-130750000D03*
X129400000Y-130775000D03*
X131000000Y-130800000D03*
X126600000Y-105775000D03*
X126575000Y-106625000D03*
X123950000Y-105850000D03*
X113725000Y-105700000D03*
X115750000Y-99150000D03*
X105675000Y-97250000D03*
X92000000Y-116500000D03*
X120650000Y-111000000D03*
X117125000Y-109075000D03*
X120175000Y-117325000D03*
X120100000Y-120375000D03*
X122500000Y-117225000D03*
X122525000Y-120500000D03*
X96100000Y-111100000D03*
%TO.N,NRST*%
X104500000Y-109750000D03*
X123100000Y-98400000D03*
%TO.N,BOOT0*%
X102700000Y-108300000D03*
X93650000Y-103000000D03*
%TO.N,SPI1_MOSI*%
X104100000Y-118700000D03*
X99800000Y-121250000D03*
%TO.N,SP1_MISO*%
X104389998Y-120100000D03*
X101500000Y-121150000D03*
%TO.N,DIO0_LORA*%
X98250000Y-119200000D03*
X98250000Y-133050000D03*
%TO.N,NRESET_LORA*%
X96950000Y-120200000D03*
X96950000Y-133850000D03*
%TO.N,+3V3*%
X99599999Y-103350000D03*
X101000000Y-103350000D03*
X101200000Y-101700000D03*
X106050000Y-101700000D03*
X100450000Y-105750000D03*
X96900000Y-114800000D03*
X97900000Y-114000000D03*
X89300000Y-101700000D03*
X108700000Y-114000000D03*
X107450000Y-116600000D03*
X104800000Y-116600000D03*
X109050000Y-116850000D03*
X117450000Y-117450000D03*
X116000000Y-118400000D03*
X116000000Y-119725000D03*
X114825000Y-123100000D03*
X114850000Y-124950000D03*
X114775000Y-126975000D03*
X114800000Y-128750000D03*
X114850000Y-130850000D03*
X116450000Y-132900000D03*
X119100000Y-132800000D03*
X121500000Y-132750000D03*
X123500000Y-132750000D03*
X125000000Y-132750000D03*
X125575000Y-128300000D03*
X125525000Y-125850000D03*
X125500000Y-123650000D03*
X125500000Y-121850000D03*
X113000000Y-118700000D03*
X118750000Y-136650000D03*
X99225000Y-93750000D03*
X104925000Y-91700000D03*
X108950000Y-105325000D03*
X99300000Y-137725000D03*
%TD*%
D17*
%TO.N,NRST*%
X119900000Y-103900000D02*
X123100000Y-100700000D01*
X108675000Y-103900000D02*
X119900000Y-103900000D01*
X123100000Y-100700000D02*
X123100000Y-98400000D01*
X107650000Y-106800000D02*
X107650000Y-104925000D01*
X107250000Y-107200000D02*
X107650000Y-106800000D01*
X105300000Y-107200000D02*
X107250000Y-107200000D01*
X107650000Y-104925000D02*
X108675000Y-103900000D01*
X104500000Y-108000000D02*
X105300000Y-107200000D01*
X104500000Y-109750000D02*
X104500000Y-108000000D01*
%TO.N,BOOT0*%
X102700000Y-108300000D02*
X98400000Y-108300000D01*
X98400000Y-108300000D02*
X96750000Y-106650000D01*
X96750000Y-106650000D02*
X96750000Y-104350000D01*
X95400000Y-103000000D02*
X93650000Y-103000000D01*
X96750000Y-104350000D02*
X95400000Y-103000000D01*
%TO.N,SPI1_MOSI*%
X102350000Y-118700000D02*
X99800000Y-121250000D01*
X104100000Y-118700000D02*
X102350000Y-118700000D01*
%TO.N,SP1_MISO*%
X102550000Y-120100000D02*
X101500000Y-121150000D01*
X104389998Y-120100000D02*
X102550000Y-120100000D01*
%TO.N,DIO0_LORA*%
X98250000Y-119200000D02*
X98250000Y-133050000D01*
%TO.N,NRESET_LORA*%
X96950000Y-120200000D02*
X96950000Y-133850000D01*
%TD*%
M02*
