%TF.GenerationSoftware,KiCad,Pcbnew,(5.1.9)-1*%
%TF.CreationDate,2021-09-16T13:16:14+03:00*%
%TF.ProjectId,STM32-V1,53544d33-322d-4563-912e-6b696361645f,rev?*%
%TF.SameCoordinates,Original*%
%TF.FileFunction,Soldermask,Top*%
%TF.FilePolarity,Negative*%
%FSLAX46Y46*%
G04 Gerber Fmt 4.6, Leading zero omitted, Abs format (unit mm)*
G04 Created by KiCad (PCBNEW (5.1.9)-1) date 2021-09-16 13:16:14*
%MOMM*%
%LPD*%
G01*
G04 APERTURE LIST*
%ADD10R,2.400000X2.000000*%
%ADD11R,0.300000X1.400000*%
%ADD12R,1.500000X2.000000*%
%ADD13C,0.800000*%
%ADD14C,6.400000*%
%ADD15R,1.900000X1.500000*%
%ADD16C,1.450000*%
%ADD17R,1.350000X0.400000*%
%ADD18O,1.900000X1.200000*%
%ADD19R,1.900000X1.200000*%
%ADD20R,1.700000X1.700000*%
%ADD21O,1.700000X1.700000*%
%ADD22C,0.900000*%
%ADD23R,1.500000X0.700000*%
%ADD24R,0.800000X1.000000*%
%ADD25R,4.600000X1.100000*%
%ADD26R,9.400000X10.800000*%
%ADD27R,1.060000X0.650000*%
%ADD28R,0.350000X0.500000*%
G04 APERTURE END LIST*
D10*
%TO.C,Y1*%
X93350000Y-111550000D03*
X93350000Y-107850000D03*
%TD*%
D11*
%TO.C,U7*%
X118125000Y-107675000D03*
X117625000Y-107675000D03*
X117125000Y-107675000D03*
X116625000Y-107675000D03*
X116125000Y-107675000D03*
X116125000Y-112075000D03*
X116625000Y-112075000D03*
X117125000Y-112075000D03*
X117625000Y-112075000D03*
X118125000Y-112075000D03*
%TD*%
D12*
%TO.C,U4*%
X95250000Y-123500000D03*
X97250000Y-123500000D03*
X99250000Y-123500000D03*
X101250000Y-123500000D03*
X103250000Y-123500000D03*
X105250000Y-123500000D03*
X107250000Y-123500000D03*
X109250000Y-123500000D03*
X109250000Y-139500000D03*
X107250000Y-139500000D03*
X105250000Y-139500000D03*
X103250000Y-139500000D03*
X101250000Y-139500000D03*
X99250000Y-139500000D03*
X97250000Y-139500000D03*
X95250000Y-139500000D03*
%TD*%
D13*
%TO.C,H4*%
X89697056Y-92802944D03*
X88000000Y-92100000D03*
X86302944Y-92802944D03*
X85600000Y-94500000D03*
X86302944Y-96197056D03*
X88000000Y-96900000D03*
X89697056Y-96197056D03*
X90400000Y-94500000D03*
D14*
X88000000Y-94500000D03*
%TD*%
D13*
%TO.C,H3*%
X89697056Y-138802944D03*
X88000000Y-138100000D03*
X86302944Y-138802944D03*
X85600000Y-140500000D03*
X86302944Y-142197056D03*
X88000000Y-142900000D03*
X89697056Y-142197056D03*
X90400000Y-140500000D03*
D14*
X88000000Y-140500000D03*
%TD*%
D13*
%TO.C,H2*%
X131697056Y-138802944D03*
X130000000Y-138100000D03*
X128302944Y-138802944D03*
X127600000Y-140500000D03*
X128302944Y-142197056D03*
X130000000Y-142900000D03*
X131697056Y-142197056D03*
X132400000Y-140500000D03*
D14*
X130000000Y-140500000D03*
%TD*%
D13*
%TO.C,H1*%
X131697056Y-92802944D03*
X130000000Y-92100000D03*
X128302944Y-92802944D03*
X127600000Y-94500000D03*
X128302944Y-96197056D03*
X130000000Y-96900000D03*
X131697056Y-96197056D03*
X132400000Y-94500000D03*
D14*
X130000000Y-94500000D03*
%TD*%
%TO.C,C9*%
G36*
G01*
X97170000Y-111050000D02*
X96830000Y-111050000D01*
G75*
G02*
X96690000Y-110910000I0J140000D01*
G01*
X96690000Y-110630000D01*
G75*
G02*
X96830000Y-110490000I140000J0D01*
G01*
X97170000Y-110490000D01*
G75*
G02*
X97310000Y-110630000I0J-140000D01*
G01*
X97310000Y-110910000D01*
G75*
G02*
X97170000Y-111050000I-140000J0D01*
G01*
G37*
G36*
G01*
X97170000Y-112010000D02*
X96830000Y-112010000D01*
G75*
G02*
X96690000Y-111870000I0J140000D01*
G01*
X96690000Y-111590000D01*
G75*
G02*
X96830000Y-111450000I140000J0D01*
G01*
X97170000Y-111450000D01*
G75*
G02*
X97310000Y-111590000I0J-140000D01*
G01*
X97310000Y-111870000D01*
G75*
G02*
X97170000Y-112010000I-140000J0D01*
G01*
G37*
%TD*%
%TO.C,C8*%
G36*
G01*
X98420000Y-111050000D02*
X98080000Y-111050000D01*
G75*
G02*
X97940000Y-110910000I0J140000D01*
G01*
X97940000Y-110630000D01*
G75*
G02*
X98080000Y-110490000I140000J0D01*
G01*
X98420000Y-110490000D01*
G75*
G02*
X98560000Y-110630000I0J-140000D01*
G01*
X98560000Y-110910000D01*
G75*
G02*
X98420000Y-111050000I-140000J0D01*
G01*
G37*
G36*
G01*
X98420000Y-112010000D02*
X98080000Y-112010000D01*
G75*
G02*
X97940000Y-111870000I0J140000D01*
G01*
X97940000Y-111590000D01*
G75*
G02*
X98080000Y-111450000I140000J0D01*
G01*
X98420000Y-111450000D01*
G75*
G02*
X98560000Y-111590000I0J-140000D01*
G01*
X98560000Y-111870000D01*
G75*
G02*
X98420000Y-112010000I-140000J0D01*
G01*
G37*
%TD*%
%TO.C,C15*%
G36*
G01*
X101050000Y-99330000D02*
X101050000Y-99670000D01*
G75*
G02*
X100910000Y-99810000I-140000J0D01*
G01*
X100630000Y-99810000D01*
G75*
G02*
X100490000Y-99670000I0J140000D01*
G01*
X100490000Y-99330000D01*
G75*
G02*
X100630000Y-99190000I140000J0D01*
G01*
X100910000Y-99190000D01*
G75*
G02*
X101050000Y-99330000I0J-140000D01*
G01*
G37*
G36*
G01*
X102010000Y-99330000D02*
X102010000Y-99670000D01*
G75*
G02*
X101870000Y-99810000I-140000J0D01*
G01*
X101590000Y-99810000D01*
G75*
G02*
X101450000Y-99670000I0J140000D01*
G01*
X101450000Y-99330000D01*
G75*
G02*
X101590000Y-99190000I140000J0D01*
G01*
X101870000Y-99190000D01*
G75*
G02*
X102010000Y-99330000I0J-140000D01*
G01*
G37*
%TD*%
%TO.C,C11*%
G36*
G01*
X99080000Y-95400000D02*
X99420000Y-95400000D01*
G75*
G02*
X99560000Y-95540000I0J-140000D01*
G01*
X99560000Y-95820000D01*
G75*
G02*
X99420000Y-95960000I-140000J0D01*
G01*
X99080000Y-95960000D01*
G75*
G02*
X98940000Y-95820000I0J140000D01*
G01*
X98940000Y-95540000D01*
G75*
G02*
X99080000Y-95400000I140000J0D01*
G01*
G37*
G36*
G01*
X99080000Y-94440000D02*
X99420000Y-94440000D01*
G75*
G02*
X99560000Y-94580000I0J-140000D01*
G01*
X99560000Y-94860000D01*
G75*
G02*
X99420000Y-95000000I-140000J0D01*
G01*
X99080000Y-95000000D01*
G75*
G02*
X98940000Y-94860000I0J140000D01*
G01*
X98940000Y-94580000D01*
G75*
G02*
X99080000Y-94440000I140000J0D01*
G01*
G37*
%TD*%
%TO.C,C10*%
G36*
G01*
X104050000Y-92430000D02*
X104050000Y-92770000D01*
G75*
G02*
X103910000Y-92910000I-140000J0D01*
G01*
X103630000Y-92910000D01*
G75*
G02*
X103490000Y-92770000I0J140000D01*
G01*
X103490000Y-92430000D01*
G75*
G02*
X103630000Y-92290000I140000J0D01*
G01*
X103910000Y-92290000D01*
G75*
G02*
X104050000Y-92430000I0J-140000D01*
G01*
G37*
G36*
G01*
X105010000Y-92430000D02*
X105010000Y-92770000D01*
G75*
G02*
X104870000Y-92910000I-140000J0D01*
G01*
X104590000Y-92910000D01*
G75*
G02*
X104450000Y-92770000I0J140000D01*
G01*
X104450000Y-92430000D01*
G75*
G02*
X104590000Y-92290000I140000J0D01*
G01*
X104870000Y-92290000D01*
G75*
G02*
X105010000Y-92430000I0J-140000D01*
G01*
G37*
%TD*%
%TO.C,C2*%
G36*
G01*
X119400000Y-119325001D02*
X119400000Y-118474999D01*
G75*
G02*
X119649999Y-118225000I249999J0D01*
G01*
X120550001Y-118225000D01*
G75*
G02*
X120800000Y-118474999I0J-249999D01*
G01*
X120800000Y-119325001D01*
G75*
G02*
X120550001Y-119575000I-249999J0D01*
G01*
X119649999Y-119575000D01*
G75*
G02*
X119400000Y-119325001I0J249999D01*
G01*
G37*
G36*
G01*
X116700000Y-119325001D02*
X116700000Y-118474999D01*
G75*
G02*
X116949999Y-118225000I249999J0D01*
G01*
X117850001Y-118225000D01*
G75*
G02*
X118100000Y-118474999I0J-249999D01*
G01*
X118100000Y-119325001D01*
G75*
G02*
X117850001Y-119575000I-249999J0D01*
G01*
X116949999Y-119575000D01*
G75*
G02*
X116700000Y-119325001I0J249999D01*
G01*
G37*
%TD*%
%TO.C,C1*%
G36*
G01*
X123300000Y-118474999D02*
X123300000Y-119325001D01*
G75*
G02*
X123050001Y-119575000I-249999J0D01*
G01*
X122149999Y-119575000D01*
G75*
G02*
X121900000Y-119325001I0J249999D01*
G01*
X121900000Y-118474999D01*
G75*
G02*
X122149999Y-118225000I249999J0D01*
G01*
X123050001Y-118225000D01*
G75*
G02*
X123300000Y-118474999I0J-249999D01*
G01*
G37*
G36*
G01*
X126000000Y-118474999D02*
X126000000Y-119325001D01*
G75*
G02*
X125750001Y-119575000I-249999J0D01*
G01*
X124849999Y-119575000D01*
G75*
G02*
X124600000Y-119325001I0J249999D01*
G01*
X124600000Y-118474999D01*
G75*
G02*
X124849999Y-118225000I249999J0D01*
G01*
X125750001Y-118225000D01*
G75*
G02*
X126000000Y-118474999I0J-249999D01*
G01*
G37*
%TD*%
%TO.C,C3*%
G36*
G01*
X99975000Y-104250000D02*
X99975000Y-104750000D01*
G75*
G02*
X99750000Y-104975000I-225000J0D01*
G01*
X99300000Y-104975000D01*
G75*
G02*
X99075000Y-104750000I0J225000D01*
G01*
X99075000Y-104250000D01*
G75*
G02*
X99300000Y-104025000I225000J0D01*
G01*
X99750000Y-104025000D01*
G75*
G02*
X99975000Y-104250000I0J-225000D01*
G01*
G37*
G36*
G01*
X98425000Y-104250000D02*
X98425000Y-104750000D01*
G75*
G02*
X98200000Y-104975000I-225000J0D01*
G01*
X97750000Y-104975000D01*
G75*
G02*
X97525000Y-104750000I0J225000D01*
G01*
X97525000Y-104250000D01*
G75*
G02*
X97750000Y-104025000I225000J0D01*
G01*
X98200000Y-104025000D01*
G75*
G02*
X98425000Y-104250000I0J-225000D01*
G01*
G37*
%TD*%
%TO.C,C4*%
G36*
G01*
X99050000Y-106080000D02*
X99050000Y-106420000D01*
G75*
G02*
X98910000Y-106560000I-140000J0D01*
G01*
X98630000Y-106560000D01*
G75*
G02*
X98490000Y-106420000I0J140000D01*
G01*
X98490000Y-106080000D01*
G75*
G02*
X98630000Y-105940000I140000J0D01*
G01*
X98910000Y-105940000D01*
G75*
G02*
X99050000Y-106080000I0J-140000D01*
G01*
G37*
G36*
G01*
X100010000Y-106080000D02*
X100010000Y-106420000D01*
G75*
G02*
X99870000Y-106560000I-140000J0D01*
G01*
X99590000Y-106560000D01*
G75*
G02*
X99450000Y-106420000I0J140000D01*
G01*
X99450000Y-106080000D01*
G75*
G02*
X99590000Y-105940000I140000J0D01*
G01*
X99870000Y-105940000D01*
G75*
G02*
X100010000Y-106080000I0J-140000D01*
G01*
G37*
%TD*%
%TO.C,C5*%
G36*
G01*
X108040000Y-115220000D02*
X108040000Y-114880000D01*
G75*
G02*
X108180000Y-114740000I140000J0D01*
G01*
X108460000Y-114740000D01*
G75*
G02*
X108600000Y-114880000I0J-140000D01*
G01*
X108600000Y-115220000D01*
G75*
G02*
X108460000Y-115360000I-140000J0D01*
G01*
X108180000Y-115360000D01*
G75*
G02*
X108040000Y-115220000I0J140000D01*
G01*
G37*
G36*
G01*
X109000000Y-115220000D02*
X109000000Y-114880000D01*
G75*
G02*
X109140000Y-114740000I140000J0D01*
G01*
X109420000Y-114740000D01*
G75*
G02*
X109560000Y-114880000I0J-140000D01*
G01*
X109560000Y-115220000D01*
G75*
G02*
X109420000Y-115360000I-140000J0D01*
G01*
X109140000Y-115360000D01*
G75*
G02*
X109000000Y-115220000I0J140000D01*
G01*
G37*
%TD*%
%TO.C,C6*%
G36*
G01*
X109700000Y-106420000D02*
X109700000Y-106080000D01*
G75*
G02*
X109840000Y-105940000I140000J0D01*
G01*
X110120000Y-105940000D01*
G75*
G02*
X110260000Y-106080000I0J-140000D01*
G01*
X110260000Y-106420000D01*
G75*
G02*
X110120000Y-106560000I-140000J0D01*
G01*
X109840000Y-106560000D01*
G75*
G02*
X109700000Y-106420000I0J140000D01*
G01*
G37*
G36*
G01*
X108740000Y-106420000D02*
X108740000Y-106080000D01*
G75*
G02*
X108880000Y-105940000I140000J0D01*
G01*
X109160000Y-105940000D01*
G75*
G02*
X109300000Y-106080000I0J-140000D01*
G01*
X109300000Y-106420000D01*
G75*
G02*
X109160000Y-106560000I-140000J0D01*
G01*
X108880000Y-106560000D01*
G75*
G02*
X108740000Y-106420000I0J140000D01*
G01*
G37*
%TD*%
%TO.C,C7*%
G36*
G01*
X100740000Y-104420000D02*
X100740000Y-104080000D01*
G75*
G02*
X100880000Y-103940000I140000J0D01*
G01*
X101160000Y-103940000D01*
G75*
G02*
X101300000Y-104080000I0J-140000D01*
G01*
X101300000Y-104420000D01*
G75*
G02*
X101160000Y-104560000I-140000J0D01*
G01*
X100880000Y-104560000D01*
G75*
G02*
X100740000Y-104420000I0J140000D01*
G01*
G37*
G36*
G01*
X101700000Y-104420000D02*
X101700000Y-104080000D01*
G75*
G02*
X101840000Y-103940000I140000J0D01*
G01*
X102120000Y-103940000D01*
G75*
G02*
X102260000Y-104080000I0J-140000D01*
G01*
X102260000Y-104420000D01*
G75*
G02*
X102120000Y-104560000I-140000J0D01*
G01*
X101840000Y-104560000D01*
G75*
G02*
X101700000Y-104420000I0J140000D01*
G01*
G37*
%TD*%
%TO.C,C12*%
G36*
G01*
X109240000Y-117870000D02*
X109240000Y-117530000D01*
G75*
G02*
X109380000Y-117390000I140000J0D01*
G01*
X109660000Y-117390000D01*
G75*
G02*
X109800000Y-117530000I0J-140000D01*
G01*
X109800000Y-117870000D01*
G75*
G02*
X109660000Y-118010000I-140000J0D01*
G01*
X109380000Y-118010000D01*
G75*
G02*
X109240000Y-117870000I0J140000D01*
G01*
G37*
G36*
G01*
X110200000Y-117870000D02*
X110200000Y-117530000D01*
G75*
G02*
X110340000Y-117390000I140000J0D01*
G01*
X110620000Y-117390000D01*
G75*
G02*
X110760000Y-117530000I0J-140000D01*
G01*
X110760000Y-117870000D01*
G75*
G02*
X110620000Y-118010000I-140000J0D01*
G01*
X110340000Y-118010000D01*
G75*
G02*
X110200000Y-117870000I0J140000D01*
G01*
G37*
%TD*%
%TO.C,C13*%
G36*
G01*
X111930000Y-119550000D02*
X112270000Y-119550000D01*
G75*
G02*
X112410000Y-119690000I0J-140000D01*
G01*
X112410000Y-119970000D01*
G75*
G02*
X112270000Y-120110000I-140000J0D01*
G01*
X111930000Y-120110000D01*
G75*
G02*
X111790000Y-119970000I0J140000D01*
G01*
X111790000Y-119690000D01*
G75*
G02*
X111930000Y-119550000I140000J0D01*
G01*
G37*
G36*
G01*
X111930000Y-118590000D02*
X112270000Y-118590000D01*
G75*
G02*
X112410000Y-118730000I0J-140000D01*
G01*
X112410000Y-119010000D01*
G75*
G02*
X112270000Y-119150000I-140000J0D01*
G01*
X111930000Y-119150000D01*
G75*
G02*
X111790000Y-119010000I0J140000D01*
G01*
X111790000Y-118730000D01*
G75*
G02*
X111930000Y-118590000I140000J0D01*
G01*
G37*
%TD*%
%TO.C,C14*%
G36*
G01*
X102510000Y-92430000D02*
X102510000Y-92770000D01*
G75*
G02*
X102370000Y-92910000I-140000J0D01*
G01*
X102090000Y-92910000D01*
G75*
G02*
X101950000Y-92770000I0J140000D01*
G01*
X101950000Y-92430000D01*
G75*
G02*
X102090000Y-92290000I140000J0D01*
G01*
X102370000Y-92290000D01*
G75*
G02*
X102510000Y-92430000I0J-140000D01*
G01*
G37*
G36*
G01*
X101550000Y-92430000D02*
X101550000Y-92770000D01*
G75*
G02*
X101410000Y-92910000I-140000J0D01*
G01*
X101130000Y-92910000D01*
G75*
G02*
X100990000Y-92770000I0J140000D01*
G01*
X100990000Y-92430000D01*
G75*
G02*
X101130000Y-92290000I140000J0D01*
G01*
X101410000Y-92290000D01*
G75*
G02*
X101550000Y-92430000I0J-140000D01*
G01*
G37*
%TD*%
%TO.C,C16*%
G36*
G01*
X94425000Y-105600000D02*
X94425000Y-105100000D01*
G75*
G02*
X94650000Y-104875000I225000J0D01*
G01*
X95100000Y-104875000D01*
G75*
G02*
X95325000Y-105100000I0J-225000D01*
G01*
X95325000Y-105600000D01*
G75*
G02*
X95100000Y-105825000I-225000J0D01*
G01*
X94650000Y-105825000D01*
G75*
G02*
X94425000Y-105600000I0J225000D01*
G01*
G37*
G36*
G01*
X92875000Y-105600000D02*
X92875000Y-105100000D01*
G75*
G02*
X93100000Y-104875000I225000J0D01*
G01*
X93550000Y-104875000D01*
G75*
G02*
X93775000Y-105100000I0J-225000D01*
G01*
X93775000Y-105600000D01*
G75*
G02*
X93550000Y-105825000I-225000J0D01*
G01*
X93100000Y-105825000D01*
G75*
G02*
X92875000Y-105600000I0J225000D01*
G01*
G37*
%TD*%
%TO.C,C17*%
G36*
G01*
X92875000Y-114100000D02*
X92875000Y-113600000D01*
G75*
G02*
X93100000Y-113375000I225000J0D01*
G01*
X93550000Y-113375000D01*
G75*
G02*
X93775000Y-113600000I0J-225000D01*
G01*
X93775000Y-114100000D01*
G75*
G02*
X93550000Y-114325000I-225000J0D01*
G01*
X93100000Y-114325000D01*
G75*
G02*
X92875000Y-114100000I0J225000D01*
G01*
G37*
G36*
G01*
X94425000Y-114100000D02*
X94425000Y-113600000D01*
G75*
G02*
X94650000Y-113375000I225000J0D01*
G01*
X95100000Y-113375000D01*
G75*
G02*
X95325000Y-113600000I0J-225000D01*
G01*
X95325000Y-114100000D01*
G75*
G02*
X95100000Y-114325000I-225000J0D01*
G01*
X94650000Y-114325000D01*
G75*
G02*
X94425000Y-114100000I0J225000D01*
G01*
G37*
%TD*%
%TO.C,C18*%
G36*
G01*
X116535000Y-113655000D02*
X116535000Y-113995000D01*
G75*
G02*
X116395000Y-114135000I-140000J0D01*
G01*
X116115000Y-114135000D01*
G75*
G02*
X115975000Y-113995000I0J140000D01*
G01*
X115975000Y-113655000D01*
G75*
G02*
X116115000Y-113515000I140000J0D01*
G01*
X116395000Y-113515000D01*
G75*
G02*
X116535000Y-113655000I0J-140000D01*
G01*
G37*
G36*
G01*
X115575000Y-113655000D02*
X115575000Y-113995000D01*
G75*
G02*
X115435000Y-114135000I-140000J0D01*
G01*
X115155000Y-114135000D01*
G75*
G02*
X115015000Y-113995000I0J140000D01*
G01*
X115015000Y-113655000D01*
G75*
G02*
X115155000Y-113515000I140000J0D01*
G01*
X115435000Y-113515000D01*
G75*
G02*
X115575000Y-113655000I0J-140000D01*
G01*
G37*
%TD*%
%TO.C,C19*%
G36*
G01*
X119945000Y-111375000D02*
X119605000Y-111375000D01*
G75*
G02*
X119465000Y-111235000I0J140000D01*
G01*
X119465000Y-110955000D01*
G75*
G02*
X119605000Y-110815000I140000J0D01*
G01*
X119945000Y-110815000D01*
G75*
G02*
X120085000Y-110955000I0J-140000D01*
G01*
X120085000Y-111235000D01*
G75*
G02*
X119945000Y-111375000I-140000J0D01*
G01*
G37*
G36*
G01*
X119945000Y-112335000D02*
X119605000Y-112335000D01*
G75*
G02*
X119465000Y-112195000I0J140000D01*
G01*
X119465000Y-111915000D01*
G75*
G02*
X119605000Y-111775000I140000J0D01*
G01*
X119945000Y-111775000D01*
G75*
G02*
X120085000Y-111915000I0J-140000D01*
G01*
X120085000Y-112195000D01*
G75*
G02*
X119945000Y-112335000I-140000J0D01*
G01*
G37*
%TD*%
%TO.C,D1*%
G36*
G01*
X117200000Y-136956250D02*
X117200000Y-136443750D01*
G75*
G02*
X117418750Y-136225000I218750J0D01*
G01*
X117856250Y-136225000D01*
G75*
G02*
X118075000Y-136443750I0J-218750D01*
G01*
X118075000Y-136956250D01*
G75*
G02*
X117856250Y-137175000I-218750J0D01*
G01*
X117418750Y-137175000D01*
G75*
G02*
X117200000Y-136956250I0J218750D01*
G01*
G37*
G36*
G01*
X115625000Y-136956250D02*
X115625000Y-136443750D01*
G75*
G02*
X115843750Y-136225000I218750J0D01*
G01*
X116281250Y-136225000D01*
G75*
G02*
X116500000Y-136443750I0J-218750D01*
G01*
X116500000Y-136956250D01*
G75*
G02*
X116281250Y-137175000I-218750J0D01*
G01*
X115843750Y-137175000D01*
G75*
G02*
X115625000Y-136956250I0J218750D01*
G01*
G37*
%TD*%
%TO.C,D2*%
G36*
G01*
X92993750Y-116025000D02*
X93506250Y-116025000D01*
G75*
G02*
X93725000Y-116243750I0J-218750D01*
G01*
X93725000Y-116681250D01*
G75*
G02*
X93506250Y-116900000I-218750J0D01*
G01*
X92993750Y-116900000D01*
G75*
G02*
X92775000Y-116681250I0J218750D01*
G01*
X92775000Y-116243750D01*
G75*
G02*
X92993750Y-116025000I218750J0D01*
G01*
G37*
G36*
G01*
X92993750Y-117600000D02*
X93506250Y-117600000D01*
G75*
G02*
X93725000Y-117818750I0J-218750D01*
G01*
X93725000Y-118256250D01*
G75*
G02*
X93506250Y-118475000I-218750J0D01*
G01*
X92993750Y-118475000D01*
G75*
G02*
X92775000Y-118256250I0J218750D01*
G01*
X92775000Y-117818750D01*
G75*
G02*
X92993750Y-117600000I218750J0D01*
G01*
G37*
%TD*%
%TO.C,D3*%
G36*
G01*
X113518750Y-106387500D02*
X114031250Y-106387500D01*
G75*
G02*
X114250000Y-106606250I0J-218750D01*
G01*
X114250000Y-107043750D01*
G75*
G02*
X114031250Y-107262500I-218750J0D01*
G01*
X113518750Y-107262500D01*
G75*
G02*
X113300000Y-107043750I0J218750D01*
G01*
X113300000Y-106606250D01*
G75*
G02*
X113518750Y-106387500I218750J0D01*
G01*
G37*
G36*
G01*
X113518750Y-107962500D02*
X114031250Y-107962500D01*
G75*
G02*
X114250000Y-108181250I0J-218750D01*
G01*
X114250000Y-108618750D01*
G75*
G02*
X114031250Y-108837500I-218750J0D01*
G01*
X113518750Y-108837500D01*
G75*
G02*
X113300000Y-108618750I0J218750D01*
G01*
X113300000Y-108181250D01*
G75*
G02*
X113518750Y-107962500I218750J0D01*
G01*
G37*
%TD*%
%TO.C,F1*%
G36*
G01*
X127225000Y-119525000D02*
X127225000Y-118275000D01*
G75*
G02*
X127475000Y-118025000I250000J0D01*
G01*
X128225000Y-118025000D01*
G75*
G02*
X128475000Y-118275000I0J-250000D01*
G01*
X128475000Y-119525000D01*
G75*
G02*
X128225000Y-119775000I-250000J0D01*
G01*
X127475000Y-119775000D01*
G75*
G02*
X127225000Y-119525000I0J250000D01*
G01*
G37*
G36*
G01*
X130025000Y-119525000D02*
X130025000Y-118275000D01*
G75*
G02*
X130275000Y-118025000I250000J0D01*
G01*
X131025000Y-118025000D01*
G75*
G02*
X131275000Y-118275000I0J-250000D01*
G01*
X131275000Y-119525000D01*
G75*
G02*
X131025000Y-119775000I-250000J0D01*
G01*
X130275000Y-119775000D01*
G75*
G02*
X130025000Y-119525000I0J250000D01*
G01*
G37*
%TD*%
D15*
%TO.C,J1*%
X130812500Y-106825000D03*
D16*
X128112500Y-110325000D03*
D17*
X128112500Y-108475000D03*
X128112500Y-109125000D03*
X128112500Y-106525000D03*
X128112500Y-107175000D03*
X128112500Y-107825000D03*
D16*
X128112500Y-105325000D03*
D15*
X130812500Y-108825000D03*
D18*
X130812500Y-111325000D03*
X130812500Y-104325000D03*
D19*
X130812500Y-104925000D03*
X130812500Y-110725000D03*
%TD*%
D20*
%TO.C,J2*%
X117250000Y-94000000D03*
D21*
X119790000Y-94000000D03*
X117250000Y-96540000D03*
X119790000Y-96540000D03*
X117250000Y-99080000D03*
X119790000Y-99080000D03*
%TD*%
%TO.C,L1*%
G36*
G01*
X97172500Y-114280000D02*
X96827500Y-114280000D01*
G75*
G02*
X96680000Y-114132500I0J147500D01*
G01*
X96680000Y-113837500D01*
G75*
G02*
X96827500Y-113690000I147500J0D01*
G01*
X97172500Y-113690000D01*
G75*
G02*
X97320000Y-113837500I0J-147500D01*
G01*
X97320000Y-114132500D01*
G75*
G02*
X97172500Y-114280000I-147500J0D01*
G01*
G37*
G36*
G01*
X97172500Y-113310000D02*
X96827500Y-113310000D01*
G75*
G02*
X96680000Y-113162500I0J147500D01*
G01*
X96680000Y-112867500D01*
G75*
G02*
X96827500Y-112720000I147500J0D01*
G01*
X97172500Y-112720000D01*
G75*
G02*
X97320000Y-112867500I0J-147500D01*
G01*
X97320000Y-113162500D01*
G75*
G02*
X97172500Y-113310000I-147500J0D01*
G01*
G37*
%TD*%
%TO.C,R1*%
G36*
G01*
X117275000Y-139225000D02*
X117275000Y-138675000D01*
G75*
G02*
X117475000Y-138475000I200000J0D01*
G01*
X117875000Y-138475000D01*
G75*
G02*
X118075000Y-138675000I0J-200000D01*
G01*
X118075000Y-139225000D01*
G75*
G02*
X117875000Y-139425000I-200000J0D01*
G01*
X117475000Y-139425000D01*
G75*
G02*
X117275000Y-139225000I0J200000D01*
G01*
G37*
G36*
G01*
X115625000Y-139225000D02*
X115625000Y-138675000D01*
G75*
G02*
X115825000Y-138475000I200000J0D01*
G01*
X116225000Y-138475000D01*
G75*
G02*
X116425000Y-138675000I0J-200000D01*
G01*
X116425000Y-139225000D01*
G75*
G02*
X116225000Y-139425000I-200000J0D01*
G01*
X115825000Y-139425000D01*
G75*
G02*
X115625000Y-139225000I0J200000D01*
G01*
G37*
%TD*%
%TO.C,R2*%
G36*
G01*
X91025000Y-104975000D02*
X90475000Y-104975000D01*
G75*
G02*
X90275000Y-104775000I0J200000D01*
G01*
X90275000Y-104375000D01*
G75*
G02*
X90475000Y-104175000I200000J0D01*
G01*
X91025000Y-104175000D01*
G75*
G02*
X91225000Y-104375000I0J-200000D01*
G01*
X91225000Y-104775000D01*
G75*
G02*
X91025000Y-104975000I-200000J0D01*
G01*
G37*
G36*
G01*
X91025000Y-103325000D02*
X90475000Y-103325000D01*
G75*
G02*
X90275000Y-103125000I0J200000D01*
G01*
X90275000Y-102725000D01*
G75*
G02*
X90475000Y-102525000I200000J0D01*
G01*
X91025000Y-102525000D01*
G75*
G02*
X91225000Y-102725000I0J-200000D01*
G01*
X91225000Y-103125000D01*
G75*
G02*
X91025000Y-103325000I-200000J0D01*
G01*
G37*
%TD*%
%TO.C,R3*%
G36*
G01*
X94975000Y-116025000D02*
X95525000Y-116025000D01*
G75*
G02*
X95725000Y-116225000I0J-200000D01*
G01*
X95725000Y-116625000D01*
G75*
G02*
X95525000Y-116825000I-200000J0D01*
G01*
X94975000Y-116825000D01*
G75*
G02*
X94775000Y-116625000I0J200000D01*
G01*
X94775000Y-116225000D01*
G75*
G02*
X94975000Y-116025000I200000J0D01*
G01*
G37*
G36*
G01*
X94975000Y-117675000D02*
X95525000Y-117675000D01*
G75*
G02*
X95725000Y-117875000I0J-200000D01*
G01*
X95725000Y-118275000D01*
G75*
G02*
X95525000Y-118475000I-200000J0D01*
G01*
X94975000Y-118475000D01*
G75*
G02*
X94775000Y-118275000I0J200000D01*
G01*
X94775000Y-117875000D01*
G75*
G02*
X94975000Y-117675000I200000J0D01*
G01*
G37*
%TD*%
%TO.C,R4*%
G36*
G01*
X104460000Y-101565000D02*
X104460000Y-101935000D01*
G75*
G02*
X104325000Y-102070000I-135000J0D01*
G01*
X104055000Y-102070000D01*
G75*
G02*
X103920000Y-101935000I0J135000D01*
G01*
X103920000Y-101565000D01*
G75*
G02*
X104055000Y-101430000I135000J0D01*
G01*
X104325000Y-101430000D01*
G75*
G02*
X104460000Y-101565000I0J-135000D01*
G01*
G37*
G36*
G01*
X105480000Y-101565000D02*
X105480000Y-101935000D01*
G75*
G02*
X105345000Y-102070000I-135000J0D01*
G01*
X105075000Y-102070000D01*
G75*
G02*
X104940000Y-101935000I0J135000D01*
G01*
X104940000Y-101565000D01*
G75*
G02*
X105075000Y-101430000I135000J0D01*
G01*
X105345000Y-101430000D01*
G75*
G02*
X105480000Y-101565000I0J-135000D01*
G01*
G37*
%TD*%
%TO.C,R5*%
G36*
G01*
X101770000Y-101935000D02*
X101770000Y-101565000D01*
G75*
G02*
X101905000Y-101430000I135000J0D01*
G01*
X102175000Y-101430000D01*
G75*
G02*
X102310000Y-101565000I0J-135000D01*
G01*
X102310000Y-101935000D01*
G75*
G02*
X102175000Y-102070000I-135000J0D01*
G01*
X101905000Y-102070000D01*
G75*
G02*
X101770000Y-101935000I0J135000D01*
G01*
G37*
G36*
G01*
X102790000Y-101935000D02*
X102790000Y-101565000D01*
G75*
G02*
X102925000Y-101430000I135000J0D01*
G01*
X103195000Y-101430000D01*
G75*
G02*
X103330000Y-101565000I0J-135000D01*
G01*
X103330000Y-101935000D01*
G75*
G02*
X103195000Y-102070000I-135000J0D01*
G01*
X102925000Y-102070000D01*
G75*
G02*
X102790000Y-101935000I0J135000D01*
G01*
G37*
%TD*%
%TO.C,R6*%
G36*
G01*
X114050000Y-110650000D02*
X113500000Y-110650000D01*
G75*
G02*
X113300000Y-110450000I0J200000D01*
G01*
X113300000Y-110050000D01*
G75*
G02*
X113500000Y-109850000I200000J0D01*
G01*
X114050000Y-109850000D01*
G75*
G02*
X114250000Y-110050000I0J-200000D01*
G01*
X114250000Y-110450000D01*
G75*
G02*
X114050000Y-110650000I-200000J0D01*
G01*
G37*
G36*
G01*
X114050000Y-112300000D02*
X113500000Y-112300000D01*
G75*
G02*
X113300000Y-112100000I0J200000D01*
G01*
X113300000Y-111700000D01*
G75*
G02*
X113500000Y-111500000I200000J0D01*
G01*
X114050000Y-111500000D01*
G75*
G02*
X114250000Y-111700000I0J-200000D01*
G01*
X114250000Y-112100000D01*
G75*
G02*
X114050000Y-112300000I-200000J0D01*
G01*
G37*
%TD*%
%TO.C,R7*%
G36*
G01*
X105240000Y-117685000D02*
X105240000Y-117315000D01*
G75*
G02*
X105375000Y-117180000I135000J0D01*
G01*
X105645000Y-117180000D01*
G75*
G02*
X105780000Y-117315000I0J-135000D01*
G01*
X105780000Y-117685000D01*
G75*
G02*
X105645000Y-117820000I-135000J0D01*
G01*
X105375000Y-117820000D01*
G75*
G02*
X105240000Y-117685000I0J135000D01*
G01*
G37*
G36*
G01*
X104220000Y-117685000D02*
X104220000Y-117315000D01*
G75*
G02*
X104355000Y-117180000I135000J0D01*
G01*
X104625000Y-117180000D01*
G75*
G02*
X104760000Y-117315000I0J-135000D01*
G01*
X104760000Y-117685000D01*
G75*
G02*
X104625000Y-117820000I-135000J0D01*
G01*
X104355000Y-117820000D01*
G75*
G02*
X104220000Y-117685000I0J135000D01*
G01*
G37*
%TD*%
%TO.C,R8*%
G36*
G01*
X108030000Y-117315000D02*
X108030000Y-117685000D01*
G75*
G02*
X107895000Y-117820000I-135000J0D01*
G01*
X107625000Y-117820000D01*
G75*
G02*
X107490000Y-117685000I0J135000D01*
G01*
X107490000Y-117315000D01*
G75*
G02*
X107625000Y-117180000I135000J0D01*
G01*
X107895000Y-117180000D01*
G75*
G02*
X108030000Y-117315000I0J-135000D01*
G01*
G37*
G36*
G01*
X107010000Y-117315000D02*
X107010000Y-117685000D01*
G75*
G02*
X106875000Y-117820000I-135000J0D01*
G01*
X106605000Y-117820000D01*
G75*
G02*
X106470000Y-117685000I0J135000D01*
G01*
X106470000Y-117315000D01*
G75*
G02*
X106605000Y-117180000I135000J0D01*
G01*
X106875000Y-117180000D01*
G75*
G02*
X107010000Y-117315000I0J-135000D01*
G01*
G37*
%TD*%
D22*
%TO.C,SW1*%
X86170000Y-102500000D03*
X86170000Y-105500000D03*
D23*
X87930000Y-101750000D03*
X87930000Y-104750000D03*
X87930000Y-106250000D03*
D24*
X85070000Y-100350000D03*
X85070000Y-107650000D03*
X87280000Y-107650000D03*
X87280000Y-100350000D03*
%TD*%
D25*
%TO.C,U1*%
X129325000Y-129240000D03*
X129325000Y-124160000D03*
D26*
X120175000Y-126700000D03*
%TD*%
D27*
%TO.C,U2*%
X124400000Y-109100000D03*
X124400000Y-108150000D03*
X124400000Y-107200000D03*
X122200000Y-107200000D03*
X122200000Y-109100000D03*
X122200000Y-108150000D03*
%TD*%
D28*
%TO.C,U3*%
X110825000Y-120500000D03*
X108875000Y-118900000D03*
X109525000Y-118900000D03*
X110175000Y-118900000D03*
X108875000Y-120500000D03*
X109525000Y-120500000D03*
X110175000Y-120500000D03*
X110825000Y-118900000D03*
%TD*%
%TO.C,U5*%
G36*
G01*
X105075000Y-97175000D02*
X105075000Y-97325000D01*
G75*
G02*
X105000000Y-97400000I-75000J0D01*
G01*
X104300000Y-97400000D01*
G75*
G02*
X104225000Y-97325000I0J75000D01*
G01*
X104225000Y-97175000D01*
G75*
G02*
X104300000Y-97100000I75000J0D01*
G01*
X105000000Y-97100000D01*
G75*
G02*
X105075000Y-97175000I0J-75000D01*
G01*
G37*
G36*
G01*
X105075000Y-96675000D02*
X105075000Y-96825000D01*
G75*
G02*
X105000000Y-96900000I-75000J0D01*
G01*
X104300000Y-96900000D01*
G75*
G02*
X104225000Y-96825000I0J75000D01*
G01*
X104225000Y-96675000D01*
G75*
G02*
X104300000Y-96600000I75000J0D01*
G01*
X105000000Y-96600000D01*
G75*
G02*
X105075000Y-96675000I0J-75000D01*
G01*
G37*
G36*
G01*
X105075000Y-96175000D02*
X105075000Y-96325000D01*
G75*
G02*
X105000000Y-96400000I-75000J0D01*
G01*
X104300000Y-96400000D01*
G75*
G02*
X104225000Y-96325000I0J75000D01*
G01*
X104225000Y-96175000D01*
G75*
G02*
X104300000Y-96100000I75000J0D01*
G01*
X105000000Y-96100000D01*
G75*
G02*
X105075000Y-96175000I0J-75000D01*
G01*
G37*
G36*
G01*
X105075000Y-95675000D02*
X105075000Y-95825000D01*
G75*
G02*
X105000000Y-95900000I-75000J0D01*
G01*
X104300000Y-95900000D01*
G75*
G02*
X104225000Y-95825000I0J75000D01*
G01*
X104225000Y-95675000D01*
G75*
G02*
X104300000Y-95600000I75000J0D01*
G01*
X105000000Y-95600000D01*
G75*
G02*
X105075000Y-95675000I0J-75000D01*
G01*
G37*
G36*
G01*
X105075000Y-95175000D02*
X105075000Y-95325000D01*
G75*
G02*
X105000000Y-95400000I-75000J0D01*
G01*
X104300000Y-95400000D01*
G75*
G02*
X104225000Y-95325000I0J75000D01*
G01*
X104225000Y-95175000D01*
G75*
G02*
X104300000Y-95100000I75000J0D01*
G01*
X105000000Y-95100000D01*
G75*
G02*
X105075000Y-95175000I0J-75000D01*
G01*
G37*
G36*
G01*
X105075000Y-94675000D02*
X105075000Y-94825000D01*
G75*
G02*
X105000000Y-94900000I-75000J0D01*
G01*
X104300000Y-94900000D01*
G75*
G02*
X104225000Y-94825000I0J75000D01*
G01*
X104225000Y-94675000D01*
G75*
G02*
X104300000Y-94600000I75000J0D01*
G01*
X105000000Y-94600000D01*
G75*
G02*
X105075000Y-94675000I0J-75000D01*
G01*
G37*
G36*
G01*
X103875000Y-93625000D02*
X104025000Y-93625000D01*
G75*
G02*
X104100000Y-93700000I0J-75000D01*
G01*
X104100000Y-94400000D01*
G75*
G02*
X104025000Y-94475000I-75000J0D01*
G01*
X103875000Y-94475000D01*
G75*
G02*
X103800000Y-94400000I0J75000D01*
G01*
X103800000Y-93700000D01*
G75*
G02*
X103875000Y-93625000I75000J0D01*
G01*
G37*
G36*
G01*
X103375000Y-93625000D02*
X103525000Y-93625000D01*
G75*
G02*
X103600000Y-93700000I0J-75000D01*
G01*
X103600000Y-94400000D01*
G75*
G02*
X103525000Y-94475000I-75000J0D01*
G01*
X103375000Y-94475000D01*
G75*
G02*
X103300000Y-94400000I0J75000D01*
G01*
X103300000Y-93700000D01*
G75*
G02*
X103375000Y-93625000I75000J0D01*
G01*
G37*
G36*
G01*
X102875000Y-93625000D02*
X103025000Y-93625000D01*
G75*
G02*
X103100000Y-93700000I0J-75000D01*
G01*
X103100000Y-94400000D01*
G75*
G02*
X103025000Y-94475000I-75000J0D01*
G01*
X102875000Y-94475000D01*
G75*
G02*
X102800000Y-94400000I0J75000D01*
G01*
X102800000Y-93700000D01*
G75*
G02*
X102875000Y-93625000I75000J0D01*
G01*
G37*
G36*
G01*
X102375000Y-93625000D02*
X102525000Y-93625000D01*
G75*
G02*
X102600000Y-93700000I0J-75000D01*
G01*
X102600000Y-94400000D01*
G75*
G02*
X102525000Y-94475000I-75000J0D01*
G01*
X102375000Y-94475000D01*
G75*
G02*
X102300000Y-94400000I0J75000D01*
G01*
X102300000Y-93700000D01*
G75*
G02*
X102375000Y-93625000I75000J0D01*
G01*
G37*
G36*
G01*
X101875000Y-93625000D02*
X102025000Y-93625000D01*
G75*
G02*
X102100000Y-93700000I0J-75000D01*
G01*
X102100000Y-94400000D01*
G75*
G02*
X102025000Y-94475000I-75000J0D01*
G01*
X101875000Y-94475000D01*
G75*
G02*
X101800000Y-94400000I0J75000D01*
G01*
X101800000Y-93700000D01*
G75*
G02*
X101875000Y-93625000I75000J0D01*
G01*
G37*
G36*
G01*
X101375000Y-93625000D02*
X101525000Y-93625000D01*
G75*
G02*
X101600000Y-93700000I0J-75000D01*
G01*
X101600000Y-94400000D01*
G75*
G02*
X101525000Y-94475000I-75000J0D01*
G01*
X101375000Y-94475000D01*
G75*
G02*
X101300000Y-94400000I0J75000D01*
G01*
X101300000Y-93700000D01*
G75*
G02*
X101375000Y-93625000I75000J0D01*
G01*
G37*
G36*
G01*
X101175000Y-94675000D02*
X101175000Y-94825000D01*
G75*
G02*
X101100000Y-94900000I-75000J0D01*
G01*
X100400000Y-94900000D01*
G75*
G02*
X100325000Y-94825000I0J75000D01*
G01*
X100325000Y-94675000D01*
G75*
G02*
X100400000Y-94600000I75000J0D01*
G01*
X101100000Y-94600000D01*
G75*
G02*
X101175000Y-94675000I0J-75000D01*
G01*
G37*
G36*
G01*
X101175000Y-95175000D02*
X101175000Y-95325000D01*
G75*
G02*
X101100000Y-95400000I-75000J0D01*
G01*
X100400000Y-95400000D01*
G75*
G02*
X100325000Y-95325000I0J75000D01*
G01*
X100325000Y-95175000D01*
G75*
G02*
X100400000Y-95100000I75000J0D01*
G01*
X101100000Y-95100000D01*
G75*
G02*
X101175000Y-95175000I0J-75000D01*
G01*
G37*
G36*
G01*
X101175000Y-95675000D02*
X101175000Y-95825000D01*
G75*
G02*
X101100000Y-95900000I-75000J0D01*
G01*
X100400000Y-95900000D01*
G75*
G02*
X100325000Y-95825000I0J75000D01*
G01*
X100325000Y-95675000D01*
G75*
G02*
X100400000Y-95600000I75000J0D01*
G01*
X101100000Y-95600000D01*
G75*
G02*
X101175000Y-95675000I0J-75000D01*
G01*
G37*
G36*
G01*
X101175000Y-96175000D02*
X101175000Y-96325000D01*
G75*
G02*
X101100000Y-96400000I-75000J0D01*
G01*
X100400000Y-96400000D01*
G75*
G02*
X100325000Y-96325000I0J75000D01*
G01*
X100325000Y-96175000D01*
G75*
G02*
X100400000Y-96100000I75000J0D01*
G01*
X101100000Y-96100000D01*
G75*
G02*
X101175000Y-96175000I0J-75000D01*
G01*
G37*
G36*
G01*
X101175000Y-96675000D02*
X101175000Y-96825000D01*
G75*
G02*
X101100000Y-96900000I-75000J0D01*
G01*
X100400000Y-96900000D01*
G75*
G02*
X100325000Y-96825000I0J75000D01*
G01*
X100325000Y-96675000D01*
G75*
G02*
X100400000Y-96600000I75000J0D01*
G01*
X101100000Y-96600000D01*
G75*
G02*
X101175000Y-96675000I0J-75000D01*
G01*
G37*
G36*
G01*
X101175000Y-97175000D02*
X101175000Y-97325000D01*
G75*
G02*
X101100000Y-97400000I-75000J0D01*
G01*
X100400000Y-97400000D01*
G75*
G02*
X100325000Y-97325000I0J75000D01*
G01*
X100325000Y-97175000D01*
G75*
G02*
X100400000Y-97100000I75000J0D01*
G01*
X101100000Y-97100000D01*
G75*
G02*
X101175000Y-97175000I0J-75000D01*
G01*
G37*
G36*
G01*
X101375000Y-97525000D02*
X101525000Y-97525000D01*
G75*
G02*
X101600000Y-97600000I0J-75000D01*
G01*
X101600000Y-98300000D01*
G75*
G02*
X101525000Y-98375000I-75000J0D01*
G01*
X101375000Y-98375000D01*
G75*
G02*
X101300000Y-98300000I0J75000D01*
G01*
X101300000Y-97600000D01*
G75*
G02*
X101375000Y-97525000I75000J0D01*
G01*
G37*
G36*
G01*
X101875000Y-97525000D02*
X102025000Y-97525000D01*
G75*
G02*
X102100000Y-97600000I0J-75000D01*
G01*
X102100000Y-98300000D01*
G75*
G02*
X102025000Y-98375000I-75000J0D01*
G01*
X101875000Y-98375000D01*
G75*
G02*
X101800000Y-98300000I0J75000D01*
G01*
X101800000Y-97600000D01*
G75*
G02*
X101875000Y-97525000I75000J0D01*
G01*
G37*
G36*
G01*
X102375000Y-97525000D02*
X102525000Y-97525000D01*
G75*
G02*
X102600000Y-97600000I0J-75000D01*
G01*
X102600000Y-98300000D01*
G75*
G02*
X102525000Y-98375000I-75000J0D01*
G01*
X102375000Y-98375000D01*
G75*
G02*
X102300000Y-98300000I0J75000D01*
G01*
X102300000Y-97600000D01*
G75*
G02*
X102375000Y-97525000I75000J0D01*
G01*
G37*
G36*
G01*
X102875000Y-97525000D02*
X103025000Y-97525000D01*
G75*
G02*
X103100000Y-97600000I0J-75000D01*
G01*
X103100000Y-98300000D01*
G75*
G02*
X103025000Y-98375000I-75000J0D01*
G01*
X102875000Y-98375000D01*
G75*
G02*
X102800000Y-98300000I0J75000D01*
G01*
X102800000Y-97600000D01*
G75*
G02*
X102875000Y-97525000I75000J0D01*
G01*
G37*
G36*
G01*
X103375000Y-97525000D02*
X103525000Y-97525000D01*
G75*
G02*
X103600000Y-97600000I0J-75000D01*
G01*
X103600000Y-98300000D01*
G75*
G02*
X103525000Y-98375000I-75000J0D01*
G01*
X103375000Y-98375000D01*
G75*
G02*
X103300000Y-98300000I0J75000D01*
G01*
X103300000Y-97600000D01*
G75*
G02*
X103375000Y-97525000I75000J0D01*
G01*
G37*
G36*
G01*
X103875000Y-97525000D02*
X104025000Y-97525000D01*
G75*
G02*
X104100000Y-97600000I0J-75000D01*
G01*
X104100000Y-98300000D01*
G75*
G02*
X104025000Y-98375000I-75000J0D01*
G01*
X103875000Y-98375000D01*
G75*
G02*
X103800000Y-98300000I0J75000D01*
G01*
X103800000Y-97600000D01*
G75*
G02*
X103875000Y-97525000I75000J0D01*
G01*
G37*
%TD*%
%TO.C,U6*%
G36*
G01*
X99500000Y-107525000D02*
X99500000Y-107375000D01*
G75*
G02*
X99575000Y-107300000I75000J0D01*
G01*
X100900000Y-107300000D01*
G75*
G02*
X100975000Y-107375000I0J-75000D01*
G01*
X100975000Y-107525000D01*
G75*
G02*
X100900000Y-107600000I-75000J0D01*
G01*
X99575000Y-107600000D01*
G75*
G02*
X99500000Y-107525000I0J75000D01*
G01*
G37*
G36*
G01*
X99500000Y-108025000D02*
X99500000Y-107875000D01*
G75*
G02*
X99575000Y-107800000I75000J0D01*
G01*
X100900000Y-107800000D01*
G75*
G02*
X100975000Y-107875000I0J-75000D01*
G01*
X100975000Y-108025000D01*
G75*
G02*
X100900000Y-108100000I-75000J0D01*
G01*
X99575000Y-108100000D01*
G75*
G02*
X99500000Y-108025000I0J75000D01*
G01*
G37*
G36*
G01*
X99500000Y-108525000D02*
X99500000Y-108375000D01*
G75*
G02*
X99575000Y-108300000I75000J0D01*
G01*
X100900000Y-108300000D01*
G75*
G02*
X100975000Y-108375000I0J-75000D01*
G01*
X100975000Y-108525000D01*
G75*
G02*
X100900000Y-108600000I-75000J0D01*
G01*
X99575000Y-108600000D01*
G75*
G02*
X99500000Y-108525000I0J75000D01*
G01*
G37*
G36*
G01*
X99500000Y-109025000D02*
X99500000Y-108875000D01*
G75*
G02*
X99575000Y-108800000I75000J0D01*
G01*
X100900000Y-108800000D01*
G75*
G02*
X100975000Y-108875000I0J-75000D01*
G01*
X100975000Y-109025000D01*
G75*
G02*
X100900000Y-109100000I-75000J0D01*
G01*
X99575000Y-109100000D01*
G75*
G02*
X99500000Y-109025000I0J75000D01*
G01*
G37*
G36*
G01*
X99500000Y-109525000D02*
X99500000Y-109375000D01*
G75*
G02*
X99575000Y-109300000I75000J0D01*
G01*
X100900000Y-109300000D01*
G75*
G02*
X100975000Y-109375000I0J-75000D01*
G01*
X100975000Y-109525000D01*
G75*
G02*
X100900000Y-109600000I-75000J0D01*
G01*
X99575000Y-109600000D01*
G75*
G02*
X99500000Y-109525000I0J75000D01*
G01*
G37*
G36*
G01*
X99500000Y-110025000D02*
X99500000Y-109875000D01*
G75*
G02*
X99575000Y-109800000I75000J0D01*
G01*
X100900000Y-109800000D01*
G75*
G02*
X100975000Y-109875000I0J-75000D01*
G01*
X100975000Y-110025000D01*
G75*
G02*
X100900000Y-110100000I-75000J0D01*
G01*
X99575000Y-110100000D01*
G75*
G02*
X99500000Y-110025000I0J75000D01*
G01*
G37*
G36*
G01*
X99500000Y-110525000D02*
X99500000Y-110375000D01*
G75*
G02*
X99575000Y-110300000I75000J0D01*
G01*
X100900000Y-110300000D01*
G75*
G02*
X100975000Y-110375000I0J-75000D01*
G01*
X100975000Y-110525000D01*
G75*
G02*
X100900000Y-110600000I-75000J0D01*
G01*
X99575000Y-110600000D01*
G75*
G02*
X99500000Y-110525000I0J75000D01*
G01*
G37*
G36*
G01*
X99500000Y-111025000D02*
X99500000Y-110875000D01*
G75*
G02*
X99575000Y-110800000I75000J0D01*
G01*
X100900000Y-110800000D01*
G75*
G02*
X100975000Y-110875000I0J-75000D01*
G01*
X100975000Y-111025000D01*
G75*
G02*
X100900000Y-111100000I-75000J0D01*
G01*
X99575000Y-111100000D01*
G75*
G02*
X99500000Y-111025000I0J75000D01*
G01*
G37*
G36*
G01*
X99500000Y-111525000D02*
X99500000Y-111375000D01*
G75*
G02*
X99575000Y-111300000I75000J0D01*
G01*
X100900000Y-111300000D01*
G75*
G02*
X100975000Y-111375000I0J-75000D01*
G01*
X100975000Y-111525000D01*
G75*
G02*
X100900000Y-111600000I-75000J0D01*
G01*
X99575000Y-111600000D01*
G75*
G02*
X99500000Y-111525000I0J75000D01*
G01*
G37*
G36*
G01*
X99500000Y-112025000D02*
X99500000Y-111875000D01*
G75*
G02*
X99575000Y-111800000I75000J0D01*
G01*
X100900000Y-111800000D01*
G75*
G02*
X100975000Y-111875000I0J-75000D01*
G01*
X100975000Y-112025000D01*
G75*
G02*
X100900000Y-112100000I-75000J0D01*
G01*
X99575000Y-112100000D01*
G75*
G02*
X99500000Y-112025000I0J75000D01*
G01*
G37*
G36*
G01*
X99500000Y-112525000D02*
X99500000Y-112375000D01*
G75*
G02*
X99575000Y-112300000I75000J0D01*
G01*
X100900000Y-112300000D01*
G75*
G02*
X100975000Y-112375000I0J-75000D01*
G01*
X100975000Y-112525000D01*
G75*
G02*
X100900000Y-112600000I-75000J0D01*
G01*
X99575000Y-112600000D01*
G75*
G02*
X99500000Y-112525000I0J75000D01*
G01*
G37*
G36*
G01*
X99500000Y-113025000D02*
X99500000Y-112875000D01*
G75*
G02*
X99575000Y-112800000I75000J0D01*
G01*
X100900000Y-112800000D01*
G75*
G02*
X100975000Y-112875000I0J-75000D01*
G01*
X100975000Y-113025000D01*
G75*
G02*
X100900000Y-113100000I-75000J0D01*
G01*
X99575000Y-113100000D01*
G75*
G02*
X99500000Y-113025000I0J75000D01*
G01*
G37*
G36*
G01*
X101500000Y-115025000D02*
X101500000Y-113700000D01*
G75*
G02*
X101575000Y-113625000I75000J0D01*
G01*
X101725000Y-113625000D01*
G75*
G02*
X101800000Y-113700000I0J-75000D01*
G01*
X101800000Y-115025000D01*
G75*
G02*
X101725000Y-115100000I-75000J0D01*
G01*
X101575000Y-115100000D01*
G75*
G02*
X101500000Y-115025000I0J75000D01*
G01*
G37*
G36*
G01*
X102000000Y-115025000D02*
X102000000Y-113700000D01*
G75*
G02*
X102075000Y-113625000I75000J0D01*
G01*
X102225000Y-113625000D01*
G75*
G02*
X102300000Y-113700000I0J-75000D01*
G01*
X102300000Y-115025000D01*
G75*
G02*
X102225000Y-115100000I-75000J0D01*
G01*
X102075000Y-115100000D01*
G75*
G02*
X102000000Y-115025000I0J75000D01*
G01*
G37*
G36*
G01*
X102500000Y-115025000D02*
X102500000Y-113700000D01*
G75*
G02*
X102575000Y-113625000I75000J0D01*
G01*
X102725000Y-113625000D01*
G75*
G02*
X102800000Y-113700000I0J-75000D01*
G01*
X102800000Y-115025000D01*
G75*
G02*
X102725000Y-115100000I-75000J0D01*
G01*
X102575000Y-115100000D01*
G75*
G02*
X102500000Y-115025000I0J75000D01*
G01*
G37*
G36*
G01*
X103000000Y-115025000D02*
X103000000Y-113700000D01*
G75*
G02*
X103075000Y-113625000I75000J0D01*
G01*
X103225000Y-113625000D01*
G75*
G02*
X103300000Y-113700000I0J-75000D01*
G01*
X103300000Y-115025000D01*
G75*
G02*
X103225000Y-115100000I-75000J0D01*
G01*
X103075000Y-115100000D01*
G75*
G02*
X103000000Y-115025000I0J75000D01*
G01*
G37*
G36*
G01*
X103500000Y-115025000D02*
X103500000Y-113700000D01*
G75*
G02*
X103575000Y-113625000I75000J0D01*
G01*
X103725000Y-113625000D01*
G75*
G02*
X103800000Y-113700000I0J-75000D01*
G01*
X103800000Y-115025000D01*
G75*
G02*
X103725000Y-115100000I-75000J0D01*
G01*
X103575000Y-115100000D01*
G75*
G02*
X103500000Y-115025000I0J75000D01*
G01*
G37*
G36*
G01*
X104000000Y-115025000D02*
X104000000Y-113700000D01*
G75*
G02*
X104075000Y-113625000I75000J0D01*
G01*
X104225000Y-113625000D01*
G75*
G02*
X104300000Y-113700000I0J-75000D01*
G01*
X104300000Y-115025000D01*
G75*
G02*
X104225000Y-115100000I-75000J0D01*
G01*
X104075000Y-115100000D01*
G75*
G02*
X104000000Y-115025000I0J75000D01*
G01*
G37*
G36*
G01*
X104500000Y-115025000D02*
X104500000Y-113700000D01*
G75*
G02*
X104575000Y-113625000I75000J0D01*
G01*
X104725000Y-113625000D01*
G75*
G02*
X104800000Y-113700000I0J-75000D01*
G01*
X104800000Y-115025000D01*
G75*
G02*
X104725000Y-115100000I-75000J0D01*
G01*
X104575000Y-115100000D01*
G75*
G02*
X104500000Y-115025000I0J75000D01*
G01*
G37*
G36*
G01*
X105000000Y-115025000D02*
X105000000Y-113700000D01*
G75*
G02*
X105075000Y-113625000I75000J0D01*
G01*
X105225000Y-113625000D01*
G75*
G02*
X105300000Y-113700000I0J-75000D01*
G01*
X105300000Y-115025000D01*
G75*
G02*
X105225000Y-115100000I-75000J0D01*
G01*
X105075000Y-115100000D01*
G75*
G02*
X105000000Y-115025000I0J75000D01*
G01*
G37*
G36*
G01*
X105500000Y-115025000D02*
X105500000Y-113700000D01*
G75*
G02*
X105575000Y-113625000I75000J0D01*
G01*
X105725000Y-113625000D01*
G75*
G02*
X105800000Y-113700000I0J-75000D01*
G01*
X105800000Y-115025000D01*
G75*
G02*
X105725000Y-115100000I-75000J0D01*
G01*
X105575000Y-115100000D01*
G75*
G02*
X105500000Y-115025000I0J75000D01*
G01*
G37*
G36*
G01*
X106000000Y-115025000D02*
X106000000Y-113700000D01*
G75*
G02*
X106075000Y-113625000I75000J0D01*
G01*
X106225000Y-113625000D01*
G75*
G02*
X106300000Y-113700000I0J-75000D01*
G01*
X106300000Y-115025000D01*
G75*
G02*
X106225000Y-115100000I-75000J0D01*
G01*
X106075000Y-115100000D01*
G75*
G02*
X106000000Y-115025000I0J75000D01*
G01*
G37*
G36*
G01*
X106500000Y-115025000D02*
X106500000Y-113700000D01*
G75*
G02*
X106575000Y-113625000I75000J0D01*
G01*
X106725000Y-113625000D01*
G75*
G02*
X106800000Y-113700000I0J-75000D01*
G01*
X106800000Y-115025000D01*
G75*
G02*
X106725000Y-115100000I-75000J0D01*
G01*
X106575000Y-115100000D01*
G75*
G02*
X106500000Y-115025000I0J75000D01*
G01*
G37*
G36*
G01*
X107000000Y-115025000D02*
X107000000Y-113700000D01*
G75*
G02*
X107075000Y-113625000I75000J0D01*
G01*
X107225000Y-113625000D01*
G75*
G02*
X107300000Y-113700000I0J-75000D01*
G01*
X107300000Y-115025000D01*
G75*
G02*
X107225000Y-115100000I-75000J0D01*
G01*
X107075000Y-115100000D01*
G75*
G02*
X107000000Y-115025000I0J75000D01*
G01*
G37*
G36*
G01*
X107825000Y-113025000D02*
X107825000Y-112875000D01*
G75*
G02*
X107900000Y-112800000I75000J0D01*
G01*
X109225000Y-112800000D01*
G75*
G02*
X109300000Y-112875000I0J-75000D01*
G01*
X109300000Y-113025000D01*
G75*
G02*
X109225000Y-113100000I-75000J0D01*
G01*
X107900000Y-113100000D01*
G75*
G02*
X107825000Y-113025000I0J75000D01*
G01*
G37*
G36*
G01*
X107825000Y-112525000D02*
X107825000Y-112375000D01*
G75*
G02*
X107900000Y-112300000I75000J0D01*
G01*
X109225000Y-112300000D01*
G75*
G02*
X109300000Y-112375000I0J-75000D01*
G01*
X109300000Y-112525000D01*
G75*
G02*
X109225000Y-112600000I-75000J0D01*
G01*
X107900000Y-112600000D01*
G75*
G02*
X107825000Y-112525000I0J75000D01*
G01*
G37*
G36*
G01*
X107825000Y-112025000D02*
X107825000Y-111875000D01*
G75*
G02*
X107900000Y-111800000I75000J0D01*
G01*
X109225000Y-111800000D01*
G75*
G02*
X109300000Y-111875000I0J-75000D01*
G01*
X109300000Y-112025000D01*
G75*
G02*
X109225000Y-112100000I-75000J0D01*
G01*
X107900000Y-112100000D01*
G75*
G02*
X107825000Y-112025000I0J75000D01*
G01*
G37*
G36*
G01*
X107825000Y-111525000D02*
X107825000Y-111375000D01*
G75*
G02*
X107900000Y-111300000I75000J0D01*
G01*
X109225000Y-111300000D01*
G75*
G02*
X109300000Y-111375000I0J-75000D01*
G01*
X109300000Y-111525000D01*
G75*
G02*
X109225000Y-111600000I-75000J0D01*
G01*
X107900000Y-111600000D01*
G75*
G02*
X107825000Y-111525000I0J75000D01*
G01*
G37*
G36*
G01*
X107825000Y-111025000D02*
X107825000Y-110875000D01*
G75*
G02*
X107900000Y-110800000I75000J0D01*
G01*
X109225000Y-110800000D01*
G75*
G02*
X109300000Y-110875000I0J-75000D01*
G01*
X109300000Y-111025000D01*
G75*
G02*
X109225000Y-111100000I-75000J0D01*
G01*
X107900000Y-111100000D01*
G75*
G02*
X107825000Y-111025000I0J75000D01*
G01*
G37*
G36*
G01*
X107825000Y-110525000D02*
X107825000Y-110375000D01*
G75*
G02*
X107900000Y-110300000I75000J0D01*
G01*
X109225000Y-110300000D01*
G75*
G02*
X109300000Y-110375000I0J-75000D01*
G01*
X109300000Y-110525000D01*
G75*
G02*
X109225000Y-110600000I-75000J0D01*
G01*
X107900000Y-110600000D01*
G75*
G02*
X107825000Y-110525000I0J75000D01*
G01*
G37*
G36*
G01*
X107825000Y-110025000D02*
X107825000Y-109875000D01*
G75*
G02*
X107900000Y-109800000I75000J0D01*
G01*
X109225000Y-109800000D01*
G75*
G02*
X109300000Y-109875000I0J-75000D01*
G01*
X109300000Y-110025000D01*
G75*
G02*
X109225000Y-110100000I-75000J0D01*
G01*
X107900000Y-110100000D01*
G75*
G02*
X107825000Y-110025000I0J75000D01*
G01*
G37*
G36*
G01*
X107825000Y-109525000D02*
X107825000Y-109375000D01*
G75*
G02*
X107900000Y-109300000I75000J0D01*
G01*
X109225000Y-109300000D01*
G75*
G02*
X109300000Y-109375000I0J-75000D01*
G01*
X109300000Y-109525000D01*
G75*
G02*
X109225000Y-109600000I-75000J0D01*
G01*
X107900000Y-109600000D01*
G75*
G02*
X107825000Y-109525000I0J75000D01*
G01*
G37*
G36*
G01*
X107825000Y-109025000D02*
X107825000Y-108875000D01*
G75*
G02*
X107900000Y-108800000I75000J0D01*
G01*
X109225000Y-108800000D01*
G75*
G02*
X109300000Y-108875000I0J-75000D01*
G01*
X109300000Y-109025000D01*
G75*
G02*
X109225000Y-109100000I-75000J0D01*
G01*
X107900000Y-109100000D01*
G75*
G02*
X107825000Y-109025000I0J75000D01*
G01*
G37*
G36*
G01*
X107825000Y-108525000D02*
X107825000Y-108375000D01*
G75*
G02*
X107900000Y-108300000I75000J0D01*
G01*
X109225000Y-108300000D01*
G75*
G02*
X109300000Y-108375000I0J-75000D01*
G01*
X109300000Y-108525000D01*
G75*
G02*
X109225000Y-108600000I-75000J0D01*
G01*
X107900000Y-108600000D01*
G75*
G02*
X107825000Y-108525000I0J75000D01*
G01*
G37*
G36*
G01*
X107825000Y-108025000D02*
X107825000Y-107875000D01*
G75*
G02*
X107900000Y-107800000I75000J0D01*
G01*
X109225000Y-107800000D01*
G75*
G02*
X109300000Y-107875000I0J-75000D01*
G01*
X109300000Y-108025000D01*
G75*
G02*
X109225000Y-108100000I-75000J0D01*
G01*
X107900000Y-108100000D01*
G75*
G02*
X107825000Y-108025000I0J75000D01*
G01*
G37*
G36*
G01*
X107825000Y-107525000D02*
X107825000Y-107375000D01*
G75*
G02*
X107900000Y-107300000I75000J0D01*
G01*
X109225000Y-107300000D01*
G75*
G02*
X109300000Y-107375000I0J-75000D01*
G01*
X109300000Y-107525000D01*
G75*
G02*
X109225000Y-107600000I-75000J0D01*
G01*
X107900000Y-107600000D01*
G75*
G02*
X107825000Y-107525000I0J75000D01*
G01*
G37*
G36*
G01*
X107000000Y-106700000D02*
X107000000Y-105375000D01*
G75*
G02*
X107075000Y-105300000I75000J0D01*
G01*
X107225000Y-105300000D01*
G75*
G02*
X107300000Y-105375000I0J-75000D01*
G01*
X107300000Y-106700000D01*
G75*
G02*
X107225000Y-106775000I-75000J0D01*
G01*
X107075000Y-106775000D01*
G75*
G02*
X107000000Y-106700000I0J75000D01*
G01*
G37*
G36*
G01*
X106500000Y-106700000D02*
X106500000Y-105375000D01*
G75*
G02*
X106575000Y-105300000I75000J0D01*
G01*
X106725000Y-105300000D01*
G75*
G02*
X106800000Y-105375000I0J-75000D01*
G01*
X106800000Y-106700000D01*
G75*
G02*
X106725000Y-106775000I-75000J0D01*
G01*
X106575000Y-106775000D01*
G75*
G02*
X106500000Y-106700000I0J75000D01*
G01*
G37*
G36*
G01*
X106000000Y-106700000D02*
X106000000Y-105375000D01*
G75*
G02*
X106075000Y-105300000I75000J0D01*
G01*
X106225000Y-105300000D01*
G75*
G02*
X106300000Y-105375000I0J-75000D01*
G01*
X106300000Y-106700000D01*
G75*
G02*
X106225000Y-106775000I-75000J0D01*
G01*
X106075000Y-106775000D01*
G75*
G02*
X106000000Y-106700000I0J75000D01*
G01*
G37*
G36*
G01*
X105500000Y-106700000D02*
X105500000Y-105375000D01*
G75*
G02*
X105575000Y-105300000I75000J0D01*
G01*
X105725000Y-105300000D01*
G75*
G02*
X105800000Y-105375000I0J-75000D01*
G01*
X105800000Y-106700000D01*
G75*
G02*
X105725000Y-106775000I-75000J0D01*
G01*
X105575000Y-106775000D01*
G75*
G02*
X105500000Y-106700000I0J75000D01*
G01*
G37*
G36*
G01*
X105000000Y-106700000D02*
X105000000Y-105375000D01*
G75*
G02*
X105075000Y-105300000I75000J0D01*
G01*
X105225000Y-105300000D01*
G75*
G02*
X105300000Y-105375000I0J-75000D01*
G01*
X105300000Y-106700000D01*
G75*
G02*
X105225000Y-106775000I-75000J0D01*
G01*
X105075000Y-106775000D01*
G75*
G02*
X105000000Y-106700000I0J75000D01*
G01*
G37*
G36*
G01*
X104500000Y-106700000D02*
X104500000Y-105375000D01*
G75*
G02*
X104575000Y-105300000I75000J0D01*
G01*
X104725000Y-105300000D01*
G75*
G02*
X104800000Y-105375000I0J-75000D01*
G01*
X104800000Y-106700000D01*
G75*
G02*
X104725000Y-106775000I-75000J0D01*
G01*
X104575000Y-106775000D01*
G75*
G02*
X104500000Y-106700000I0J75000D01*
G01*
G37*
G36*
G01*
X104000000Y-106700000D02*
X104000000Y-105375000D01*
G75*
G02*
X104075000Y-105300000I75000J0D01*
G01*
X104225000Y-105300000D01*
G75*
G02*
X104300000Y-105375000I0J-75000D01*
G01*
X104300000Y-106700000D01*
G75*
G02*
X104225000Y-106775000I-75000J0D01*
G01*
X104075000Y-106775000D01*
G75*
G02*
X104000000Y-106700000I0J75000D01*
G01*
G37*
G36*
G01*
X103500000Y-106700000D02*
X103500000Y-105375000D01*
G75*
G02*
X103575000Y-105300000I75000J0D01*
G01*
X103725000Y-105300000D01*
G75*
G02*
X103800000Y-105375000I0J-75000D01*
G01*
X103800000Y-106700000D01*
G75*
G02*
X103725000Y-106775000I-75000J0D01*
G01*
X103575000Y-106775000D01*
G75*
G02*
X103500000Y-106700000I0J75000D01*
G01*
G37*
G36*
G01*
X103000000Y-106700000D02*
X103000000Y-105375000D01*
G75*
G02*
X103075000Y-105300000I75000J0D01*
G01*
X103225000Y-105300000D01*
G75*
G02*
X103300000Y-105375000I0J-75000D01*
G01*
X103300000Y-106700000D01*
G75*
G02*
X103225000Y-106775000I-75000J0D01*
G01*
X103075000Y-106775000D01*
G75*
G02*
X103000000Y-106700000I0J75000D01*
G01*
G37*
G36*
G01*
X102500000Y-106700000D02*
X102500000Y-105375000D01*
G75*
G02*
X102575000Y-105300000I75000J0D01*
G01*
X102725000Y-105300000D01*
G75*
G02*
X102800000Y-105375000I0J-75000D01*
G01*
X102800000Y-106700000D01*
G75*
G02*
X102725000Y-106775000I-75000J0D01*
G01*
X102575000Y-106775000D01*
G75*
G02*
X102500000Y-106700000I0J75000D01*
G01*
G37*
G36*
G01*
X102000000Y-106700000D02*
X102000000Y-105375000D01*
G75*
G02*
X102075000Y-105300000I75000J0D01*
G01*
X102225000Y-105300000D01*
G75*
G02*
X102300000Y-105375000I0J-75000D01*
G01*
X102300000Y-106700000D01*
G75*
G02*
X102225000Y-106775000I-75000J0D01*
G01*
X102075000Y-106775000D01*
G75*
G02*
X102000000Y-106700000I0J75000D01*
G01*
G37*
G36*
G01*
X101500000Y-106700000D02*
X101500000Y-105375000D01*
G75*
G02*
X101575000Y-105300000I75000J0D01*
G01*
X101725000Y-105300000D01*
G75*
G02*
X101800000Y-105375000I0J-75000D01*
G01*
X101800000Y-106700000D01*
G75*
G02*
X101725000Y-106775000I-75000J0D01*
G01*
X101575000Y-106775000D01*
G75*
G02*
X101500000Y-106700000I0J75000D01*
G01*
G37*
%TD*%
M02*
