M48
; DRILL file {KiCad (5.1.9)-1} date 09/16/21 13:16:10
; FORMAT={-:-/ absolute / inch / decimal}
; #@! TF.CreationDate,2021-09-16T13:16:10+03:00
; #@! TF.GenerationSoftware,Kicad,Pcbnew,(5.1.9)-1
; #@! TF.FileFunction,Plated,1,4,PTH
FMAT,2
INCH
T1C0.0157
T2C0.0197
T3C0.0236
T4C0.0335
T5C0.0394
T6C0.1260
%
G90
G05
T1
X3.5157Y-4.0039
X3.5177Y-4.1821
X3.622Y-4.5866
X3.687Y-4.0551
X3.7333Y-4.1024
X3.7362Y-4.5256
X3.749Y-4.9291
X3.753Y-5.4252
X3.7835Y-4.374
X3.815Y-4.5197
X3.8169Y-4.7323
X3.8169Y-5.2697
X3.8287Y-5.4242
X3.8533Y-4.1821
X3.8543Y-4.4882
X3.8563Y-4.0669
X3.8681Y-4.6929
X3.8681Y-5.2382
X3.8711Y-3.7697
X3.9065Y-3.6909
X3.9094Y-5.4222
X3.9213Y-4.0689
X3.9291Y-4.7736
X3.9301Y-3.9173
X3.9547Y-4.1634
X3.9764Y-4.0689
X3.9843Y-4.0039
X3.9872Y-3.6142
X3.9961Y-4.7697
X4.0226Y-4.0679
X4.0433Y-4.2638
X4.0837Y-3.6112
X4.0984Y-4.6732
X4.1098Y-4.7283
X4.1142Y-4.3209
X4.126Y-4.5906
X4.1309Y-3.6102
X4.1604Y-3.8287
X4.1752Y-4.0039
X4.2303Y-4.5906
X4.247Y-4.6634
X4.2795Y-4.4882
X4.2894Y-4.1467
X4.2933Y-4.6004
X4.3081Y-4.9301
X4.3376Y-4.1437
X4.3406Y-4.5354
X4.3622Y-4.7815
X4.3819Y-4.6132
X4.4242Y-4.7539
X4.4488Y-4.6732
X4.4774Y-4.1614
X4.501Y-4.4734
X4.5187Y-4.999
X4.5197Y-5.0689
X4.5207Y-4.8465
X4.5217Y-4.9193
X4.5217Y-5.1516
X4.5571Y-3.9035
X4.5669Y-4.6614
X4.5669Y-4.7136
X4.5846Y-5.2323
X4.6112Y-4.2943
X4.624Y-4.624
X4.6752Y-5.3799
X4.6772Y-5.4705
X4.689Y-5.2283
X4.7283Y-4.7392
X4.7313Y-4.6191
X4.75Y-4.3701
X4.7835Y-5.2264
X4.8228Y-4.6152
X4.8238Y-4.7441
X4.8465Y-3.874
X4.8622Y-5.2264
X4.8799Y-4.1673
X4.9213Y-5.2264
X4.9409Y-4.7972
X4.9409Y-4.8681
X4.9419Y-4.9547
X4.9439Y-5.0512
X4.9833Y-4.1978
X4.9843Y-4.1644
X5.0207Y-5.1476
X5.0226Y-5.0315
X5.0915Y-5.0335
X5.0945Y-5.1486
X5.1555Y-5.0305
X5.1575Y-5.1496
T2
X3.3701Y-3.7205
X3.3701Y-5.5315
X3.3978Y-3.6537
X3.3978Y-3.7873
X3.3978Y-5.4647
X3.3978Y-5.5983
X3.4646Y-3.626
X3.4646Y-3.815
X3.4646Y-5.437
X3.4646Y-5.626
X3.5314Y-3.6537
X3.5314Y-3.7873
X3.5314Y-5.4647
X3.5314Y-5.5983
X3.5591Y-3.7205
X3.5591Y-5.5315
X5.0236Y-3.7205
X5.0236Y-5.5315
X5.0513Y-3.6537
X5.0513Y-3.7873
X5.0513Y-5.4647
X5.0513Y-5.5983
X5.1181Y-3.626
X5.1181Y-3.815
X5.1181Y-5.437
X5.1181Y-5.626
X5.1849Y-3.6537
X5.1849Y-3.7873
X5.1849Y-5.4647
X5.1849Y-5.5983
X5.2126Y-3.7205
X5.2126Y-5.5315
T4
X5.0438Y-4.1467
X5.0438Y-4.3435
T5
X4.6161Y-3.7008
X4.6161Y-3.8008
X4.6161Y-3.9008
X4.7161Y-3.7008
X4.7161Y-3.8008
X4.7161Y-3.9008
T6
X3.4646Y-3.7205
X3.4646Y-5.5315
X5.1181Y-3.7205
X5.1181Y-5.5315
T3
G00X5.1363Y-4.1073
M15
G01X5.1639Y-4.1073
M16
G05
G00X5.1639Y-4.3829
M15
G01X5.1363Y-4.3829
M16
G05
T0
M30
