%TF.GenerationSoftware,KiCad,Pcbnew,(5.1.9)-1*%
%TF.CreationDate,2021-09-16T13:16:14+03:00*%
%TF.ProjectId,STM32-V1,53544d33-322d-4563-912e-6b696361645f,rev?*%
%TF.SameCoordinates,Original*%
%TF.FileFunction,Soldermask,Bot*%
%TF.FilePolarity,Negative*%
%FSLAX46Y46*%
G04 Gerber Fmt 4.6, Leading zero omitted, Abs format (unit mm)*
G04 Created by KiCad (PCBNEW (5.1.9)-1) date 2021-09-16 13:16:14*
%MOMM*%
%LPD*%
G01*
G04 APERTURE LIST*
%ADD10C,0.800000*%
%ADD11C,6.400000*%
%ADD12C,1.450000*%
%ADD13O,1.900000X1.200000*%
%ADD14R,1.700000X1.700000*%
%ADD15O,1.700000X1.700000*%
%ADD16C,0.900000*%
G04 APERTURE END LIST*
D10*
%TO.C,H4*%
X89697056Y-92802944D03*
X88000000Y-92100000D03*
X86302944Y-92802944D03*
X85600000Y-94500000D03*
X86302944Y-96197056D03*
X88000000Y-96900000D03*
X89697056Y-96197056D03*
X90400000Y-94500000D03*
D11*
X88000000Y-94500000D03*
%TD*%
D10*
%TO.C,H3*%
X89697056Y-138802944D03*
X88000000Y-138100000D03*
X86302944Y-138802944D03*
X85600000Y-140500000D03*
X86302944Y-142197056D03*
X88000000Y-142900000D03*
X89697056Y-142197056D03*
X90400000Y-140500000D03*
D11*
X88000000Y-140500000D03*
%TD*%
D10*
%TO.C,H2*%
X131697056Y-138802944D03*
X130000000Y-138100000D03*
X128302944Y-138802944D03*
X127600000Y-140500000D03*
X128302944Y-142197056D03*
X130000000Y-142900000D03*
X131697056Y-142197056D03*
X132400000Y-140500000D03*
D11*
X130000000Y-140500000D03*
%TD*%
D10*
%TO.C,H1*%
X131697056Y-92802944D03*
X130000000Y-92100000D03*
X128302944Y-92802944D03*
X127600000Y-94500000D03*
X128302944Y-96197056D03*
X130000000Y-96900000D03*
X131697056Y-96197056D03*
X132400000Y-94500000D03*
D11*
X130000000Y-94500000D03*
%TD*%
D12*
%TO.C,J1*%
X128112500Y-110325000D03*
X128112500Y-105325000D03*
D13*
X130812500Y-111325000D03*
X130812500Y-104325000D03*
%TD*%
D14*
%TO.C,J2*%
X117250000Y-94000000D03*
D15*
X119790000Y-94000000D03*
X117250000Y-96540000D03*
X119790000Y-96540000D03*
X117250000Y-99080000D03*
X119790000Y-99080000D03*
%TD*%
D16*
%TO.C,SW1*%
X86170000Y-102500000D03*
X86170000Y-105500000D03*
%TD*%
M02*
