%TF.GenerationSoftware,KiCad,Pcbnew,(5.1.9)-1*%
%TF.CreationDate,2021-09-16T13:16:14+03:00*%
%TF.ProjectId,STM32-V1,53544d33-322d-4563-912e-6b696361645f,rev?*%
%TF.SameCoordinates,Original*%
%TF.FileFunction,Copper,L1,Top*%
%TF.FilePolarity,Positive*%
%FSLAX46Y46*%
G04 Gerber Fmt 4.6, Leading zero omitted, Abs format (unit mm)*
G04 Created by KiCad (PCBNEW (5.1.9)-1) date 2021-09-16 13:16:14*
%MOMM*%
%LPD*%
G01*
G04 APERTURE LIST*
%TA.AperFunction,SMDPad,CuDef*%
%ADD10R,2.400000X2.000000*%
%TD*%
%TA.AperFunction,SMDPad,CuDef*%
%ADD11R,0.300000X1.400000*%
%TD*%
%TA.AperFunction,SMDPad,CuDef*%
%ADD12R,1.500000X2.000000*%
%TD*%
%TA.AperFunction,ComponentPad*%
%ADD13C,0.800000*%
%TD*%
%TA.AperFunction,ComponentPad*%
%ADD14C,6.400000*%
%TD*%
%TA.AperFunction,SMDPad,CuDef*%
%ADD15R,1.900000X1.500000*%
%TD*%
%TA.AperFunction,ComponentPad*%
%ADD16C,1.450000*%
%TD*%
%TA.AperFunction,SMDPad,CuDef*%
%ADD17R,1.350000X0.400000*%
%TD*%
%TA.AperFunction,ComponentPad*%
%ADD18O,1.900000X1.200000*%
%TD*%
%TA.AperFunction,SMDPad,CuDef*%
%ADD19R,1.900000X1.200000*%
%TD*%
%TA.AperFunction,ComponentPad*%
%ADD20R,1.700000X1.700000*%
%TD*%
%TA.AperFunction,ComponentPad*%
%ADD21O,1.700000X1.700000*%
%TD*%
%TA.AperFunction,SMDPad,CuDef*%
%ADD22R,1.500000X0.700000*%
%TD*%
%TA.AperFunction,SMDPad,CuDef*%
%ADD23R,0.800000X1.000000*%
%TD*%
%TA.AperFunction,SMDPad,CuDef*%
%ADD24R,4.600000X1.100000*%
%TD*%
%TA.AperFunction,SMDPad,CuDef*%
%ADD25R,9.400000X10.800000*%
%TD*%
%TA.AperFunction,SMDPad,CuDef*%
%ADD26R,1.060000X0.650000*%
%TD*%
%TA.AperFunction,SMDPad,CuDef*%
%ADD27R,0.350000X0.500000*%
%TD*%
%TA.AperFunction,ViaPad*%
%ADD28C,0.800000*%
%TD*%
%TA.AperFunction,Conductor*%
%ADD29C,0.300000*%
%TD*%
%TA.AperFunction,Conductor*%
%ADD30C,0.500000*%
%TD*%
%TA.AperFunction,Conductor*%
%ADD31C,0.750000*%
%TD*%
%TA.AperFunction,Conductor*%
%ADD32C,0.200000*%
%TD*%
G04 APERTURE END LIST*
D10*
%TO.P,Y1,2*%
%TO.N,Net-(C17-Pad1)*%
X93350000Y-111550000D03*
%TO.P,Y1,1*%
%TO.N,Net-(C16-Pad1)*%
X93350000Y-107850000D03*
%TD*%
D11*
%TO.P,U7,1*%
%TO.N,USB_D+*%
X118125000Y-107675000D03*
%TO.P,U7,2*%
%TO.N,USB_D-*%
X117625000Y-107675000D03*
%TO.P,U7,3*%
%TO.N,GND*%
X117125000Y-107675000D03*
%TO.P,U7,4*%
%TO.N,Net-(U7-Pad4)*%
X116625000Y-107675000D03*
%TO.P,U7,5*%
%TO.N,Net-(U7-Pad5)*%
X116125000Y-107675000D03*
%TO.P,U7,6*%
%TO.N,Net-(R6-Pad1)*%
X116125000Y-112075000D03*
%TO.P,U7,7*%
%TO.N,+5V*%
X116625000Y-112075000D03*
%TO.P,U7,8*%
%TO.N,USART1_RX*%
X117125000Y-112075000D03*
%TO.P,U7,9*%
%TO.N,USART1_TX*%
X117625000Y-112075000D03*
%TO.P,U7,10*%
%TO.N,Net-(C19-Pad1)*%
X118125000Y-112075000D03*
%TD*%
D12*
%TO.P,U4,16*%
%TO.N,GND*%
X95250000Y-123500000D03*
%TO.P,U4,15*%
%TO.N,LORA_NSS_SPI*%
X97250000Y-123500000D03*
%TO.P,U4,14*%
%TO.N,SPI1_MOSI*%
X99250000Y-123500000D03*
%TO.P,U4,13*%
%TO.N,SP1_MISO*%
X101250000Y-123500000D03*
%TO.P,U4,12*%
%TO.N,SP1_SCK*%
X103250000Y-123500000D03*
%TO.P,U4,11*%
%TO.N,Net-(U4-Pad11)*%
X105250000Y-123500000D03*
%TO.P,U4,10*%
%TO.N,Net-(U4-Pad10)*%
X107250000Y-123500000D03*
%TO.P,U4,9*%
%TO.N,GND*%
X109250000Y-123500000D03*
%TO.P,U4,8*%
%TO.N,Net-(U4-Pad8)*%
X109250000Y-139500000D03*
%TO.P,U4,7*%
%TO.N,Net-(U4-Pad7)*%
X107250000Y-139500000D03*
%TO.P,U4,6*%
%TO.N,Net-(U4-Pad6)*%
X105250000Y-139500000D03*
%TO.P,U4,5*%
%TO.N,DIO0_LORA*%
X103250000Y-139500000D03*
%TO.P,U4,4*%
%TO.N,NRESET_LORA*%
X101250000Y-139500000D03*
%TO.P,U4,3*%
%TO.N,+3V3*%
X99250000Y-139500000D03*
%TO.P,U4,2*%
%TO.N,GND*%
X97250000Y-139500000D03*
%TO.P,U4,1*%
X95250000Y-139500000D03*
%TD*%
D13*
%TO.P,H4,1*%
%TO.N,GND*%
X89697056Y-92802944D03*
X88000000Y-92100000D03*
X86302944Y-92802944D03*
X85600000Y-94500000D03*
X86302944Y-96197056D03*
X88000000Y-96900000D03*
X89697056Y-96197056D03*
X90400000Y-94500000D03*
D14*
X88000000Y-94500000D03*
%TD*%
D13*
%TO.P,H3,1*%
%TO.N,GND*%
X89697056Y-138802944D03*
X88000000Y-138100000D03*
X86302944Y-138802944D03*
X85600000Y-140500000D03*
X86302944Y-142197056D03*
X88000000Y-142900000D03*
X89697056Y-142197056D03*
X90400000Y-140500000D03*
D14*
X88000000Y-140500000D03*
%TD*%
D13*
%TO.P,H2,1*%
%TO.N,GND*%
X131697056Y-138802944D03*
X130000000Y-138100000D03*
X128302944Y-138802944D03*
X127600000Y-140500000D03*
X128302944Y-142197056D03*
X130000000Y-142900000D03*
X131697056Y-142197056D03*
X132400000Y-140500000D03*
D14*
X130000000Y-140500000D03*
%TD*%
D13*
%TO.P,H1,1*%
%TO.N,GND*%
X131697056Y-92802944D03*
X130000000Y-92100000D03*
X128302944Y-92802944D03*
X127600000Y-94500000D03*
X128302944Y-96197056D03*
X130000000Y-96900000D03*
X131697056Y-96197056D03*
X132400000Y-94500000D03*
D14*
X130000000Y-94500000D03*
%TD*%
%TO.P,C9,2*%
%TO.N,GND*%
%TA.AperFunction,SMDPad,CuDef*%
G36*
G01*
X97170000Y-111050000D02*
X96830000Y-111050000D01*
G75*
G02*
X96690000Y-110910000I0J140000D01*
G01*
X96690000Y-110630000D01*
G75*
G02*
X96830000Y-110490000I140000J0D01*
G01*
X97170000Y-110490000D01*
G75*
G02*
X97310000Y-110630000I0J-140000D01*
G01*
X97310000Y-110910000D01*
G75*
G02*
X97170000Y-111050000I-140000J0D01*
G01*
G37*
%TD.AperFunction*%
%TO.P,C9,1*%
%TO.N,+3.3VA*%
%TA.AperFunction,SMDPad,CuDef*%
G36*
G01*
X97170000Y-112010000D02*
X96830000Y-112010000D01*
G75*
G02*
X96690000Y-111870000I0J140000D01*
G01*
X96690000Y-111590000D01*
G75*
G02*
X96830000Y-111450000I140000J0D01*
G01*
X97170000Y-111450000D01*
G75*
G02*
X97310000Y-111590000I0J-140000D01*
G01*
X97310000Y-111870000D01*
G75*
G02*
X97170000Y-112010000I-140000J0D01*
G01*
G37*
%TD.AperFunction*%
%TD*%
%TO.P,C8,2*%
%TO.N,GND*%
%TA.AperFunction,SMDPad,CuDef*%
G36*
G01*
X98420000Y-111050000D02*
X98080000Y-111050000D01*
G75*
G02*
X97940000Y-110910000I0J140000D01*
G01*
X97940000Y-110630000D01*
G75*
G02*
X98080000Y-110490000I140000J0D01*
G01*
X98420000Y-110490000D01*
G75*
G02*
X98560000Y-110630000I0J-140000D01*
G01*
X98560000Y-110910000D01*
G75*
G02*
X98420000Y-111050000I-140000J0D01*
G01*
G37*
%TD.AperFunction*%
%TO.P,C8,1*%
%TO.N,+3.3VA*%
%TA.AperFunction,SMDPad,CuDef*%
G36*
G01*
X98420000Y-112010000D02*
X98080000Y-112010000D01*
G75*
G02*
X97940000Y-111870000I0J140000D01*
G01*
X97940000Y-111590000D01*
G75*
G02*
X98080000Y-111450000I140000J0D01*
G01*
X98420000Y-111450000D01*
G75*
G02*
X98560000Y-111590000I0J-140000D01*
G01*
X98560000Y-111870000D01*
G75*
G02*
X98420000Y-112010000I-140000J0D01*
G01*
G37*
%TD.AperFunction*%
%TD*%
%TO.P,C15,2*%
%TO.N,GND*%
%TA.AperFunction,SMDPad,CuDef*%
G36*
G01*
X101050000Y-99330000D02*
X101050000Y-99670000D01*
G75*
G02*
X100910000Y-99810000I-140000J0D01*
G01*
X100630000Y-99810000D01*
G75*
G02*
X100490000Y-99670000I0J140000D01*
G01*
X100490000Y-99330000D01*
G75*
G02*
X100630000Y-99190000I140000J0D01*
G01*
X100910000Y-99190000D01*
G75*
G02*
X101050000Y-99330000I0J-140000D01*
G01*
G37*
%TD.AperFunction*%
%TO.P,C15,1*%
%TO.N,Net-(C15-Pad1)*%
%TA.AperFunction,SMDPad,CuDef*%
G36*
G01*
X102010000Y-99330000D02*
X102010000Y-99670000D01*
G75*
G02*
X101870000Y-99810000I-140000J0D01*
G01*
X101590000Y-99810000D01*
G75*
G02*
X101450000Y-99670000I0J140000D01*
G01*
X101450000Y-99330000D01*
G75*
G02*
X101590000Y-99190000I140000J0D01*
G01*
X101870000Y-99190000D01*
G75*
G02*
X102010000Y-99330000I0J-140000D01*
G01*
G37*
%TD.AperFunction*%
%TD*%
%TO.P,C11,2*%
%TO.N,GND*%
%TA.AperFunction,SMDPad,CuDef*%
G36*
G01*
X99080000Y-95400000D02*
X99420000Y-95400000D01*
G75*
G02*
X99560000Y-95540000I0J-140000D01*
G01*
X99560000Y-95820000D01*
G75*
G02*
X99420000Y-95960000I-140000J0D01*
G01*
X99080000Y-95960000D01*
G75*
G02*
X98940000Y-95820000I0J140000D01*
G01*
X98940000Y-95540000D01*
G75*
G02*
X99080000Y-95400000I140000J0D01*
G01*
G37*
%TD.AperFunction*%
%TO.P,C11,1*%
%TO.N,+3V3*%
%TA.AperFunction,SMDPad,CuDef*%
G36*
G01*
X99080000Y-94440000D02*
X99420000Y-94440000D01*
G75*
G02*
X99560000Y-94580000I0J-140000D01*
G01*
X99560000Y-94860000D01*
G75*
G02*
X99420000Y-95000000I-140000J0D01*
G01*
X99080000Y-95000000D01*
G75*
G02*
X98940000Y-94860000I0J140000D01*
G01*
X98940000Y-94580000D01*
G75*
G02*
X99080000Y-94440000I140000J0D01*
G01*
G37*
%TD.AperFunction*%
%TD*%
%TO.P,C10,2*%
%TO.N,GND*%
%TA.AperFunction,SMDPad,CuDef*%
G36*
G01*
X104050000Y-92430000D02*
X104050000Y-92770000D01*
G75*
G02*
X103910000Y-92910000I-140000J0D01*
G01*
X103630000Y-92910000D01*
G75*
G02*
X103490000Y-92770000I0J140000D01*
G01*
X103490000Y-92430000D01*
G75*
G02*
X103630000Y-92290000I140000J0D01*
G01*
X103910000Y-92290000D01*
G75*
G02*
X104050000Y-92430000I0J-140000D01*
G01*
G37*
%TD.AperFunction*%
%TO.P,C10,1*%
%TO.N,+3V3*%
%TA.AperFunction,SMDPad,CuDef*%
G36*
G01*
X105010000Y-92430000D02*
X105010000Y-92770000D01*
G75*
G02*
X104870000Y-92910000I-140000J0D01*
G01*
X104590000Y-92910000D01*
G75*
G02*
X104450000Y-92770000I0J140000D01*
G01*
X104450000Y-92430000D01*
G75*
G02*
X104590000Y-92290000I140000J0D01*
G01*
X104870000Y-92290000D01*
G75*
G02*
X105010000Y-92430000I0J-140000D01*
G01*
G37*
%TD.AperFunction*%
%TD*%
%TO.P,C2,2*%
%TO.N,GND*%
%TA.AperFunction,SMDPad,CuDef*%
G36*
G01*
X119400000Y-119325001D02*
X119400000Y-118474999D01*
G75*
G02*
X119649999Y-118225000I249999J0D01*
G01*
X120550001Y-118225000D01*
G75*
G02*
X120800000Y-118474999I0J-249999D01*
G01*
X120800000Y-119325001D01*
G75*
G02*
X120550001Y-119575000I-249999J0D01*
G01*
X119649999Y-119575000D01*
G75*
G02*
X119400000Y-119325001I0J249999D01*
G01*
G37*
%TD.AperFunction*%
%TO.P,C2,1*%
%TO.N,+3V3*%
%TA.AperFunction,SMDPad,CuDef*%
G36*
G01*
X116700000Y-119325001D02*
X116700000Y-118474999D01*
G75*
G02*
X116949999Y-118225000I249999J0D01*
G01*
X117850001Y-118225000D01*
G75*
G02*
X118100000Y-118474999I0J-249999D01*
G01*
X118100000Y-119325001D01*
G75*
G02*
X117850001Y-119575000I-249999J0D01*
G01*
X116949999Y-119575000D01*
G75*
G02*
X116700000Y-119325001I0J249999D01*
G01*
G37*
%TD.AperFunction*%
%TD*%
%TO.P,C1,2*%
%TO.N,GND*%
%TA.AperFunction,SMDPad,CuDef*%
G36*
G01*
X123300000Y-118474999D02*
X123300000Y-119325001D01*
G75*
G02*
X123050001Y-119575000I-249999J0D01*
G01*
X122149999Y-119575000D01*
G75*
G02*
X121900000Y-119325001I0J249999D01*
G01*
X121900000Y-118474999D01*
G75*
G02*
X122149999Y-118225000I249999J0D01*
G01*
X123050001Y-118225000D01*
G75*
G02*
X123300000Y-118474999I0J-249999D01*
G01*
G37*
%TD.AperFunction*%
%TO.P,C1,1*%
%TO.N,Net-(C1-Pad1)*%
%TA.AperFunction,SMDPad,CuDef*%
G36*
G01*
X126000000Y-118474999D02*
X126000000Y-119325001D01*
G75*
G02*
X125750001Y-119575000I-249999J0D01*
G01*
X124849999Y-119575000D01*
G75*
G02*
X124600000Y-119325001I0J249999D01*
G01*
X124600000Y-118474999D01*
G75*
G02*
X124849999Y-118225000I249999J0D01*
G01*
X125750001Y-118225000D01*
G75*
G02*
X126000000Y-118474999I0J-249999D01*
G01*
G37*
%TD.AperFunction*%
%TD*%
%TO.P,C3,1*%
%TO.N,+3V3*%
%TA.AperFunction,SMDPad,CuDef*%
G36*
G01*
X99975000Y-104250000D02*
X99975000Y-104750000D01*
G75*
G02*
X99750000Y-104975000I-225000J0D01*
G01*
X99300000Y-104975000D01*
G75*
G02*
X99075000Y-104750000I0J225000D01*
G01*
X99075000Y-104250000D01*
G75*
G02*
X99300000Y-104025000I225000J0D01*
G01*
X99750000Y-104025000D01*
G75*
G02*
X99975000Y-104250000I0J-225000D01*
G01*
G37*
%TD.AperFunction*%
%TO.P,C3,2*%
%TO.N,GND*%
%TA.AperFunction,SMDPad,CuDef*%
G36*
G01*
X98425000Y-104250000D02*
X98425000Y-104750000D01*
G75*
G02*
X98200000Y-104975000I-225000J0D01*
G01*
X97750000Y-104975000D01*
G75*
G02*
X97525000Y-104750000I0J225000D01*
G01*
X97525000Y-104250000D01*
G75*
G02*
X97750000Y-104025000I225000J0D01*
G01*
X98200000Y-104025000D01*
G75*
G02*
X98425000Y-104250000I0J-225000D01*
G01*
G37*
%TD.AperFunction*%
%TD*%
%TO.P,C4,2*%
%TO.N,GND*%
%TA.AperFunction,SMDPad,CuDef*%
G36*
G01*
X99050000Y-106080000D02*
X99050000Y-106420000D01*
G75*
G02*
X98910000Y-106560000I-140000J0D01*
G01*
X98630000Y-106560000D01*
G75*
G02*
X98490000Y-106420000I0J140000D01*
G01*
X98490000Y-106080000D01*
G75*
G02*
X98630000Y-105940000I140000J0D01*
G01*
X98910000Y-105940000D01*
G75*
G02*
X99050000Y-106080000I0J-140000D01*
G01*
G37*
%TD.AperFunction*%
%TO.P,C4,1*%
%TO.N,+3V3*%
%TA.AperFunction,SMDPad,CuDef*%
G36*
G01*
X100010000Y-106080000D02*
X100010000Y-106420000D01*
G75*
G02*
X99870000Y-106560000I-140000J0D01*
G01*
X99590000Y-106560000D01*
G75*
G02*
X99450000Y-106420000I0J140000D01*
G01*
X99450000Y-106080000D01*
G75*
G02*
X99590000Y-105940000I140000J0D01*
G01*
X99870000Y-105940000D01*
G75*
G02*
X100010000Y-106080000I0J-140000D01*
G01*
G37*
%TD.AperFunction*%
%TD*%
%TO.P,C5,1*%
%TO.N,+3V3*%
%TA.AperFunction,SMDPad,CuDef*%
G36*
G01*
X108040000Y-115220000D02*
X108040000Y-114880000D01*
G75*
G02*
X108180000Y-114740000I140000J0D01*
G01*
X108460000Y-114740000D01*
G75*
G02*
X108600000Y-114880000I0J-140000D01*
G01*
X108600000Y-115220000D01*
G75*
G02*
X108460000Y-115360000I-140000J0D01*
G01*
X108180000Y-115360000D01*
G75*
G02*
X108040000Y-115220000I0J140000D01*
G01*
G37*
%TD.AperFunction*%
%TO.P,C5,2*%
%TO.N,GND*%
%TA.AperFunction,SMDPad,CuDef*%
G36*
G01*
X109000000Y-115220000D02*
X109000000Y-114880000D01*
G75*
G02*
X109140000Y-114740000I140000J0D01*
G01*
X109420000Y-114740000D01*
G75*
G02*
X109560000Y-114880000I0J-140000D01*
G01*
X109560000Y-115220000D01*
G75*
G02*
X109420000Y-115360000I-140000J0D01*
G01*
X109140000Y-115360000D01*
G75*
G02*
X109000000Y-115220000I0J140000D01*
G01*
G37*
%TD.AperFunction*%
%TD*%
%TO.P,C6,2*%
%TO.N,GND*%
%TA.AperFunction,SMDPad,CuDef*%
G36*
G01*
X109700000Y-106420000D02*
X109700000Y-106080000D01*
G75*
G02*
X109840000Y-105940000I140000J0D01*
G01*
X110120000Y-105940000D01*
G75*
G02*
X110260000Y-106080000I0J-140000D01*
G01*
X110260000Y-106420000D01*
G75*
G02*
X110120000Y-106560000I-140000J0D01*
G01*
X109840000Y-106560000D01*
G75*
G02*
X109700000Y-106420000I0J140000D01*
G01*
G37*
%TD.AperFunction*%
%TO.P,C6,1*%
%TO.N,+3V3*%
%TA.AperFunction,SMDPad,CuDef*%
G36*
G01*
X108740000Y-106420000D02*
X108740000Y-106080000D01*
G75*
G02*
X108880000Y-105940000I140000J0D01*
G01*
X109160000Y-105940000D01*
G75*
G02*
X109300000Y-106080000I0J-140000D01*
G01*
X109300000Y-106420000D01*
G75*
G02*
X109160000Y-106560000I-140000J0D01*
G01*
X108880000Y-106560000D01*
G75*
G02*
X108740000Y-106420000I0J140000D01*
G01*
G37*
%TD.AperFunction*%
%TD*%
%TO.P,C7,1*%
%TO.N,+3V3*%
%TA.AperFunction,SMDPad,CuDef*%
G36*
G01*
X100740000Y-104420000D02*
X100740000Y-104080000D01*
G75*
G02*
X100880000Y-103940000I140000J0D01*
G01*
X101160000Y-103940000D01*
G75*
G02*
X101300000Y-104080000I0J-140000D01*
G01*
X101300000Y-104420000D01*
G75*
G02*
X101160000Y-104560000I-140000J0D01*
G01*
X100880000Y-104560000D01*
G75*
G02*
X100740000Y-104420000I0J140000D01*
G01*
G37*
%TD.AperFunction*%
%TO.P,C7,2*%
%TO.N,GND*%
%TA.AperFunction,SMDPad,CuDef*%
G36*
G01*
X101700000Y-104420000D02*
X101700000Y-104080000D01*
G75*
G02*
X101840000Y-103940000I140000J0D01*
G01*
X102120000Y-103940000D01*
G75*
G02*
X102260000Y-104080000I0J-140000D01*
G01*
X102260000Y-104420000D01*
G75*
G02*
X102120000Y-104560000I-140000J0D01*
G01*
X101840000Y-104560000D01*
G75*
G02*
X101700000Y-104420000I0J140000D01*
G01*
G37*
%TD.AperFunction*%
%TD*%
%TO.P,C12,1*%
%TO.N,+3V3*%
%TA.AperFunction,SMDPad,CuDef*%
G36*
G01*
X109240000Y-117870000D02*
X109240000Y-117530000D01*
G75*
G02*
X109380000Y-117390000I140000J0D01*
G01*
X109660000Y-117390000D01*
G75*
G02*
X109800000Y-117530000I0J-140000D01*
G01*
X109800000Y-117870000D01*
G75*
G02*
X109660000Y-118010000I-140000J0D01*
G01*
X109380000Y-118010000D01*
G75*
G02*
X109240000Y-117870000I0J140000D01*
G01*
G37*
%TD.AperFunction*%
%TO.P,C12,2*%
%TO.N,GND*%
%TA.AperFunction,SMDPad,CuDef*%
G36*
G01*
X110200000Y-117870000D02*
X110200000Y-117530000D01*
G75*
G02*
X110340000Y-117390000I140000J0D01*
G01*
X110620000Y-117390000D01*
G75*
G02*
X110760000Y-117530000I0J-140000D01*
G01*
X110760000Y-117870000D01*
G75*
G02*
X110620000Y-118010000I-140000J0D01*
G01*
X110340000Y-118010000D01*
G75*
G02*
X110200000Y-117870000I0J140000D01*
G01*
G37*
%TD.AperFunction*%
%TD*%
%TO.P,C13,2*%
%TO.N,GND*%
%TA.AperFunction,SMDPad,CuDef*%
G36*
G01*
X111930000Y-119550000D02*
X112270000Y-119550000D01*
G75*
G02*
X112410000Y-119690000I0J-140000D01*
G01*
X112410000Y-119970000D01*
G75*
G02*
X112270000Y-120110000I-140000J0D01*
G01*
X111930000Y-120110000D01*
G75*
G02*
X111790000Y-119970000I0J140000D01*
G01*
X111790000Y-119690000D01*
G75*
G02*
X111930000Y-119550000I140000J0D01*
G01*
G37*
%TD.AperFunction*%
%TO.P,C13,1*%
%TO.N,+3V3*%
%TA.AperFunction,SMDPad,CuDef*%
G36*
G01*
X111930000Y-118590000D02*
X112270000Y-118590000D01*
G75*
G02*
X112410000Y-118730000I0J-140000D01*
G01*
X112410000Y-119010000D01*
G75*
G02*
X112270000Y-119150000I-140000J0D01*
G01*
X111930000Y-119150000D01*
G75*
G02*
X111790000Y-119010000I0J140000D01*
G01*
X111790000Y-118730000D01*
G75*
G02*
X111930000Y-118590000I140000J0D01*
G01*
G37*
%TD.AperFunction*%
%TD*%
%TO.P,C14,1*%
%TO.N,Net-(C14-Pad1)*%
%TA.AperFunction,SMDPad,CuDef*%
G36*
G01*
X102510000Y-92430000D02*
X102510000Y-92770000D01*
G75*
G02*
X102370000Y-92910000I-140000J0D01*
G01*
X102090000Y-92910000D01*
G75*
G02*
X101950000Y-92770000I0J140000D01*
G01*
X101950000Y-92430000D01*
G75*
G02*
X102090000Y-92290000I140000J0D01*
G01*
X102370000Y-92290000D01*
G75*
G02*
X102510000Y-92430000I0J-140000D01*
G01*
G37*
%TD.AperFunction*%
%TO.P,C14,2*%
%TO.N,GND*%
%TA.AperFunction,SMDPad,CuDef*%
G36*
G01*
X101550000Y-92430000D02*
X101550000Y-92770000D01*
G75*
G02*
X101410000Y-92910000I-140000J0D01*
G01*
X101130000Y-92910000D01*
G75*
G02*
X100990000Y-92770000I0J140000D01*
G01*
X100990000Y-92430000D01*
G75*
G02*
X101130000Y-92290000I140000J0D01*
G01*
X101410000Y-92290000D01*
G75*
G02*
X101550000Y-92430000I0J-140000D01*
G01*
G37*
%TD.AperFunction*%
%TD*%
%TO.P,C16,2*%
%TO.N,GND*%
%TA.AperFunction,SMDPad,CuDef*%
G36*
G01*
X94425000Y-105600000D02*
X94425000Y-105100000D01*
G75*
G02*
X94650000Y-104875000I225000J0D01*
G01*
X95100000Y-104875000D01*
G75*
G02*
X95325000Y-105100000I0J-225000D01*
G01*
X95325000Y-105600000D01*
G75*
G02*
X95100000Y-105825000I-225000J0D01*
G01*
X94650000Y-105825000D01*
G75*
G02*
X94425000Y-105600000I0J225000D01*
G01*
G37*
%TD.AperFunction*%
%TO.P,C16,1*%
%TO.N,Net-(C16-Pad1)*%
%TA.AperFunction,SMDPad,CuDef*%
G36*
G01*
X92875000Y-105600000D02*
X92875000Y-105100000D01*
G75*
G02*
X93100000Y-104875000I225000J0D01*
G01*
X93550000Y-104875000D01*
G75*
G02*
X93775000Y-105100000I0J-225000D01*
G01*
X93775000Y-105600000D01*
G75*
G02*
X93550000Y-105825000I-225000J0D01*
G01*
X93100000Y-105825000D01*
G75*
G02*
X92875000Y-105600000I0J225000D01*
G01*
G37*
%TD.AperFunction*%
%TD*%
%TO.P,C17,1*%
%TO.N,Net-(C17-Pad1)*%
%TA.AperFunction,SMDPad,CuDef*%
G36*
G01*
X92875000Y-114100000D02*
X92875000Y-113600000D01*
G75*
G02*
X93100000Y-113375000I225000J0D01*
G01*
X93550000Y-113375000D01*
G75*
G02*
X93775000Y-113600000I0J-225000D01*
G01*
X93775000Y-114100000D01*
G75*
G02*
X93550000Y-114325000I-225000J0D01*
G01*
X93100000Y-114325000D01*
G75*
G02*
X92875000Y-114100000I0J225000D01*
G01*
G37*
%TD.AperFunction*%
%TO.P,C17,2*%
%TO.N,GND*%
%TA.AperFunction,SMDPad,CuDef*%
G36*
G01*
X94425000Y-114100000D02*
X94425000Y-113600000D01*
G75*
G02*
X94650000Y-113375000I225000J0D01*
G01*
X95100000Y-113375000D01*
G75*
G02*
X95325000Y-113600000I0J-225000D01*
G01*
X95325000Y-114100000D01*
G75*
G02*
X95100000Y-114325000I-225000J0D01*
G01*
X94650000Y-114325000D01*
G75*
G02*
X94425000Y-114100000I0J225000D01*
G01*
G37*
%TD.AperFunction*%
%TD*%
%TO.P,C18,1*%
%TO.N,+5V*%
%TA.AperFunction,SMDPad,CuDef*%
G36*
G01*
X116535000Y-113655000D02*
X116535000Y-113995000D01*
G75*
G02*
X116395000Y-114135000I-140000J0D01*
G01*
X116115000Y-114135000D01*
G75*
G02*
X115975000Y-113995000I0J140000D01*
G01*
X115975000Y-113655000D01*
G75*
G02*
X116115000Y-113515000I140000J0D01*
G01*
X116395000Y-113515000D01*
G75*
G02*
X116535000Y-113655000I0J-140000D01*
G01*
G37*
%TD.AperFunction*%
%TO.P,C18,2*%
%TO.N,GND*%
%TA.AperFunction,SMDPad,CuDef*%
G36*
G01*
X115575000Y-113655000D02*
X115575000Y-113995000D01*
G75*
G02*
X115435000Y-114135000I-140000J0D01*
G01*
X115155000Y-114135000D01*
G75*
G02*
X115015000Y-113995000I0J140000D01*
G01*
X115015000Y-113655000D01*
G75*
G02*
X115155000Y-113515000I140000J0D01*
G01*
X115435000Y-113515000D01*
G75*
G02*
X115575000Y-113655000I0J-140000D01*
G01*
G37*
%TD.AperFunction*%
%TD*%
%TO.P,C19,2*%
%TO.N,GND*%
%TA.AperFunction,SMDPad,CuDef*%
G36*
G01*
X119945000Y-111375000D02*
X119605000Y-111375000D01*
G75*
G02*
X119465000Y-111235000I0J140000D01*
G01*
X119465000Y-110955000D01*
G75*
G02*
X119605000Y-110815000I140000J0D01*
G01*
X119945000Y-110815000D01*
G75*
G02*
X120085000Y-110955000I0J-140000D01*
G01*
X120085000Y-111235000D01*
G75*
G02*
X119945000Y-111375000I-140000J0D01*
G01*
G37*
%TD.AperFunction*%
%TO.P,C19,1*%
%TO.N,Net-(C19-Pad1)*%
%TA.AperFunction,SMDPad,CuDef*%
G36*
G01*
X119945000Y-112335000D02*
X119605000Y-112335000D01*
G75*
G02*
X119465000Y-112195000I0J140000D01*
G01*
X119465000Y-111915000D01*
G75*
G02*
X119605000Y-111775000I140000J0D01*
G01*
X119945000Y-111775000D01*
G75*
G02*
X120085000Y-111915000I0J-140000D01*
G01*
X120085000Y-112195000D01*
G75*
G02*
X119945000Y-112335000I-140000J0D01*
G01*
G37*
%TD.AperFunction*%
%TD*%
%TO.P,D1,2*%
%TO.N,+3V3*%
%TA.AperFunction,SMDPad,CuDef*%
G36*
G01*
X117200000Y-136956250D02*
X117200000Y-136443750D01*
G75*
G02*
X117418750Y-136225000I218750J0D01*
G01*
X117856250Y-136225000D01*
G75*
G02*
X118075000Y-136443750I0J-218750D01*
G01*
X118075000Y-136956250D01*
G75*
G02*
X117856250Y-137175000I-218750J0D01*
G01*
X117418750Y-137175000D01*
G75*
G02*
X117200000Y-136956250I0J218750D01*
G01*
G37*
%TD.AperFunction*%
%TO.P,D1,1*%
%TO.N,Net-(D1-Pad1)*%
%TA.AperFunction,SMDPad,CuDef*%
G36*
G01*
X115625000Y-136956250D02*
X115625000Y-136443750D01*
G75*
G02*
X115843750Y-136225000I218750J0D01*
G01*
X116281250Y-136225000D01*
G75*
G02*
X116500000Y-136443750I0J-218750D01*
G01*
X116500000Y-136956250D01*
G75*
G02*
X116281250Y-137175000I-218750J0D01*
G01*
X115843750Y-137175000D01*
G75*
G02*
X115625000Y-136956250I0J218750D01*
G01*
G37*
%TD.AperFunction*%
%TD*%
%TO.P,D2,1*%
%TO.N,GND*%
%TA.AperFunction,SMDPad,CuDef*%
G36*
G01*
X92993750Y-116025000D02*
X93506250Y-116025000D01*
G75*
G02*
X93725000Y-116243750I0J-218750D01*
G01*
X93725000Y-116681250D01*
G75*
G02*
X93506250Y-116900000I-218750J0D01*
G01*
X92993750Y-116900000D01*
G75*
G02*
X92775000Y-116681250I0J218750D01*
G01*
X92775000Y-116243750D01*
G75*
G02*
X92993750Y-116025000I218750J0D01*
G01*
G37*
%TD.AperFunction*%
%TO.P,D2,2*%
%TO.N,Net-(D2-Pad2)*%
%TA.AperFunction,SMDPad,CuDef*%
G36*
G01*
X92993750Y-117600000D02*
X93506250Y-117600000D01*
G75*
G02*
X93725000Y-117818750I0J-218750D01*
G01*
X93725000Y-118256250D01*
G75*
G02*
X93506250Y-118475000I-218750J0D01*
G01*
X92993750Y-118475000D01*
G75*
G02*
X92775000Y-118256250I0J218750D01*
G01*
X92775000Y-117818750D01*
G75*
G02*
X92993750Y-117600000I218750J0D01*
G01*
G37*
%TD.AperFunction*%
%TD*%
%TO.P,D3,1*%
%TO.N,GND*%
%TA.AperFunction,SMDPad,CuDef*%
G36*
G01*
X113518750Y-106387500D02*
X114031250Y-106387500D01*
G75*
G02*
X114250000Y-106606250I0J-218750D01*
G01*
X114250000Y-107043750D01*
G75*
G02*
X114031250Y-107262500I-218750J0D01*
G01*
X113518750Y-107262500D01*
G75*
G02*
X113300000Y-107043750I0J218750D01*
G01*
X113300000Y-106606250D01*
G75*
G02*
X113518750Y-106387500I218750J0D01*
G01*
G37*
%TD.AperFunction*%
%TO.P,D3,2*%
%TO.N,Net-(D3-Pad2)*%
%TA.AperFunction,SMDPad,CuDef*%
G36*
G01*
X113518750Y-107962500D02*
X114031250Y-107962500D01*
G75*
G02*
X114250000Y-108181250I0J-218750D01*
G01*
X114250000Y-108618750D01*
G75*
G02*
X114031250Y-108837500I-218750J0D01*
G01*
X113518750Y-108837500D01*
G75*
G02*
X113300000Y-108618750I0J218750D01*
G01*
X113300000Y-108181250D01*
G75*
G02*
X113518750Y-107962500I218750J0D01*
G01*
G37*
%TD.AperFunction*%
%TD*%
%TO.P,F1,1*%
%TO.N,Net-(C1-Pad1)*%
%TA.AperFunction,SMDPad,CuDef*%
G36*
G01*
X127225000Y-119525000D02*
X127225000Y-118275000D01*
G75*
G02*
X127475000Y-118025000I250000J0D01*
G01*
X128225000Y-118025000D01*
G75*
G02*
X128475000Y-118275000I0J-250000D01*
G01*
X128475000Y-119525000D01*
G75*
G02*
X128225000Y-119775000I-250000J0D01*
G01*
X127475000Y-119775000D01*
G75*
G02*
X127225000Y-119525000I0J250000D01*
G01*
G37*
%TD.AperFunction*%
%TO.P,F1,2*%
%TO.N,+5V*%
%TA.AperFunction,SMDPad,CuDef*%
G36*
G01*
X130025000Y-119525000D02*
X130025000Y-118275000D01*
G75*
G02*
X130275000Y-118025000I250000J0D01*
G01*
X131025000Y-118025000D01*
G75*
G02*
X131275000Y-118275000I0J-250000D01*
G01*
X131275000Y-119525000D01*
G75*
G02*
X131025000Y-119775000I-250000J0D01*
G01*
X130275000Y-119775000D01*
G75*
G02*
X130025000Y-119525000I0J250000D01*
G01*
G37*
%TD.AperFunction*%
%TD*%
D15*
%TO.P,J1,6*%
%TO.N,Net-(J1-Pad6)*%
X130812500Y-106825000D03*
D16*
X128112500Y-110325000D03*
D17*
%TO.P,J1,2*%
%TO.N,USB_CONN_D-*%
X128112500Y-108475000D03*
%TO.P,J1,1*%
%TO.N,+5V*%
X128112500Y-109125000D03*
%TO.P,J1,5*%
%TO.N,GND*%
X128112500Y-106525000D03*
%TO.P,J1,4*%
%TO.N,Net-(J1-Pad4)*%
X128112500Y-107175000D03*
%TO.P,J1,3*%
%TO.N,USB_CONN_D+*%
X128112500Y-107825000D03*
D16*
%TO.P,J1,6*%
%TO.N,Net-(J1-Pad6)*%
X128112500Y-105325000D03*
D15*
X130812500Y-108825000D03*
D18*
X130812500Y-111325000D03*
X130812500Y-104325000D03*
D19*
X130812500Y-104925000D03*
X130812500Y-110725000D03*
%TD*%
D20*
%TO.P,J2,1*%
%TO.N,SWO*%
X117250000Y-94000000D03*
D21*
%TO.P,J2,2*%
%TO.N,SWDIO*%
X119790000Y-94000000D03*
%TO.P,J2,3*%
%TO.N,Net-(J2-Pad3)*%
X117250000Y-96540000D03*
%TO.P,J2,4*%
%TO.N,NRST*%
X119790000Y-96540000D03*
%TO.P,J2,5*%
%TO.N,GND*%
X117250000Y-99080000D03*
%TO.P,J2,6*%
%TO.N,SWCLK*%
X119790000Y-99080000D03*
%TD*%
%TO.P,L1,1*%
%TO.N,+3V3*%
%TA.AperFunction,SMDPad,CuDef*%
G36*
G01*
X97172500Y-114280000D02*
X96827500Y-114280000D01*
G75*
G02*
X96680000Y-114132500I0J147500D01*
G01*
X96680000Y-113837500D01*
G75*
G02*
X96827500Y-113690000I147500J0D01*
G01*
X97172500Y-113690000D01*
G75*
G02*
X97320000Y-113837500I0J-147500D01*
G01*
X97320000Y-114132500D01*
G75*
G02*
X97172500Y-114280000I-147500J0D01*
G01*
G37*
%TD.AperFunction*%
%TO.P,L1,2*%
%TO.N,+3.3VA*%
%TA.AperFunction,SMDPad,CuDef*%
G36*
G01*
X97172500Y-113310000D02*
X96827500Y-113310000D01*
G75*
G02*
X96680000Y-113162500I0J147500D01*
G01*
X96680000Y-112867500D01*
G75*
G02*
X96827500Y-112720000I147500J0D01*
G01*
X97172500Y-112720000D01*
G75*
G02*
X97320000Y-112867500I0J-147500D01*
G01*
X97320000Y-113162500D01*
G75*
G02*
X97172500Y-113310000I-147500J0D01*
G01*
G37*
%TD.AperFunction*%
%TD*%
%TO.P,R1,2*%
%TO.N,GND*%
%TA.AperFunction,SMDPad,CuDef*%
G36*
G01*
X117275000Y-139225000D02*
X117275000Y-138675000D01*
G75*
G02*
X117475000Y-138475000I200000J0D01*
G01*
X117875000Y-138475000D01*
G75*
G02*
X118075000Y-138675000I0J-200000D01*
G01*
X118075000Y-139225000D01*
G75*
G02*
X117875000Y-139425000I-200000J0D01*
G01*
X117475000Y-139425000D01*
G75*
G02*
X117275000Y-139225000I0J200000D01*
G01*
G37*
%TD.AperFunction*%
%TO.P,R1,1*%
%TO.N,Net-(D1-Pad1)*%
%TA.AperFunction,SMDPad,CuDef*%
G36*
G01*
X115625000Y-139225000D02*
X115625000Y-138675000D01*
G75*
G02*
X115825000Y-138475000I200000J0D01*
G01*
X116225000Y-138475000D01*
G75*
G02*
X116425000Y-138675000I0J-200000D01*
G01*
X116425000Y-139225000D01*
G75*
G02*
X116225000Y-139425000I-200000J0D01*
G01*
X115825000Y-139425000D01*
G75*
G02*
X115625000Y-139225000I0J200000D01*
G01*
G37*
%TD.AperFunction*%
%TD*%
%TO.P,R2,1*%
%TO.N,Net-(R2-Pad1)*%
%TA.AperFunction,SMDPad,CuDef*%
G36*
G01*
X91025000Y-104975000D02*
X90475000Y-104975000D01*
G75*
G02*
X90275000Y-104775000I0J200000D01*
G01*
X90275000Y-104375000D01*
G75*
G02*
X90475000Y-104175000I200000J0D01*
G01*
X91025000Y-104175000D01*
G75*
G02*
X91225000Y-104375000I0J-200000D01*
G01*
X91225000Y-104775000D01*
G75*
G02*
X91025000Y-104975000I-200000J0D01*
G01*
G37*
%TD.AperFunction*%
%TO.P,R2,2*%
%TO.N,BOOT0*%
%TA.AperFunction,SMDPad,CuDef*%
G36*
G01*
X91025000Y-103325000D02*
X90475000Y-103325000D01*
G75*
G02*
X90275000Y-103125000I0J200000D01*
G01*
X90275000Y-102725000D01*
G75*
G02*
X90475000Y-102525000I200000J0D01*
G01*
X91025000Y-102525000D01*
G75*
G02*
X91225000Y-102725000I0J-200000D01*
G01*
X91225000Y-103125000D01*
G75*
G02*
X91025000Y-103325000I-200000J0D01*
G01*
G37*
%TD.AperFunction*%
%TD*%
%TO.P,R3,1*%
%TO.N,LED_STATUS*%
%TA.AperFunction,SMDPad,CuDef*%
G36*
G01*
X94975000Y-116025000D02*
X95525000Y-116025000D01*
G75*
G02*
X95725000Y-116225000I0J-200000D01*
G01*
X95725000Y-116625000D01*
G75*
G02*
X95525000Y-116825000I-200000J0D01*
G01*
X94975000Y-116825000D01*
G75*
G02*
X94775000Y-116625000I0J200000D01*
G01*
X94775000Y-116225000D01*
G75*
G02*
X94975000Y-116025000I200000J0D01*
G01*
G37*
%TD.AperFunction*%
%TO.P,R3,2*%
%TO.N,Net-(D2-Pad2)*%
%TA.AperFunction,SMDPad,CuDef*%
G36*
G01*
X94975000Y-117675000D02*
X95525000Y-117675000D01*
G75*
G02*
X95725000Y-117875000I0J-200000D01*
G01*
X95725000Y-118275000D01*
G75*
G02*
X95525000Y-118475000I-200000J0D01*
G01*
X94975000Y-118475000D01*
G75*
G02*
X94775000Y-118275000I0J200000D01*
G01*
X94775000Y-117875000D01*
G75*
G02*
X94975000Y-117675000I200000J0D01*
G01*
G37*
%TD.AperFunction*%
%TD*%
%TO.P,R4,2*%
%TO.N,I2C1_SDA*%
%TA.AperFunction,SMDPad,CuDef*%
G36*
G01*
X104460000Y-101565000D02*
X104460000Y-101935000D01*
G75*
G02*
X104325000Y-102070000I-135000J0D01*
G01*
X104055000Y-102070000D01*
G75*
G02*
X103920000Y-101935000I0J135000D01*
G01*
X103920000Y-101565000D01*
G75*
G02*
X104055000Y-101430000I135000J0D01*
G01*
X104325000Y-101430000D01*
G75*
G02*
X104460000Y-101565000I0J-135000D01*
G01*
G37*
%TD.AperFunction*%
%TO.P,R4,1*%
%TO.N,+3V3*%
%TA.AperFunction,SMDPad,CuDef*%
G36*
G01*
X105480000Y-101565000D02*
X105480000Y-101935000D01*
G75*
G02*
X105345000Y-102070000I-135000J0D01*
G01*
X105075000Y-102070000D01*
G75*
G02*
X104940000Y-101935000I0J135000D01*
G01*
X104940000Y-101565000D01*
G75*
G02*
X105075000Y-101430000I135000J0D01*
G01*
X105345000Y-101430000D01*
G75*
G02*
X105480000Y-101565000I0J-135000D01*
G01*
G37*
%TD.AperFunction*%
%TD*%
%TO.P,R5,1*%
%TO.N,+3V3*%
%TA.AperFunction,SMDPad,CuDef*%
G36*
G01*
X101770000Y-101935000D02*
X101770000Y-101565000D01*
G75*
G02*
X101905000Y-101430000I135000J0D01*
G01*
X102175000Y-101430000D01*
G75*
G02*
X102310000Y-101565000I0J-135000D01*
G01*
X102310000Y-101935000D01*
G75*
G02*
X102175000Y-102070000I-135000J0D01*
G01*
X101905000Y-102070000D01*
G75*
G02*
X101770000Y-101935000I0J135000D01*
G01*
G37*
%TD.AperFunction*%
%TO.P,R5,2*%
%TO.N,I2C1_SCL*%
%TA.AperFunction,SMDPad,CuDef*%
G36*
G01*
X102790000Y-101935000D02*
X102790000Y-101565000D01*
G75*
G02*
X102925000Y-101430000I135000J0D01*
G01*
X103195000Y-101430000D01*
G75*
G02*
X103330000Y-101565000I0J-135000D01*
G01*
X103330000Y-101935000D01*
G75*
G02*
X103195000Y-102070000I-135000J0D01*
G01*
X102925000Y-102070000D01*
G75*
G02*
X102790000Y-101935000I0J135000D01*
G01*
G37*
%TD.AperFunction*%
%TD*%
%TO.P,R6,2*%
%TO.N,Net-(D3-Pad2)*%
%TA.AperFunction,SMDPad,CuDef*%
G36*
G01*
X114050000Y-110650000D02*
X113500000Y-110650000D01*
G75*
G02*
X113300000Y-110450000I0J200000D01*
G01*
X113300000Y-110050000D01*
G75*
G02*
X113500000Y-109850000I200000J0D01*
G01*
X114050000Y-109850000D01*
G75*
G02*
X114250000Y-110050000I0J-200000D01*
G01*
X114250000Y-110450000D01*
G75*
G02*
X114050000Y-110650000I-200000J0D01*
G01*
G37*
%TD.AperFunction*%
%TO.P,R6,1*%
%TO.N,Net-(R6-Pad1)*%
%TA.AperFunction,SMDPad,CuDef*%
G36*
G01*
X114050000Y-112300000D02*
X113500000Y-112300000D01*
G75*
G02*
X113300000Y-112100000I0J200000D01*
G01*
X113300000Y-111700000D01*
G75*
G02*
X113500000Y-111500000I200000J0D01*
G01*
X114050000Y-111500000D01*
G75*
G02*
X114250000Y-111700000I0J-200000D01*
G01*
X114250000Y-112100000D01*
G75*
G02*
X114050000Y-112300000I-200000J0D01*
G01*
G37*
%TD.AperFunction*%
%TD*%
%TO.P,R7,2*%
%TO.N,I2C2_SCL*%
%TA.AperFunction,SMDPad,CuDef*%
G36*
G01*
X105240000Y-117685000D02*
X105240000Y-117315000D01*
G75*
G02*
X105375000Y-117180000I135000J0D01*
G01*
X105645000Y-117180000D01*
G75*
G02*
X105780000Y-117315000I0J-135000D01*
G01*
X105780000Y-117685000D01*
G75*
G02*
X105645000Y-117820000I-135000J0D01*
G01*
X105375000Y-117820000D01*
G75*
G02*
X105240000Y-117685000I0J135000D01*
G01*
G37*
%TD.AperFunction*%
%TO.P,R7,1*%
%TO.N,+3V3*%
%TA.AperFunction,SMDPad,CuDef*%
G36*
G01*
X104220000Y-117685000D02*
X104220000Y-117315000D01*
G75*
G02*
X104355000Y-117180000I135000J0D01*
G01*
X104625000Y-117180000D01*
G75*
G02*
X104760000Y-117315000I0J-135000D01*
G01*
X104760000Y-117685000D01*
G75*
G02*
X104625000Y-117820000I-135000J0D01*
G01*
X104355000Y-117820000D01*
G75*
G02*
X104220000Y-117685000I0J135000D01*
G01*
G37*
%TD.AperFunction*%
%TD*%
%TO.P,R8,1*%
%TO.N,+3V3*%
%TA.AperFunction,SMDPad,CuDef*%
G36*
G01*
X108030000Y-117315000D02*
X108030000Y-117685000D01*
G75*
G02*
X107895000Y-117820000I-135000J0D01*
G01*
X107625000Y-117820000D01*
G75*
G02*
X107490000Y-117685000I0J135000D01*
G01*
X107490000Y-117315000D01*
G75*
G02*
X107625000Y-117180000I135000J0D01*
G01*
X107895000Y-117180000D01*
G75*
G02*
X108030000Y-117315000I0J-135000D01*
G01*
G37*
%TD.AperFunction*%
%TO.P,R8,2*%
%TO.N,I2C2_SDA*%
%TA.AperFunction,SMDPad,CuDef*%
G36*
G01*
X107010000Y-117315000D02*
X107010000Y-117685000D01*
G75*
G02*
X106875000Y-117820000I-135000J0D01*
G01*
X106605000Y-117820000D01*
G75*
G02*
X106470000Y-117685000I0J135000D01*
G01*
X106470000Y-117315000D01*
G75*
G02*
X106605000Y-117180000I135000J0D01*
G01*
X106875000Y-117180000D01*
G75*
G02*
X107010000Y-117315000I0J-135000D01*
G01*
G37*
%TD.AperFunction*%
%TD*%
D22*
%TO.P,SW1,1*%
%TO.N,+3V3*%
X87930000Y-101750000D03*
%TO.P,SW1,2*%
%TO.N,Net-(R2-Pad1)*%
X87930000Y-104750000D03*
%TO.P,SW1,3*%
%TO.N,GND*%
X87930000Y-106250000D03*
D23*
%TO.P,SW1,*%
%TO.N,*%
X85070000Y-100350000D03*
X85070000Y-107650000D03*
X87280000Y-107650000D03*
X87280000Y-100350000D03*
%TD*%
D24*
%TO.P,U1,1*%
%TO.N,GND*%
X129325000Y-129240000D03*
%TO.P,U1,3*%
%TO.N,Net-(C1-Pad1)*%
X129325000Y-124160000D03*
D25*
%TO.P,U1,2*%
%TO.N,+3V3*%
X120175000Y-126700000D03*
%TD*%
D26*
%TO.P,U2,1*%
%TO.N,USB_CONN_D-*%
X124400000Y-109100000D03*
%TO.P,U2,2*%
%TO.N,GND*%
X124400000Y-108150000D03*
%TO.P,U2,3*%
%TO.N,USB_CONN_D+*%
X124400000Y-107200000D03*
%TO.P,U2,4*%
%TO.N,USB_D+*%
X122200000Y-107200000D03*
%TO.P,U2,6*%
%TO.N,USB_D-*%
X122200000Y-109100000D03*
%TO.P,U2,5*%
%TO.N,+5V*%
X122200000Y-108150000D03*
%TD*%
D27*
%TO.P,U3,1*%
%TO.N,GND*%
X110825000Y-120500000D03*
%TO.P,U3,5*%
X108875000Y-118900000D03*
%TO.P,U3,6*%
%TO.N,+3V3*%
X109525000Y-118900000D03*
%TO.P,U3,7*%
%TO.N,GND*%
X110175000Y-118900000D03*
%TO.P,U3,4*%
%TO.N,I2C2_SCL*%
X108875000Y-120500000D03*
%TO.P,U3,3*%
%TO.N,I2C2_SDA*%
X109525000Y-120500000D03*
%TO.P,U3,2*%
%TO.N,+3V3*%
X110175000Y-120500000D03*
%TO.P,U3,8*%
X110825000Y-118900000D03*
%TD*%
%TO.P,U5,1*%
%TO.N,GND*%
%TA.AperFunction,SMDPad,CuDef*%
G36*
G01*
X105075000Y-97175000D02*
X105075000Y-97325000D01*
G75*
G02*
X105000000Y-97400000I-75000J0D01*
G01*
X104300000Y-97400000D01*
G75*
G02*
X104225000Y-97325000I0J75000D01*
G01*
X104225000Y-97175000D01*
G75*
G02*
X104300000Y-97100000I75000J0D01*
G01*
X105000000Y-97100000D01*
G75*
G02*
X105075000Y-97175000I0J-75000D01*
G01*
G37*
%TD.AperFunction*%
%TO.P,U5,2*%
%TO.N,N/C*%
%TA.AperFunction,SMDPad,CuDef*%
G36*
G01*
X105075000Y-96675000D02*
X105075000Y-96825000D01*
G75*
G02*
X105000000Y-96900000I-75000J0D01*
G01*
X104300000Y-96900000D01*
G75*
G02*
X104225000Y-96825000I0J75000D01*
G01*
X104225000Y-96675000D01*
G75*
G02*
X104300000Y-96600000I75000J0D01*
G01*
X105000000Y-96600000D01*
G75*
G02*
X105075000Y-96675000I0J-75000D01*
G01*
G37*
%TD.AperFunction*%
%TO.P,U5,3*%
%TA.AperFunction,SMDPad,CuDef*%
G36*
G01*
X105075000Y-96175000D02*
X105075000Y-96325000D01*
G75*
G02*
X105000000Y-96400000I-75000J0D01*
G01*
X104300000Y-96400000D01*
G75*
G02*
X104225000Y-96325000I0J75000D01*
G01*
X104225000Y-96175000D01*
G75*
G02*
X104300000Y-96100000I75000J0D01*
G01*
X105000000Y-96100000D01*
G75*
G02*
X105075000Y-96175000I0J-75000D01*
G01*
G37*
%TD.AperFunction*%
%TO.P,U5,4*%
%TA.AperFunction,SMDPad,CuDef*%
G36*
G01*
X105075000Y-95675000D02*
X105075000Y-95825000D01*
G75*
G02*
X105000000Y-95900000I-75000J0D01*
G01*
X104300000Y-95900000D01*
G75*
G02*
X104225000Y-95825000I0J75000D01*
G01*
X104225000Y-95675000D01*
G75*
G02*
X104300000Y-95600000I75000J0D01*
G01*
X105000000Y-95600000D01*
G75*
G02*
X105075000Y-95675000I0J-75000D01*
G01*
G37*
%TD.AperFunction*%
%TO.P,U5,5*%
%TA.AperFunction,SMDPad,CuDef*%
G36*
G01*
X105075000Y-95175000D02*
X105075000Y-95325000D01*
G75*
G02*
X105000000Y-95400000I-75000J0D01*
G01*
X104300000Y-95400000D01*
G75*
G02*
X104225000Y-95325000I0J75000D01*
G01*
X104225000Y-95175000D01*
G75*
G02*
X104300000Y-95100000I75000J0D01*
G01*
X105000000Y-95100000D01*
G75*
G02*
X105075000Y-95175000I0J-75000D01*
G01*
G37*
%TD.AperFunction*%
%TO.P,U5,6*%
%TO.N,Net-(U5-Pad6)*%
%TA.AperFunction,SMDPad,CuDef*%
G36*
G01*
X105075000Y-94675000D02*
X105075000Y-94825000D01*
G75*
G02*
X105000000Y-94900000I-75000J0D01*
G01*
X104300000Y-94900000D01*
G75*
G02*
X104225000Y-94825000I0J75000D01*
G01*
X104225000Y-94675000D01*
G75*
G02*
X104300000Y-94600000I75000J0D01*
G01*
X105000000Y-94600000D01*
G75*
G02*
X105075000Y-94675000I0J-75000D01*
G01*
G37*
%TD.AperFunction*%
%TO.P,U5,7*%
%TO.N,Net-(U5-Pad7)*%
%TA.AperFunction,SMDPad,CuDef*%
G36*
G01*
X103875000Y-93625000D02*
X104025000Y-93625000D01*
G75*
G02*
X104100000Y-93700000I0J-75000D01*
G01*
X104100000Y-94400000D01*
G75*
G02*
X104025000Y-94475000I-75000J0D01*
G01*
X103875000Y-94475000D01*
G75*
G02*
X103800000Y-94400000I0J75000D01*
G01*
X103800000Y-93700000D01*
G75*
G02*
X103875000Y-93625000I75000J0D01*
G01*
G37*
%TD.AperFunction*%
%TO.P,U5,8*%
%TO.N,+3V3*%
%TA.AperFunction,SMDPad,CuDef*%
G36*
G01*
X103375000Y-93625000D02*
X103525000Y-93625000D01*
G75*
G02*
X103600000Y-93700000I0J-75000D01*
G01*
X103600000Y-94400000D01*
G75*
G02*
X103525000Y-94475000I-75000J0D01*
G01*
X103375000Y-94475000D01*
G75*
G02*
X103300000Y-94400000I0J75000D01*
G01*
X103300000Y-93700000D01*
G75*
G02*
X103375000Y-93625000I75000J0D01*
G01*
G37*
%TD.AperFunction*%
%TO.P,U5,9*%
%TO.N,GND*%
%TA.AperFunction,SMDPad,CuDef*%
G36*
G01*
X102875000Y-93625000D02*
X103025000Y-93625000D01*
G75*
G02*
X103100000Y-93700000I0J-75000D01*
G01*
X103100000Y-94400000D01*
G75*
G02*
X103025000Y-94475000I-75000J0D01*
G01*
X102875000Y-94475000D01*
G75*
G02*
X102800000Y-94400000I0J75000D01*
G01*
X102800000Y-93700000D01*
G75*
G02*
X102875000Y-93625000I75000J0D01*
G01*
G37*
%TD.AperFunction*%
%TO.P,U5,10*%
%TO.N,Net-(C14-Pad1)*%
%TA.AperFunction,SMDPad,CuDef*%
G36*
G01*
X102375000Y-93625000D02*
X102525000Y-93625000D01*
G75*
G02*
X102600000Y-93700000I0J-75000D01*
G01*
X102600000Y-94400000D01*
G75*
G02*
X102525000Y-94475000I-75000J0D01*
G01*
X102375000Y-94475000D01*
G75*
G02*
X102300000Y-94400000I0J75000D01*
G01*
X102300000Y-93700000D01*
G75*
G02*
X102375000Y-93625000I75000J0D01*
G01*
G37*
%TD.AperFunction*%
%TO.P,U5,11*%
%TO.N,GND*%
%TA.AperFunction,SMDPad,CuDef*%
G36*
G01*
X101875000Y-93625000D02*
X102025000Y-93625000D01*
G75*
G02*
X102100000Y-93700000I0J-75000D01*
G01*
X102100000Y-94400000D01*
G75*
G02*
X102025000Y-94475000I-75000J0D01*
G01*
X101875000Y-94475000D01*
G75*
G02*
X101800000Y-94400000I0J75000D01*
G01*
X101800000Y-93700000D01*
G75*
G02*
X101875000Y-93625000I75000J0D01*
G01*
G37*
%TD.AperFunction*%
%TO.P,U5,12*%
%TO.N,Net-(U5-Pad12)*%
%TA.AperFunction,SMDPad,CuDef*%
G36*
G01*
X101375000Y-93625000D02*
X101525000Y-93625000D01*
G75*
G02*
X101600000Y-93700000I0J-75000D01*
G01*
X101600000Y-94400000D01*
G75*
G02*
X101525000Y-94475000I-75000J0D01*
G01*
X101375000Y-94475000D01*
G75*
G02*
X101300000Y-94400000I0J75000D01*
G01*
X101300000Y-93700000D01*
G75*
G02*
X101375000Y-93625000I75000J0D01*
G01*
G37*
%TD.AperFunction*%
%TO.P,U5,13*%
%TO.N,+3V3*%
%TA.AperFunction,SMDPad,CuDef*%
G36*
G01*
X101175000Y-94675000D02*
X101175000Y-94825000D01*
G75*
G02*
X101100000Y-94900000I-75000J0D01*
G01*
X100400000Y-94900000D01*
G75*
G02*
X100325000Y-94825000I0J75000D01*
G01*
X100325000Y-94675000D01*
G75*
G02*
X100400000Y-94600000I75000J0D01*
G01*
X101100000Y-94600000D01*
G75*
G02*
X101175000Y-94675000I0J-75000D01*
G01*
G37*
%TD.AperFunction*%
%TO.P,U5,14*%
%TO.N,N/C*%
%TA.AperFunction,SMDPad,CuDef*%
G36*
G01*
X101175000Y-95175000D02*
X101175000Y-95325000D01*
G75*
G02*
X101100000Y-95400000I-75000J0D01*
G01*
X100400000Y-95400000D01*
G75*
G02*
X100325000Y-95325000I0J75000D01*
G01*
X100325000Y-95175000D01*
G75*
G02*
X100400000Y-95100000I75000J0D01*
G01*
X101100000Y-95100000D01*
G75*
G02*
X101175000Y-95175000I0J-75000D01*
G01*
G37*
%TD.AperFunction*%
%TO.P,U5,15*%
%TA.AperFunction,SMDPad,CuDef*%
G36*
G01*
X101175000Y-95675000D02*
X101175000Y-95825000D01*
G75*
G02*
X101100000Y-95900000I-75000J0D01*
G01*
X100400000Y-95900000D01*
G75*
G02*
X100325000Y-95825000I0J75000D01*
G01*
X100325000Y-95675000D01*
G75*
G02*
X100400000Y-95600000I75000J0D01*
G01*
X101100000Y-95600000D01*
G75*
G02*
X101175000Y-95675000I0J-75000D01*
G01*
G37*
%TD.AperFunction*%
%TO.P,U5,16*%
%TA.AperFunction,SMDPad,CuDef*%
G36*
G01*
X101175000Y-96175000D02*
X101175000Y-96325000D01*
G75*
G02*
X101100000Y-96400000I-75000J0D01*
G01*
X100400000Y-96400000D01*
G75*
G02*
X100325000Y-96325000I0J75000D01*
G01*
X100325000Y-96175000D01*
G75*
G02*
X100400000Y-96100000I75000J0D01*
G01*
X101100000Y-96100000D01*
G75*
G02*
X101175000Y-96175000I0J-75000D01*
G01*
G37*
%TD.AperFunction*%
%TO.P,U5,17*%
%TA.AperFunction,SMDPad,CuDef*%
G36*
G01*
X101175000Y-96675000D02*
X101175000Y-96825000D01*
G75*
G02*
X101100000Y-96900000I-75000J0D01*
G01*
X100400000Y-96900000D01*
G75*
G02*
X100325000Y-96825000I0J75000D01*
G01*
X100325000Y-96675000D01*
G75*
G02*
X100400000Y-96600000I75000J0D01*
G01*
X101100000Y-96600000D01*
G75*
G02*
X101175000Y-96675000I0J-75000D01*
G01*
G37*
%TD.AperFunction*%
%TO.P,U5,18*%
%TO.N,GND*%
%TA.AperFunction,SMDPad,CuDef*%
G36*
G01*
X101175000Y-97175000D02*
X101175000Y-97325000D01*
G75*
G02*
X101100000Y-97400000I-75000J0D01*
G01*
X100400000Y-97400000D01*
G75*
G02*
X100325000Y-97325000I0J75000D01*
G01*
X100325000Y-97175000D01*
G75*
G02*
X100400000Y-97100000I75000J0D01*
G01*
X101100000Y-97100000D01*
G75*
G02*
X101175000Y-97175000I0J-75000D01*
G01*
G37*
%TD.AperFunction*%
%TO.P,U5,19*%
%TO.N,N/C*%
%TA.AperFunction,SMDPad,CuDef*%
G36*
G01*
X101375000Y-97525000D02*
X101525000Y-97525000D01*
G75*
G02*
X101600000Y-97600000I0J-75000D01*
G01*
X101600000Y-98300000D01*
G75*
G02*
X101525000Y-98375000I-75000J0D01*
G01*
X101375000Y-98375000D01*
G75*
G02*
X101300000Y-98300000I0J75000D01*
G01*
X101300000Y-97600000D01*
G75*
G02*
X101375000Y-97525000I75000J0D01*
G01*
G37*
%TD.AperFunction*%
%TO.P,U5,20*%
%TO.N,Net-(C15-Pad1)*%
%TA.AperFunction,SMDPad,CuDef*%
G36*
G01*
X101875000Y-97525000D02*
X102025000Y-97525000D01*
G75*
G02*
X102100000Y-97600000I0J-75000D01*
G01*
X102100000Y-98300000D01*
G75*
G02*
X102025000Y-98375000I-75000J0D01*
G01*
X101875000Y-98375000D01*
G75*
G02*
X101800000Y-98300000I0J75000D01*
G01*
X101800000Y-97600000D01*
G75*
G02*
X101875000Y-97525000I75000J0D01*
G01*
G37*
%TD.AperFunction*%
%TO.P,U5,21*%
%TO.N,N/C*%
%TA.AperFunction,SMDPad,CuDef*%
G36*
G01*
X102375000Y-97525000D02*
X102525000Y-97525000D01*
G75*
G02*
X102600000Y-97600000I0J-75000D01*
G01*
X102600000Y-98300000D01*
G75*
G02*
X102525000Y-98375000I-75000J0D01*
G01*
X102375000Y-98375000D01*
G75*
G02*
X102300000Y-98300000I0J75000D01*
G01*
X102300000Y-97600000D01*
G75*
G02*
X102375000Y-97525000I75000J0D01*
G01*
G37*
%TD.AperFunction*%
%TO.P,U5,22*%
%TA.AperFunction,SMDPad,CuDef*%
G36*
G01*
X102875000Y-97525000D02*
X103025000Y-97525000D01*
G75*
G02*
X103100000Y-97600000I0J-75000D01*
G01*
X103100000Y-98300000D01*
G75*
G02*
X103025000Y-98375000I-75000J0D01*
G01*
X102875000Y-98375000D01*
G75*
G02*
X102800000Y-98300000I0J75000D01*
G01*
X102800000Y-97600000D01*
G75*
G02*
X102875000Y-97525000I75000J0D01*
G01*
G37*
%TD.AperFunction*%
%TO.P,U5,23*%
%TO.N,I2C1_SCL*%
%TA.AperFunction,SMDPad,CuDef*%
G36*
G01*
X103375000Y-97525000D02*
X103525000Y-97525000D01*
G75*
G02*
X103600000Y-97600000I0J-75000D01*
G01*
X103600000Y-98300000D01*
G75*
G02*
X103525000Y-98375000I-75000J0D01*
G01*
X103375000Y-98375000D01*
G75*
G02*
X103300000Y-98300000I0J75000D01*
G01*
X103300000Y-97600000D01*
G75*
G02*
X103375000Y-97525000I75000J0D01*
G01*
G37*
%TD.AperFunction*%
%TO.P,U5,24*%
%TO.N,I2C1_SDA*%
%TA.AperFunction,SMDPad,CuDef*%
G36*
G01*
X103875000Y-97525000D02*
X104025000Y-97525000D01*
G75*
G02*
X104100000Y-97600000I0J-75000D01*
G01*
X104100000Y-98300000D01*
G75*
G02*
X104025000Y-98375000I-75000J0D01*
G01*
X103875000Y-98375000D01*
G75*
G02*
X103800000Y-98300000I0J75000D01*
G01*
X103800000Y-97600000D01*
G75*
G02*
X103875000Y-97525000I75000J0D01*
G01*
G37*
%TD.AperFunction*%
%TD*%
%TO.P,U6,1*%
%TO.N,+3V3*%
%TA.AperFunction,SMDPad,CuDef*%
G36*
G01*
X99500000Y-107525000D02*
X99500000Y-107375000D01*
G75*
G02*
X99575000Y-107300000I75000J0D01*
G01*
X100900000Y-107300000D01*
G75*
G02*
X100975000Y-107375000I0J-75000D01*
G01*
X100975000Y-107525000D01*
G75*
G02*
X100900000Y-107600000I-75000J0D01*
G01*
X99575000Y-107600000D01*
G75*
G02*
X99500000Y-107525000I0J75000D01*
G01*
G37*
%TD.AperFunction*%
%TO.P,U6,2*%
%TO.N,Net-(U6-Pad2)*%
%TA.AperFunction,SMDPad,CuDef*%
G36*
G01*
X99500000Y-108025000D02*
X99500000Y-107875000D01*
G75*
G02*
X99575000Y-107800000I75000J0D01*
G01*
X100900000Y-107800000D01*
G75*
G02*
X100975000Y-107875000I0J-75000D01*
G01*
X100975000Y-108025000D01*
G75*
G02*
X100900000Y-108100000I-75000J0D01*
G01*
X99575000Y-108100000D01*
G75*
G02*
X99500000Y-108025000I0J75000D01*
G01*
G37*
%TD.AperFunction*%
%TO.P,U6,3*%
%TO.N,Net-(U6-Pad3)*%
%TA.AperFunction,SMDPad,CuDef*%
G36*
G01*
X99500000Y-108525000D02*
X99500000Y-108375000D01*
G75*
G02*
X99575000Y-108300000I75000J0D01*
G01*
X100900000Y-108300000D01*
G75*
G02*
X100975000Y-108375000I0J-75000D01*
G01*
X100975000Y-108525000D01*
G75*
G02*
X100900000Y-108600000I-75000J0D01*
G01*
X99575000Y-108600000D01*
G75*
G02*
X99500000Y-108525000I0J75000D01*
G01*
G37*
%TD.AperFunction*%
%TO.P,U6,4*%
%TO.N,Net-(U6-Pad4)*%
%TA.AperFunction,SMDPad,CuDef*%
G36*
G01*
X99500000Y-109025000D02*
X99500000Y-108875000D01*
G75*
G02*
X99575000Y-108800000I75000J0D01*
G01*
X100900000Y-108800000D01*
G75*
G02*
X100975000Y-108875000I0J-75000D01*
G01*
X100975000Y-109025000D01*
G75*
G02*
X100900000Y-109100000I-75000J0D01*
G01*
X99575000Y-109100000D01*
G75*
G02*
X99500000Y-109025000I0J75000D01*
G01*
G37*
%TD.AperFunction*%
%TO.P,U6,5*%
%TO.N,Net-(C16-Pad1)*%
%TA.AperFunction,SMDPad,CuDef*%
G36*
G01*
X99500000Y-109525000D02*
X99500000Y-109375000D01*
G75*
G02*
X99575000Y-109300000I75000J0D01*
G01*
X100900000Y-109300000D01*
G75*
G02*
X100975000Y-109375000I0J-75000D01*
G01*
X100975000Y-109525000D01*
G75*
G02*
X100900000Y-109600000I-75000J0D01*
G01*
X99575000Y-109600000D01*
G75*
G02*
X99500000Y-109525000I0J75000D01*
G01*
G37*
%TD.AperFunction*%
%TO.P,U6,6*%
%TO.N,Net-(C17-Pad1)*%
%TA.AperFunction,SMDPad,CuDef*%
G36*
G01*
X99500000Y-110025000D02*
X99500000Y-109875000D01*
G75*
G02*
X99575000Y-109800000I75000J0D01*
G01*
X100900000Y-109800000D01*
G75*
G02*
X100975000Y-109875000I0J-75000D01*
G01*
X100975000Y-110025000D01*
G75*
G02*
X100900000Y-110100000I-75000J0D01*
G01*
X99575000Y-110100000D01*
G75*
G02*
X99500000Y-110025000I0J75000D01*
G01*
G37*
%TD.AperFunction*%
%TO.P,U6,7*%
%TO.N,NRST*%
%TA.AperFunction,SMDPad,CuDef*%
G36*
G01*
X99500000Y-110525000D02*
X99500000Y-110375000D01*
G75*
G02*
X99575000Y-110300000I75000J0D01*
G01*
X100900000Y-110300000D01*
G75*
G02*
X100975000Y-110375000I0J-75000D01*
G01*
X100975000Y-110525000D01*
G75*
G02*
X100900000Y-110600000I-75000J0D01*
G01*
X99575000Y-110600000D01*
G75*
G02*
X99500000Y-110525000I0J75000D01*
G01*
G37*
%TD.AperFunction*%
%TO.P,U6,8*%
%TO.N,GND*%
%TA.AperFunction,SMDPad,CuDef*%
G36*
G01*
X99500000Y-111025000D02*
X99500000Y-110875000D01*
G75*
G02*
X99575000Y-110800000I75000J0D01*
G01*
X100900000Y-110800000D01*
G75*
G02*
X100975000Y-110875000I0J-75000D01*
G01*
X100975000Y-111025000D01*
G75*
G02*
X100900000Y-111100000I-75000J0D01*
G01*
X99575000Y-111100000D01*
G75*
G02*
X99500000Y-111025000I0J75000D01*
G01*
G37*
%TD.AperFunction*%
%TO.P,U6,9*%
%TO.N,+3.3VA*%
%TA.AperFunction,SMDPad,CuDef*%
G36*
G01*
X99500000Y-111525000D02*
X99500000Y-111375000D01*
G75*
G02*
X99575000Y-111300000I75000J0D01*
G01*
X100900000Y-111300000D01*
G75*
G02*
X100975000Y-111375000I0J-75000D01*
G01*
X100975000Y-111525000D01*
G75*
G02*
X100900000Y-111600000I-75000J0D01*
G01*
X99575000Y-111600000D01*
G75*
G02*
X99500000Y-111525000I0J75000D01*
G01*
G37*
%TD.AperFunction*%
%TO.P,U6,10*%
%TO.N,LED_STATUS*%
%TA.AperFunction,SMDPad,CuDef*%
G36*
G01*
X99500000Y-112025000D02*
X99500000Y-111875000D01*
G75*
G02*
X99575000Y-111800000I75000J0D01*
G01*
X100900000Y-111800000D01*
G75*
G02*
X100975000Y-111875000I0J-75000D01*
G01*
X100975000Y-112025000D01*
G75*
G02*
X100900000Y-112100000I-75000J0D01*
G01*
X99575000Y-112100000D01*
G75*
G02*
X99500000Y-112025000I0J75000D01*
G01*
G37*
%TD.AperFunction*%
%TO.P,U6,11*%
%TO.N,Net-(U6-Pad11)*%
%TA.AperFunction,SMDPad,CuDef*%
G36*
G01*
X99500000Y-112525000D02*
X99500000Y-112375000D01*
G75*
G02*
X99575000Y-112300000I75000J0D01*
G01*
X100900000Y-112300000D01*
G75*
G02*
X100975000Y-112375000I0J-75000D01*
G01*
X100975000Y-112525000D01*
G75*
G02*
X100900000Y-112600000I-75000J0D01*
G01*
X99575000Y-112600000D01*
G75*
G02*
X99500000Y-112525000I0J75000D01*
G01*
G37*
%TD.AperFunction*%
%TO.P,U6,12*%
%TO.N,NRESET_LORA*%
%TA.AperFunction,SMDPad,CuDef*%
G36*
G01*
X99500000Y-113025000D02*
X99500000Y-112875000D01*
G75*
G02*
X99575000Y-112800000I75000J0D01*
G01*
X100900000Y-112800000D01*
G75*
G02*
X100975000Y-112875000I0J-75000D01*
G01*
X100975000Y-113025000D01*
G75*
G02*
X100900000Y-113100000I-75000J0D01*
G01*
X99575000Y-113100000D01*
G75*
G02*
X99500000Y-113025000I0J75000D01*
G01*
G37*
%TD.AperFunction*%
%TO.P,U6,13*%
%TO.N,DIO0_LORA*%
%TA.AperFunction,SMDPad,CuDef*%
G36*
G01*
X101500000Y-115025000D02*
X101500000Y-113700000D01*
G75*
G02*
X101575000Y-113625000I75000J0D01*
G01*
X101725000Y-113625000D01*
G75*
G02*
X101800000Y-113700000I0J-75000D01*
G01*
X101800000Y-115025000D01*
G75*
G02*
X101725000Y-115100000I-75000J0D01*
G01*
X101575000Y-115100000D01*
G75*
G02*
X101500000Y-115025000I0J75000D01*
G01*
G37*
%TD.AperFunction*%
%TO.P,U6,14*%
%TO.N,LORA_NSS_SPI*%
%TA.AperFunction,SMDPad,CuDef*%
G36*
G01*
X102000000Y-115025000D02*
X102000000Y-113700000D01*
G75*
G02*
X102075000Y-113625000I75000J0D01*
G01*
X102225000Y-113625000D01*
G75*
G02*
X102300000Y-113700000I0J-75000D01*
G01*
X102300000Y-115025000D01*
G75*
G02*
X102225000Y-115100000I-75000J0D01*
G01*
X102075000Y-115100000D01*
G75*
G02*
X102000000Y-115025000I0J75000D01*
G01*
G37*
%TD.AperFunction*%
%TO.P,U6,15*%
%TO.N,SP1_SCK*%
%TA.AperFunction,SMDPad,CuDef*%
G36*
G01*
X102500000Y-115025000D02*
X102500000Y-113700000D01*
G75*
G02*
X102575000Y-113625000I75000J0D01*
G01*
X102725000Y-113625000D01*
G75*
G02*
X102800000Y-113700000I0J-75000D01*
G01*
X102800000Y-115025000D01*
G75*
G02*
X102725000Y-115100000I-75000J0D01*
G01*
X102575000Y-115100000D01*
G75*
G02*
X102500000Y-115025000I0J75000D01*
G01*
G37*
%TD.AperFunction*%
%TO.P,U6,16*%
%TO.N,SP1_MISO*%
%TA.AperFunction,SMDPad,CuDef*%
G36*
G01*
X103000000Y-115025000D02*
X103000000Y-113700000D01*
G75*
G02*
X103075000Y-113625000I75000J0D01*
G01*
X103225000Y-113625000D01*
G75*
G02*
X103300000Y-113700000I0J-75000D01*
G01*
X103300000Y-115025000D01*
G75*
G02*
X103225000Y-115100000I-75000J0D01*
G01*
X103075000Y-115100000D01*
G75*
G02*
X103000000Y-115025000I0J75000D01*
G01*
G37*
%TD.AperFunction*%
%TO.P,U6,17*%
%TO.N,SPI1_MOSI*%
%TA.AperFunction,SMDPad,CuDef*%
G36*
G01*
X103500000Y-115025000D02*
X103500000Y-113700000D01*
G75*
G02*
X103575000Y-113625000I75000J0D01*
G01*
X103725000Y-113625000D01*
G75*
G02*
X103800000Y-113700000I0J-75000D01*
G01*
X103800000Y-115025000D01*
G75*
G02*
X103725000Y-115100000I-75000J0D01*
G01*
X103575000Y-115100000D01*
G75*
G02*
X103500000Y-115025000I0J75000D01*
G01*
G37*
%TD.AperFunction*%
%TO.P,U6,18*%
%TO.N,Net-(U6-Pad18)*%
%TA.AperFunction,SMDPad,CuDef*%
G36*
G01*
X104000000Y-115025000D02*
X104000000Y-113700000D01*
G75*
G02*
X104075000Y-113625000I75000J0D01*
G01*
X104225000Y-113625000D01*
G75*
G02*
X104300000Y-113700000I0J-75000D01*
G01*
X104300000Y-115025000D01*
G75*
G02*
X104225000Y-115100000I-75000J0D01*
G01*
X104075000Y-115100000D01*
G75*
G02*
X104000000Y-115025000I0J75000D01*
G01*
G37*
%TD.AperFunction*%
%TO.P,U6,19*%
%TO.N,Net-(U6-Pad19)*%
%TA.AperFunction,SMDPad,CuDef*%
G36*
G01*
X104500000Y-115025000D02*
X104500000Y-113700000D01*
G75*
G02*
X104575000Y-113625000I75000J0D01*
G01*
X104725000Y-113625000D01*
G75*
G02*
X104800000Y-113700000I0J-75000D01*
G01*
X104800000Y-115025000D01*
G75*
G02*
X104725000Y-115100000I-75000J0D01*
G01*
X104575000Y-115100000D01*
G75*
G02*
X104500000Y-115025000I0J75000D01*
G01*
G37*
%TD.AperFunction*%
%TO.P,U6,20*%
%TO.N,Net-(U6-Pad20)*%
%TA.AperFunction,SMDPad,CuDef*%
G36*
G01*
X105000000Y-115025000D02*
X105000000Y-113700000D01*
G75*
G02*
X105075000Y-113625000I75000J0D01*
G01*
X105225000Y-113625000D01*
G75*
G02*
X105300000Y-113700000I0J-75000D01*
G01*
X105300000Y-115025000D01*
G75*
G02*
X105225000Y-115100000I-75000J0D01*
G01*
X105075000Y-115100000D01*
G75*
G02*
X105000000Y-115025000I0J75000D01*
G01*
G37*
%TD.AperFunction*%
%TO.P,U6,21*%
%TO.N,I2C2_SCL*%
%TA.AperFunction,SMDPad,CuDef*%
G36*
G01*
X105500000Y-115025000D02*
X105500000Y-113700000D01*
G75*
G02*
X105575000Y-113625000I75000J0D01*
G01*
X105725000Y-113625000D01*
G75*
G02*
X105800000Y-113700000I0J-75000D01*
G01*
X105800000Y-115025000D01*
G75*
G02*
X105725000Y-115100000I-75000J0D01*
G01*
X105575000Y-115100000D01*
G75*
G02*
X105500000Y-115025000I0J75000D01*
G01*
G37*
%TD.AperFunction*%
%TO.P,U6,22*%
%TO.N,I2C2_SDA*%
%TA.AperFunction,SMDPad,CuDef*%
G36*
G01*
X106000000Y-115025000D02*
X106000000Y-113700000D01*
G75*
G02*
X106075000Y-113625000I75000J0D01*
G01*
X106225000Y-113625000D01*
G75*
G02*
X106300000Y-113700000I0J-75000D01*
G01*
X106300000Y-115025000D01*
G75*
G02*
X106225000Y-115100000I-75000J0D01*
G01*
X106075000Y-115100000D01*
G75*
G02*
X106000000Y-115025000I0J75000D01*
G01*
G37*
%TD.AperFunction*%
%TO.P,U6,23*%
%TO.N,GND*%
%TA.AperFunction,SMDPad,CuDef*%
G36*
G01*
X106500000Y-115025000D02*
X106500000Y-113700000D01*
G75*
G02*
X106575000Y-113625000I75000J0D01*
G01*
X106725000Y-113625000D01*
G75*
G02*
X106800000Y-113700000I0J-75000D01*
G01*
X106800000Y-115025000D01*
G75*
G02*
X106725000Y-115100000I-75000J0D01*
G01*
X106575000Y-115100000D01*
G75*
G02*
X106500000Y-115025000I0J75000D01*
G01*
G37*
%TD.AperFunction*%
%TO.P,U6,24*%
%TO.N,+3V3*%
%TA.AperFunction,SMDPad,CuDef*%
G36*
G01*
X107000000Y-115025000D02*
X107000000Y-113700000D01*
G75*
G02*
X107075000Y-113625000I75000J0D01*
G01*
X107225000Y-113625000D01*
G75*
G02*
X107300000Y-113700000I0J-75000D01*
G01*
X107300000Y-115025000D01*
G75*
G02*
X107225000Y-115100000I-75000J0D01*
G01*
X107075000Y-115100000D01*
G75*
G02*
X107000000Y-115025000I0J75000D01*
G01*
G37*
%TD.AperFunction*%
%TO.P,U6,25*%
%TO.N,Net-(U6-Pad25)*%
%TA.AperFunction,SMDPad,CuDef*%
G36*
G01*
X107825000Y-113025000D02*
X107825000Y-112875000D01*
G75*
G02*
X107900000Y-112800000I75000J0D01*
G01*
X109225000Y-112800000D01*
G75*
G02*
X109300000Y-112875000I0J-75000D01*
G01*
X109300000Y-113025000D01*
G75*
G02*
X109225000Y-113100000I-75000J0D01*
G01*
X107900000Y-113100000D01*
G75*
G02*
X107825000Y-113025000I0J75000D01*
G01*
G37*
%TD.AperFunction*%
%TO.P,U6,26*%
%TO.N,Net-(U6-Pad26)*%
%TA.AperFunction,SMDPad,CuDef*%
G36*
G01*
X107825000Y-112525000D02*
X107825000Y-112375000D01*
G75*
G02*
X107900000Y-112300000I75000J0D01*
G01*
X109225000Y-112300000D01*
G75*
G02*
X109300000Y-112375000I0J-75000D01*
G01*
X109300000Y-112525000D01*
G75*
G02*
X109225000Y-112600000I-75000J0D01*
G01*
X107900000Y-112600000D01*
G75*
G02*
X107825000Y-112525000I0J75000D01*
G01*
G37*
%TD.AperFunction*%
%TO.P,U6,27*%
%TO.N,Net-(U6-Pad27)*%
%TA.AperFunction,SMDPad,CuDef*%
G36*
G01*
X107825000Y-112025000D02*
X107825000Y-111875000D01*
G75*
G02*
X107900000Y-111800000I75000J0D01*
G01*
X109225000Y-111800000D01*
G75*
G02*
X109300000Y-111875000I0J-75000D01*
G01*
X109300000Y-112025000D01*
G75*
G02*
X109225000Y-112100000I-75000J0D01*
G01*
X107900000Y-112100000D01*
G75*
G02*
X107825000Y-112025000I0J75000D01*
G01*
G37*
%TD.AperFunction*%
%TO.P,U6,28*%
%TO.N,Net-(U6-Pad28)*%
%TA.AperFunction,SMDPad,CuDef*%
G36*
G01*
X107825000Y-111525000D02*
X107825000Y-111375000D01*
G75*
G02*
X107900000Y-111300000I75000J0D01*
G01*
X109225000Y-111300000D01*
G75*
G02*
X109300000Y-111375000I0J-75000D01*
G01*
X109300000Y-111525000D01*
G75*
G02*
X109225000Y-111600000I-75000J0D01*
G01*
X107900000Y-111600000D01*
G75*
G02*
X107825000Y-111525000I0J75000D01*
G01*
G37*
%TD.AperFunction*%
%TO.P,U6,29*%
%TO.N,Net-(U6-Pad29)*%
%TA.AperFunction,SMDPad,CuDef*%
G36*
G01*
X107825000Y-111025000D02*
X107825000Y-110875000D01*
G75*
G02*
X107900000Y-110800000I75000J0D01*
G01*
X109225000Y-110800000D01*
G75*
G02*
X109300000Y-110875000I0J-75000D01*
G01*
X109300000Y-111025000D01*
G75*
G02*
X109225000Y-111100000I-75000J0D01*
G01*
X107900000Y-111100000D01*
G75*
G02*
X107825000Y-111025000I0J75000D01*
G01*
G37*
%TD.AperFunction*%
%TO.P,U6,30*%
%TO.N,USART1_TX*%
%TA.AperFunction,SMDPad,CuDef*%
G36*
G01*
X107825000Y-110525000D02*
X107825000Y-110375000D01*
G75*
G02*
X107900000Y-110300000I75000J0D01*
G01*
X109225000Y-110300000D01*
G75*
G02*
X109300000Y-110375000I0J-75000D01*
G01*
X109300000Y-110525000D01*
G75*
G02*
X109225000Y-110600000I-75000J0D01*
G01*
X107900000Y-110600000D01*
G75*
G02*
X107825000Y-110525000I0J75000D01*
G01*
G37*
%TD.AperFunction*%
%TO.P,U6,31*%
%TO.N,USART1_RX*%
%TA.AperFunction,SMDPad,CuDef*%
G36*
G01*
X107825000Y-110025000D02*
X107825000Y-109875000D01*
G75*
G02*
X107900000Y-109800000I75000J0D01*
G01*
X109225000Y-109800000D01*
G75*
G02*
X109300000Y-109875000I0J-75000D01*
G01*
X109300000Y-110025000D01*
G75*
G02*
X109225000Y-110100000I-75000J0D01*
G01*
X107900000Y-110100000D01*
G75*
G02*
X107825000Y-110025000I0J75000D01*
G01*
G37*
%TD.AperFunction*%
%TO.P,U6,32*%
%TO.N,Net-(U6-Pad32)*%
%TA.AperFunction,SMDPad,CuDef*%
G36*
G01*
X107825000Y-109525000D02*
X107825000Y-109375000D01*
G75*
G02*
X107900000Y-109300000I75000J0D01*
G01*
X109225000Y-109300000D01*
G75*
G02*
X109300000Y-109375000I0J-75000D01*
G01*
X109300000Y-109525000D01*
G75*
G02*
X109225000Y-109600000I-75000J0D01*
G01*
X107900000Y-109600000D01*
G75*
G02*
X107825000Y-109525000I0J75000D01*
G01*
G37*
%TD.AperFunction*%
%TO.P,U6,33*%
%TO.N,Net-(U6-Pad33)*%
%TA.AperFunction,SMDPad,CuDef*%
G36*
G01*
X107825000Y-109025000D02*
X107825000Y-108875000D01*
G75*
G02*
X107900000Y-108800000I75000J0D01*
G01*
X109225000Y-108800000D01*
G75*
G02*
X109300000Y-108875000I0J-75000D01*
G01*
X109300000Y-109025000D01*
G75*
G02*
X109225000Y-109100000I-75000J0D01*
G01*
X107900000Y-109100000D01*
G75*
G02*
X107825000Y-109025000I0J75000D01*
G01*
G37*
%TD.AperFunction*%
%TO.P,U6,34*%
%TO.N,SWDIO*%
%TA.AperFunction,SMDPad,CuDef*%
G36*
G01*
X107825000Y-108525000D02*
X107825000Y-108375000D01*
G75*
G02*
X107900000Y-108300000I75000J0D01*
G01*
X109225000Y-108300000D01*
G75*
G02*
X109300000Y-108375000I0J-75000D01*
G01*
X109300000Y-108525000D01*
G75*
G02*
X109225000Y-108600000I-75000J0D01*
G01*
X107900000Y-108600000D01*
G75*
G02*
X107825000Y-108525000I0J75000D01*
G01*
G37*
%TD.AperFunction*%
%TO.P,U6,35*%
%TO.N,GND*%
%TA.AperFunction,SMDPad,CuDef*%
G36*
G01*
X107825000Y-108025000D02*
X107825000Y-107875000D01*
G75*
G02*
X107900000Y-107800000I75000J0D01*
G01*
X109225000Y-107800000D01*
G75*
G02*
X109300000Y-107875000I0J-75000D01*
G01*
X109300000Y-108025000D01*
G75*
G02*
X109225000Y-108100000I-75000J0D01*
G01*
X107900000Y-108100000D01*
G75*
G02*
X107825000Y-108025000I0J75000D01*
G01*
G37*
%TD.AperFunction*%
%TO.P,U6,36*%
%TO.N,+3V3*%
%TA.AperFunction,SMDPad,CuDef*%
G36*
G01*
X107825000Y-107525000D02*
X107825000Y-107375000D01*
G75*
G02*
X107900000Y-107300000I75000J0D01*
G01*
X109225000Y-107300000D01*
G75*
G02*
X109300000Y-107375000I0J-75000D01*
G01*
X109300000Y-107525000D01*
G75*
G02*
X109225000Y-107600000I-75000J0D01*
G01*
X107900000Y-107600000D01*
G75*
G02*
X107825000Y-107525000I0J75000D01*
G01*
G37*
%TD.AperFunction*%
%TO.P,U6,37*%
%TO.N,SWCLK*%
%TA.AperFunction,SMDPad,CuDef*%
G36*
G01*
X107000000Y-106700000D02*
X107000000Y-105375000D01*
G75*
G02*
X107075000Y-105300000I75000J0D01*
G01*
X107225000Y-105300000D01*
G75*
G02*
X107300000Y-105375000I0J-75000D01*
G01*
X107300000Y-106700000D01*
G75*
G02*
X107225000Y-106775000I-75000J0D01*
G01*
X107075000Y-106775000D01*
G75*
G02*
X107000000Y-106700000I0J75000D01*
G01*
G37*
%TD.AperFunction*%
%TO.P,U6,38*%
%TO.N,Net-(U6-Pad38)*%
%TA.AperFunction,SMDPad,CuDef*%
G36*
G01*
X106500000Y-106700000D02*
X106500000Y-105375000D01*
G75*
G02*
X106575000Y-105300000I75000J0D01*
G01*
X106725000Y-105300000D01*
G75*
G02*
X106800000Y-105375000I0J-75000D01*
G01*
X106800000Y-106700000D01*
G75*
G02*
X106725000Y-106775000I-75000J0D01*
G01*
X106575000Y-106775000D01*
G75*
G02*
X106500000Y-106700000I0J75000D01*
G01*
G37*
%TD.AperFunction*%
%TO.P,U6,39*%
%TO.N,SWO*%
%TA.AperFunction,SMDPad,CuDef*%
G36*
G01*
X106000000Y-106700000D02*
X106000000Y-105375000D01*
G75*
G02*
X106075000Y-105300000I75000J0D01*
G01*
X106225000Y-105300000D01*
G75*
G02*
X106300000Y-105375000I0J-75000D01*
G01*
X106300000Y-106700000D01*
G75*
G02*
X106225000Y-106775000I-75000J0D01*
G01*
X106075000Y-106775000D01*
G75*
G02*
X106000000Y-106700000I0J75000D01*
G01*
G37*
%TD.AperFunction*%
%TO.P,U6,40*%
%TO.N,Net-(U6-Pad40)*%
%TA.AperFunction,SMDPad,CuDef*%
G36*
G01*
X105500000Y-106700000D02*
X105500000Y-105375000D01*
G75*
G02*
X105575000Y-105300000I75000J0D01*
G01*
X105725000Y-105300000D01*
G75*
G02*
X105800000Y-105375000I0J-75000D01*
G01*
X105800000Y-106700000D01*
G75*
G02*
X105725000Y-106775000I-75000J0D01*
G01*
X105575000Y-106775000D01*
G75*
G02*
X105500000Y-106700000I0J75000D01*
G01*
G37*
%TD.AperFunction*%
%TO.P,U6,41*%
%TO.N,Net-(U6-Pad41)*%
%TA.AperFunction,SMDPad,CuDef*%
G36*
G01*
X105000000Y-106700000D02*
X105000000Y-105375000D01*
G75*
G02*
X105075000Y-105300000I75000J0D01*
G01*
X105225000Y-105300000D01*
G75*
G02*
X105300000Y-105375000I0J-75000D01*
G01*
X105300000Y-106700000D01*
G75*
G02*
X105225000Y-106775000I-75000J0D01*
G01*
X105075000Y-106775000D01*
G75*
G02*
X105000000Y-106700000I0J75000D01*
G01*
G37*
%TD.AperFunction*%
%TO.P,U6,42*%
%TO.N,Net-(U6-Pad42)*%
%TA.AperFunction,SMDPad,CuDef*%
G36*
G01*
X104500000Y-106700000D02*
X104500000Y-105375000D01*
G75*
G02*
X104575000Y-105300000I75000J0D01*
G01*
X104725000Y-105300000D01*
G75*
G02*
X104800000Y-105375000I0J-75000D01*
G01*
X104800000Y-106700000D01*
G75*
G02*
X104725000Y-106775000I-75000J0D01*
G01*
X104575000Y-106775000D01*
G75*
G02*
X104500000Y-106700000I0J75000D01*
G01*
G37*
%TD.AperFunction*%
%TO.P,U6,43*%
%TO.N,I2C1_SDA*%
%TA.AperFunction,SMDPad,CuDef*%
G36*
G01*
X104000000Y-106700000D02*
X104000000Y-105375000D01*
G75*
G02*
X104075000Y-105300000I75000J0D01*
G01*
X104225000Y-105300000D01*
G75*
G02*
X104300000Y-105375000I0J-75000D01*
G01*
X104300000Y-106700000D01*
G75*
G02*
X104225000Y-106775000I-75000J0D01*
G01*
X104075000Y-106775000D01*
G75*
G02*
X104000000Y-106700000I0J75000D01*
G01*
G37*
%TD.AperFunction*%
%TO.P,U6,44*%
%TO.N,BOOT0*%
%TA.AperFunction,SMDPad,CuDef*%
G36*
G01*
X103500000Y-106700000D02*
X103500000Y-105375000D01*
G75*
G02*
X103575000Y-105300000I75000J0D01*
G01*
X103725000Y-105300000D01*
G75*
G02*
X103800000Y-105375000I0J-75000D01*
G01*
X103800000Y-106700000D01*
G75*
G02*
X103725000Y-106775000I-75000J0D01*
G01*
X103575000Y-106775000D01*
G75*
G02*
X103500000Y-106700000I0J75000D01*
G01*
G37*
%TD.AperFunction*%
%TO.P,U6,45*%
%TO.N,I2C1_SCL*%
%TA.AperFunction,SMDPad,CuDef*%
G36*
G01*
X103000000Y-106700000D02*
X103000000Y-105375000D01*
G75*
G02*
X103075000Y-105300000I75000J0D01*
G01*
X103225000Y-105300000D01*
G75*
G02*
X103300000Y-105375000I0J-75000D01*
G01*
X103300000Y-106700000D01*
G75*
G02*
X103225000Y-106775000I-75000J0D01*
G01*
X103075000Y-106775000D01*
G75*
G02*
X103000000Y-106700000I0J75000D01*
G01*
G37*
%TD.AperFunction*%
%TO.P,U6,46*%
%TO.N,Net-(U6-Pad46)*%
%TA.AperFunction,SMDPad,CuDef*%
G36*
G01*
X102500000Y-106700000D02*
X102500000Y-105375000D01*
G75*
G02*
X102575000Y-105300000I75000J0D01*
G01*
X102725000Y-105300000D01*
G75*
G02*
X102800000Y-105375000I0J-75000D01*
G01*
X102800000Y-106700000D01*
G75*
G02*
X102725000Y-106775000I-75000J0D01*
G01*
X102575000Y-106775000D01*
G75*
G02*
X102500000Y-106700000I0J75000D01*
G01*
G37*
%TD.AperFunction*%
%TO.P,U6,47*%
%TO.N,GND*%
%TA.AperFunction,SMDPad,CuDef*%
G36*
G01*
X102000000Y-106700000D02*
X102000000Y-105375000D01*
G75*
G02*
X102075000Y-105300000I75000J0D01*
G01*
X102225000Y-105300000D01*
G75*
G02*
X102300000Y-105375000I0J-75000D01*
G01*
X102300000Y-106700000D01*
G75*
G02*
X102225000Y-106775000I-75000J0D01*
G01*
X102075000Y-106775000D01*
G75*
G02*
X102000000Y-106700000I0J75000D01*
G01*
G37*
%TD.AperFunction*%
%TO.P,U6,48*%
%TO.N,+3V3*%
%TA.AperFunction,SMDPad,CuDef*%
G36*
G01*
X101500000Y-106700000D02*
X101500000Y-105375000D01*
G75*
G02*
X101575000Y-105300000I75000J0D01*
G01*
X101725000Y-105300000D01*
G75*
G02*
X101800000Y-105375000I0J-75000D01*
G01*
X101800000Y-106700000D01*
G75*
G02*
X101725000Y-106775000I-75000J0D01*
G01*
X101575000Y-106775000D01*
G75*
G02*
X101500000Y-106700000I0J75000D01*
G01*
G37*
%TD.AperFunction*%
%TD*%
D28*
%TO.N,GND*%
X101275000Y-91800000D03*
X103725000Y-91725000D03*
X98325000Y-95750000D03*
X99825000Y-99500000D03*
X89350000Y-106225000D03*
X94900000Y-114950000D03*
X94825000Y-104200000D03*
X97950000Y-103300000D03*
X97875000Y-106225000D03*
X102175000Y-103325000D03*
X110175000Y-105250000D03*
X114325000Y-113625000D03*
X110250000Y-115200000D03*
X111300000Y-117175000D03*
X112375000Y-120750000D03*
X110800000Y-121450000D03*
X107875000Y-118450000D03*
X95225000Y-125200000D03*
X109425000Y-125225000D03*
X97250000Y-137775000D03*
X95325000Y-137800000D03*
X118800000Y-138950000D03*
X127575000Y-127800000D03*
X129325000Y-127850000D03*
X130950000Y-127775000D03*
X127525000Y-130750000D03*
X129400000Y-130775000D03*
X131000000Y-130800000D03*
X126600000Y-105775000D03*
X126575000Y-106625000D03*
X123950000Y-105850000D03*
X113725000Y-105700000D03*
X115750000Y-99150000D03*
X105675000Y-97250000D03*
X92000000Y-116500000D03*
X120650000Y-111000000D03*
X117125000Y-109075000D03*
X120175000Y-117325000D03*
X120100000Y-120375000D03*
X122500000Y-117225000D03*
X122525000Y-120500000D03*
X96100000Y-111100000D03*
%TO.N,NRST*%
X104500000Y-109750000D03*
X123100000Y-98400000D03*
%TO.N,BOOT0*%
X102700000Y-108300000D03*
X93650000Y-103000000D03*
%TO.N,SPI1_MOSI*%
X104100000Y-118700000D03*
X99800000Y-121250000D03*
%TO.N,SP1_MISO*%
X104389998Y-120100000D03*
X101500000Y-121150000D03*
%TO.N,DIO0_LORA*%
X98250000Y-119200000D03*
X98250000Y-133050000D03*
%TO.N,NRESET_LORA*%
X96950000Y-120200000D03*
X96950000Y-133850000D03*
%TO.N,+3V3*%
X99599999Y-103350000D03*
X101000000Y-103350000D03*
X101200000Y-101700000D03*
X106050000Y-101700000D03*
X100450000Y-105750000D03*
X96900000Y-114800000D03*
X97900000Y-114000000D03*
X89300000Y-101700000D03*
X108700000Y-114000000D03*
X107450000Y-116600000D03*
X104800000Y-116600000D03*
X109050000Y-116850000D03*
X117450000Y-117450000D03*
X116000000Y-118400000D03*
X116000000Y-119725000D03*
X114825000Y-123100000D03*
X114850000Y-124950000D03*
X114775000Y-126975000D03*
X114800000Y-128750000D03*
X114850000Y-130850000D03*
X116450000Y-132900000D03*
X119100000Y-132800000D03*
X121500000Y-132750000D03*
X123500000Y-132750000D03*
X125000000Y-132750000D03*
X125575000Y-128300000D03*
X125525000Y-125850000D03*
X125500000Y-123650000D03*
X125500000Y-121850000D03*
X113000000Y-118700000D03*
X118750000Y-136650000D03*
X99225000Y-93750000D03*
X104925000Y-91700000D03*
X108950000Y-105325000D03*
X99300000Y-137725000D03*
%TD*%
D29*
%TO.N,GND*%
X98430000Y-110950000D02*
X98250000Y-110770000D01*
X100237500Y-110950000D02*
X98430000Y-110950000D01*
D30*
X98250000Y-110770000D02*
X97000000Y-110770000D01*
D29*
X102150000Y-104420000D02*
X101980000Y-104250000D01*
X102150000Y-106037500D02*
X102150000Y-104420000D01*
X101270000Y-92642980D02*
X101270000Y-92600000D01*
X101950000Y-93322980D02*
X101270000Y-92642980D01*
X101950000Y-94050000D02*
X101950000Y-93322980D01*
X100750000Y-97250000D02*
X99700000Y-97250000D01*
X99250000Y-96800000D02*
X99250000Y-95680000D01*
X99700000Y-97250000D02*
X99250000Y-96800000D01*
D31*
X120100000Y-118900000D02*
X122600000Y-118900000D01*
D29*
X102950000Y-94050000D02*
X102950000Y-93075000D01*
X103425000Y-92600000D02*
X103770000Y-92600000D01*
X102950000Y-93075000D02*
X103425000Y-92600000D01*
X103770000Y-91770000D02*
X103725000Y-91725000D01*
X103770000Y-92600000D02*
X103770000Y-91770000D01*
X89325000Y-106250000D02*
X89350000Y-106225000D01*
X87930000Y-106250000D02*
X89325000Y-106250000D01*
X94875000Y-104250000D02*
X94825000Y-104200000D01*
X94875000Y-105350000D02*
X94875000Y-104250000D01*
X97975000Y-103325000D02*
X97950000Y-103300000D01*
X97975000Y-104500000D02*
X97975000Y-103325000D01*
X97900000Y-106250000D02*
X97875000Y-106225000D01*
X98770000Y-106250000D02*
X97900000Y-106250000D01*
X101980000Y-103520000D02*
X102175000Y-103325000D01*
X101980000Y-104250000D02*
X101980000Y-103520000D01*
X100770000Y-99500000D02*
X99825000Y-99500000D01*
X98395000Y-95680000D02*
X98325000Y-95750000D01*
X99250000Y-95680000D02*
X98395000Y-95680000D01*
X101270000Y-91805000D02*
X101275000Y-91800000D01*
X101270000Y-92600000D02*
X101270000Y-91805000D01*
X104650000Y-97250000D02*
X105675000Y-97250000D01*
X117180000Y-99150000D02*
X117250000Y-99080000D01*
X115750000Y-99150000D02*
X117180000Y-99150000D01*
X109980000Y-105445000D02*
X110175000Y-105250000D01*
X109980000Y-106250000D02*
X109980000Y-105445000D01*
X114525000Y-113825000D02*
X114325000Y-113625000D01*
X115295000Y-113825000D02*
X114525000Y-113825000D01*
X113775000Y-106825000D02*
X113775000Y-105750000D01*
X126675000Y-106525000D02*
X126575000Y-106625000D01*
X128112500Y-106525000D02*
X126675000Y-106525000D01*
X127350000Y-106525000D02*
X126600000Y-105775000D01*
X128112500Y-106525000D02*
X127350000Y-106525000D01*
X126575000Y-105800000D02*
X126600000Y-105775000D01*
X126575000Y-106625000D02*
X126575000Y-105800000D01*
X129325000Y-129240000D02*
X129485000Y-129240000D01*
X129325000Y-129240000D02*
X129440000Y-129240000D01*
X129325000Y-130700000D02*
X129400000Y-130775000D01*
X129325000Y-129240000D02*
X129035000Y-129240000D01*
X130950000Y-130750000D02*
X131000000Y-130800000D01*
X127600000Y-127775000D02*
X127575000Y-127800000D01*
X95250000Y-137875000D02*
X95325000Y-137800000D01*
X95250000Y-139500000D02*
X95250000Y-137875000D01*
X97250000Y-139500000D02*
X97250000Y-137775000D01*
X109250000Y-125050000D02*
X109425000Y-125225000D01*
X109250000Y-123500000D02*
X109250000Y-125050000D01*
X95250000Y-125175000D02*
X95225000Y-125200000D01*
X95250000Y-123500000D02*
X95250000Y-125175000D01*
X110825000Y-121425000D02*
X110800000Y-121450000D01*
X110825000Y-120500000D02*
X110825000Y-121425000D01*
X112100000Y-120475000D02*
X112375000Y-120750000D01*
X112100000Y-119830000D02*
X112100000Y-120475000D01*
X108325000Y-118900000D02*
X107875000Y-118450000D01*
X108875000Y-118900000D02*
X108325000Y-118900000D01*
X110175000Y-118005000D02*
X110480000Y-117700000D01*
X110175000Y-118900000D02*
X110175000Y-118005000D01*
X110775000Y-117700000D02*
X111300000Y-117175000D01*
X110480000Y-117700000D02*
X110775000Y-117700000D01*
X94875000Y-114925000D02*
X94900000Y-114950000D01*
X94875000Y-113850000D02*
X94875000Y-114925000D01*
X119775000Y-111095000D02*
X120555000Y-111095000D01*
D30*
X120100000Y-117400000D02*
X120175000Y-117325000D01*
X120100000Y-118900000D02*
X120100000Y-117400000D01*
X120100000Y-118900000D02*
X120100000Y-120375000D01*
X122600000Y-120425000D02*
X122525000Y-120500000D01*
X122600000Y-118900000D02*
X122600000Y-120425000D01*
X122600000Y-117325000D02*
X122500000Y-117225000D01*
X122600000Y-118900000D02*
X122600000Y-117325000D01*
X122400000Y-117325000D02*
X122500000Y-117225000D01*
X120175000Y-117325000D02*
X122400000Y-117325000D01*
X122400000Y-120375000D02*
X122525000Y-120500000D01*
X120100000Y-120375000D02*
X122400000Y-120375000D01*
X127885000Y-127800000D02*
X129325000Y-129240000D01*
X127575000Y-127800000D02*
X127885000Y-127800000D01*
X129325000Y-127850000D02*
X129325000Y-129240000D01*
X130790000Y-127775000D02*
X129325000Y-129240000D01*
X130950000Y-127775000D02*
X130790000Y-127775000D01*
X130885000Y-130800000D02*
X129325000Y-129240000D01*
X131000000Y-130800000D02*
X130885000Y-130800000D01*
X129400000Y-129315000D02*
X129325000Y-129240000D01*
X129400000Y-130775000D02*
X129400000Y-129315000D01*
X127815000Y-130750000D02*
X129325000Y-129240000D01*
X127525000Y-130750000D02*
X127815000Y-130750000D01*
X127575000Y-130700000D02*
X127525000Y-130750000D01*
X127575000Y-127800000D02*
X127575000Y-130700000D01*
X129375000Y-130750000D02*
X129400000Y-130775000D01*
X127525000Y-130750000D02*
X129375000Y-130750000D01*
X130975000Y-130775000D02*
X131000000Y-130800000D01*
X129400000Y-130775000D02*
X130975000Y-130775000D01*
X131000000Y-127825000D02*
X130950000Y-127775000D01*
X131000000Y-130800000D02*
X131000000Y-127825000D01*
X129400000Y-127775000D02*
X129325000Y-127850000D01*
X130950000Y-127775000D02*
X129400000Y-127775000D01*
X127625000Y-127850000D02*
X127575000Y-127800000D01*
X129325000Y-127850000D02*
X127625000Y-127850000D01*
D29*
X92037500Y-116462500D02*
X92000000Y-116500000D01*
X93250000Y-116462500D02*
X92037500Y-116462500D01*
X117125000Y-107675000D02*
X117125000Y-109075000D01*
D30*
X117675000Y-138950000D02*
X118800000Y-138950000D01*
X123684998Y-108150000D02*
X123350000Y-107815002D01*
X124400000Y-108150000D02*
X123684998Y-108150000D01*
X123350000Y-106450000D02*
X123950000Y-105850000D01*
X123350000Y-107815002D02*
X123350000Y-106450000D01*
D29*
X109280000Y-115360000D02*
X109280000Y-115050000D01*
X108929990Y-115710010D02*
X109280000Y-115360000D01*
X107110010Y-115710010D02*
X108929990Y-115710010D01*
X106650000Y-115250000D02*
X107110010Y-115710010D01*
X106650000Y-114362500D02*
X106650000Y-115250000D01*
X109430000Y-115200000D02*
X109280000Y-115050000D01*
X110250000Y-115200000D02*
X109430000Y-115200000D01*
X108562500Y-107950000D02*
X109600000Y-107950000D01*
X109980000Y-107570000D02*
X109980000Y-106250000D01*
X109600000Y-107950000D02*
X109980000Y-107570000D01*
D30*
X96430000Y-110770000D02*
X96100000Y-111100000D01*
X97000000Y-110770000D02*
X96430000Y-110770000D01*
D31*
%TO.N,Net-(C1-Pad1)*%
X129325000Y-124160000D02*
X129325000Y-122775000D01*
X127850000Y-121300000D02*
X127850000Y-118900000D01*
X129325000Y-122775000D02*
X127850000Y-121300000D01*
X127850000Y-118900000D02*
X125300000Y-118900000D01*
D29*
%TO.N,+3.3VA*%
X100237500Y-111450000D02*
X99050000Y-111450000D01*
X98770000Y-111730000D02*
X98250000Y-111730000D01*
X99050000Y-111450000D02*
X98770000Y-111730000D01*
D30*
X98250000Y-111730000D02*
X97000000Y-111730000D01*
X97000000Y-113015000D02*
X97000000Y-111730000D01*
D29*
%TO.N,Net-(C14-Pad1)*%
X102450000Y-94050000D02*
X102450000Y-93115860D01*
X102230000Y-92895860D02*
X102230000Y-92600000D01*
X102450000Y-93115860D02*
X102230000Y-92895860D01*
%TO.N,Net-(C15-Pad1)*%
X101950000Y-99280000D02*
X101730000Y-99500000D01*
X101950000Y-97950000D02*
X101950000Y-99280000D01*
%TO.N,Net-(C16-Pad1)*%
X94950000Y-109450000D02*
X93350000Y-107850000D01*
X100237500Y-109450000D02*
X94950000Y-109450000D01*
X93350000Y-105375000D02*
X93325000Y-105350000D01*
X93350000Y-107850000D02*
X93350000Y-105375000D01*
%TO.N,Net-(C17-Pad1)*%
X94950000Y-109950000D02*
X93350000Y-111550000D01*
X100237500Y-109950000D02*
X94950000Y-109950000D01*
X93350000Y-113825000D02*
X93325000Y-113850000D01*
X93350000Y-111550000D02*
X93350000Y-113825000D01*
%TO.N,+5V*%
X116625000Y-113455000D02*
X116255000Y-113825000D01*
X116625000Y-112075000D02*
X116625000Y-113455000D01*
D30*
X126937500Y-109125000D02*
X125600000Y-110462500D01*
X128112500Y-109125000D02*
X126937500Y-109125000D01*
X125600000Y-110462500D02*
X125600000Y-115400000D01*
X125600000Y-115400000D02*
X126950000Y-116750000D01*
X126950000Y-116750000D02*
X129750000Y-116750000D01*
X130650000Y-117650000D02*
X130650000Y-118900000D01*
X129750000Y-116750000D02*
X130650000Y-117650000D01*
X125600000Y-110462500D02*
X124062500Y-110462500D01*
D29*
X123010001Y-108424999D02*
X123250000Y-108664998D01*
X123250000Y-108664998D02*
X123250000Y-109650000D01*
X122724999Y-108424999D02*
X123010001Y-108424999D01*
X122450000Y-108150000D02*
X122724999Y-108424999D01*
X122200000Y-108150000D02*
X122450000Y-108150000D01*
X116625000Y-112075000D02*
X116625000Y-110925000D01*
X116625000Y-110925000D02*
X117550000Y-110000000D01*
X117550000Y-110000000D02*
X121350000Y-110000000D01*
X121350000Y-110000000D02*
X122250000Y-110900000D01*
X122800000Y-110900000D02*
X123650000Y-110050000D01*
X122250000Y-110900000D02*
X122800000Y-110900000D01*
D30*
X123650000Y-110050000D02*
X123250000Y-109650000D01*
X124062500Y-110462500D02*
X123650000Y-110050000D01*
D29*
%TO.N,Net-(C19-Pad1)*%
X119755000Y-112075000D02*
X119775000Y-112055000D01*
X118125000Y-112075000D02*
X119755000Y-112075000D01*
D31*
%TO.N,Net-(D1-Pad1)*%
X116062500Y-136700000D02*
X116062500Y-138912500D01*
D29*
%TO.N,Net-(D2-Pad2)*%
X93287500Y-118075000D02*
X93250000Y-118037500D01*
X95250000Y-118075000D02*
X93287500Y-118075000D01*
%TO.N,Net-(D3-Pad2)*%
X113775000Y-110250000D02*
X113775000Y-108400000D01*
D31*
%TO.N,Net-(J1-Pad6)*%
X129812500Y-105325000D02*
X130812500Y-104325000D01*
X128112500Y-105325000D02*
X129812500Y-105325000D01*
X130812500Y-104925000D02*
X130812500Y-110725000D01*
X128512500Y-110725000D02*
X128112500Y-110325000D01*
X130812500Y-110725000D02*
X128512500Y-110725000D01*
D32*
%TO.N,USB_CONN_D-*%
X127099999Y-108475000D02*
X128112500Y-108475000D01*
X126999999Y-108375000D02*
X127099999Y-108475000D01*
X125195001Y-109100000D02*
X125920001Y-108375000D01*
X124400000Y-109100000D02*
X125195001Y-109100000D01*
X125920001Y-108375000D02*
X126999999Y-108375000D01*
%TO.N,USB_CONN_D+*%
X127099999Y-107825000D02*
X128112500Y-107825000D01*
X126999999Y-107925000D02*
X127099999Y-107825000D01*
X125920001Y-107925000D02*
X126999999Y-107925000D01*
X125195001Y-107200000D02*
X125920001Y-107925000D01*
X124400000Y-107200000D02*
X125195001Y-107200000D01*
D29*
%TO.N,SWO*%
X114750000Y-94000000D02*
X117250000Y-94000000D01*
X114100000Y-94650000D02*
X114750000Y-94000000D01*
X114100000Y-95950000D02*
X114100000Y-94650000D01*
X106150000Y-103900000D02*
X114100000Y-95950000D01*
X106150000Y-106037500D02*
X106150000Y-103900000D01*
%TO.N,SWDIO*%
X123500000Y-94000000D02*
X119790000Y-94000000D01*
X124600000Y-95100000D02*
X123500000Y-94000000D01*
X124600000Y-101750000D02*
X124600000Y-95100000D01*
X123750000Y-102600000D02*
X124600000Y-101750000D01*
X112350000Y-102600000D02*
X123750000Y-102600000D01*
X111100000Y-107917020D02*
X111100000Y-103850000D01*
X111100000Y-103850000D02*
X112350000Y-102600000D01*
X110567020Y-108450000D02*
X111100000Y-107917020D01*
X108562500Y-108450000D02*
X110567020Y-108450000D01*
%TO.N,NRST*%
X103800000Y-110450000D02*
X104500000Y-109750000D01*
X100237500Y-110450000D02*
X103800000Y-110450000D01*
X123100000Y-98400000D02*
X123100000Y-97200000D01*
X122440000Y-96540000D02*
X119790000Y-96540000D01*
X123100000Y-97200000D02*
X122440000Y-96540000D01*
%TO.N,SWCLK*%
X119790000Y-100810000D02*
X119790000Y-99080000D01*
X119100000Y-101500000D02*
X119790000Y-100810000D01*
X107150000Y-106037500D02*
X107150000Y-104750000D01*
X110400000Y-101500000D02*
X111750000Y-101500000D01*
X107150000Y-104750000D02*
X110400000Y-101500000D01*
X111750000Y-101500000D02*
X119100000Y-101500000D01*
X111687500Y-101500000D02*
X111750000Y-101500000D01*
%TO.N,Net-(R2-Pad1)*%
X90575000Y-104750000D02*
X90750000Y-104575000D01*
X87930000Y-104750000D02*
X90575000Y-104750000D01*
%TO.N,BOOT0*%
X103650000Y-106037500D02*
X103650000Y-107750000D01*
X103100000Y-108300000D02*
X102700000Y-108300000D01*
X103650000Y-107750000D02*
X103100000Y-108300000D01*
X90825000Y-103000000D02*
X90750000Y-102925000D01*
X93650000Y-103000000D02*
X90825000Y-103000000D01*
%TO.N,LED_STATUS*%
X97575000Y-116425000D02*
X95250000Y-116425000D01*
X100237500Y-111950000D02*
X99350000Y-111950000D01*
X99350000Y-111950000D02*
X98950000Y-112350000D01*
X98950000Y-112350000D02*
X98950000Y-115800000D01*
X98325000Y-116425000D02*
X97575000Y-116425000D01*
X98950000Y-115800000D02*
X98325000Y-116425000D01*
%TO.N,I2C1_SDA*%
X104150000Y-101790000D02*
X104190000Y-101750000D01*
X104150000Y-106037500D02*
X104150000Y-101790000D01*
X104190000Y-101750000D02*
X104190000Y-99139990D01*
X103950000Y-98899990D02*
X103950000Y-97950000D01*
X104190000Y-99139990D02*
X103950000Y-98899990D01*
%TO.N,I2C1_SCL*%
X103150000Y-101840000D02*
X103060000Y-101750000D01*
X103150000Y-106037500D02*
X103150000Y-101840000D01*
X103060000Y-101750000D02*
X103060000Y-99190000D01*
X103450000Y-98800000D02*
X103450000Y-97950000D01*
X103060000Y-99190000D02*
X103450000Y-98800000D01*
%TO.N,Net-(R6-Pad1)*%
X113950000Y-112075000D02*
X113775000Y-111900000D01*
X116125000Y-112075000D02*
X113950000Y-112075000D01*
%TO.N,I2C2_SCL*%
X105650000Y-117360000D02*
X105510000Y-117500000D01*
X105650000Y-114362500D02*
X105650000Y-117360000D01*
X108875000Y-120500000D02*
X107450000Y-120500000D01*
X105510000Y-118560000D02*
X105510000Y-117500000D01*
X107450000Y-120500000D02*
X105510000Y-118560000D01*
%TO.N,I2C2_SDA*%
X106150000Y-116910000D02*
X106740000Y-117500000D01*
X106150000Y-114362500D02*
X106150000Y-116910000D01*
X109525000Y-120094998D02*
X109525000Y-120500000D01*
X109205002Y-119775000D02*
X109525000Y-120094998D01*
X107575000Y-119775000D02*
X109205002Y-119775000D01*
X106740000Y-118940000D02*
X107575000Y-119775000D01*
X106740000Y-117500000D02*
X106740000Y-118940000D01*
D32*
%TO.N,USB_D+*%
X118125000Y-107675000D02*
X119193200Y-107675000D01*
X121404999Y-107200000D02*
X122200000Y-107200000D01*
X120679999Y-107925000D02*
X121404999Y-107200000D01*
X119443200Y-107925000D02*
X120679999Y-107925000D01*
X119193200Y-107675000D02*
X119443200Y-107925000D01*
%TO.N,USB_D-*%
X117625000Y-107675000D02*
X117674999Y-107724999D01*
X118575001Y-108125000D02*
X119006800Y-108125000D01*
X118515001Y-108675001D02*
X118575001Y-108615001D01*
X117734999Y-108675001D02*
X118515001Y-108675001D01*
X117674999Y-108615001D02*
X117734999Y-108675001D01*
X117674999Y-107724999D02*
X117674999Y-108615001D01*
X118575001Y-108615001D02*
X118575001Y-108125000D01*
X121404999Y-109100000D02*
X122200000Y-109100000D01*
X119006800Y-108125000D02*
X119256800Y-108375000D01*
X120679999Y-108375000D02*
X121404999Y-109100000D01*
X119256800Y-108375000D02*
X120679999Y-108375000D01*
D29*
%TO.N,LORA_NSS_SPI*%
X97250000Y-122339998D02*
X97250000Y-123500000D01*
X102150000Y-117439998D02*
X97250000Y-122339998D01*
X102150000Y-114362500D02*
X102150000Y-117439998D01*
%TO.N,SPI1_MOSI*%
X99500000Y-123250000D02*
X99250000Y-123500000D01*
X99450000Y-123300000D02*
X99250000Y-123500000D01*
X103650000Y-114362500D02*
X103650000Y-118250000D01*
X103650000Y-118250000D02*
X104100000Y-118700000D01*
X99800000Y-121250000D02*
X99250000Y-121800000D01*
X99250000Y-121800000D02*
X99250000Y-123500000D01*
%TO.N,SP1_MISO*%
X103150000Y-118860002D02*
X104389998Y-120100000D01*
X103150000Y-114362500D02*
X103150000Y-118860002D01*
X101500000Y-123250000D02*
X101250000Y-123500000D01*
X101500000Y-121150000D02*
X101500000Y-123250000D01*
%TO.N,SP1_SCK*%
X102650000Y-122900000D02*
X103250000Y-123500000D01*
X102650000Y-114362500D02*
X102650000Y-122900000D01*
%TO.N,DIO0_LORA*%
X101650000Y-114362500D02*
X101650000Y-115800000D01*
X101650000Y-115800000D02*
X98250000Y-119200000D01*
X98250000Y-133050000D02*
X100700000Y-133050000D01*
X103250000Y-135600000D02*
X103250000Y-139500000D01*
X100700000Y-133050000D02*
X103250000Y-135600000D01*
%TO.N,NRESET_LORA*%
X100237500Y-112950000D02*
X100237500Y-115912500D01*
X96950000Y-119200000D02*
X96950000Y-120200000D01*
X100237500Y-115912500D02*
X96950000Y-119200000D01*
X100300000Y-136150000D02*
X101250000Y-137100000D01*
X97950000Y-136150000D02*
X100300000Y-136150000D01*
X96950000Y-135150000D02*
X97950000Y-136150000D01*
X101250000Y-137100000D02*
X101250000Y-139500000D01*
X96950000Y-133850000D02*
X96950000Y-135150000D01*
%TO.N,USART1_TX*%
X117625000Y-112075000D02*
X117625000Y-113325000D01*
X117625000Y-113325000D02*
X117950000Y-113650000D01*
X117950000Y-113650000D02*
X117950000Y-115800000D01*
X113000000Y-116264998D02*
X111350000Y-114614998D01*
X111350000Y-114614998D02*
X111350000Y-111300000D01*
X110500000Y-110450000D02*
X108562500Y-110450000D01*
X111350000Y-111300000D02*
X110500000Y-110450000D01*
X117485002Y-116264998D02*
X117950000Y-115800000D01*
X113000000Y-116264998D02*
X117485002Y-116264998D01*
%TO.N,USART1_RX*%
X117125000Y-112075000D02*
X117125000Y-115325000D01*
X117125000Y-115325000D02*
X116750000Y-115700000D01*
X116750000Y-115700000D02*
X113500000Y-115700000D01*
X113500000Y-115700000D02*
X112050000Y-114250000D01*
X112050000Y-114250000D02*
X112050000Y-110550000D01*
X111450000Y-109950000D02*
X112050000Y-110550000D01*
X108562500Y-109950000D02*
X111450000Y-109950000D01*
%TO.N,+3V3*%
X108562500Y-106707500D02*
X109020000Y-106250000D01*
X108562500Y-107450000D02*
X108562500Y-106707500D01*
X101020000Y-105407500D02*
X101020000Y-104250000D01*
X101650000Y-106037500D02*
X101020000Y-105407500D01*
X100237500Y-106757500D02*
X99730000Y-106250000D01*
X100237500Y-107450000D02*
X100237500Y-106757500D01*
D30*
X99775000Y-104250000D02*
X99525000Y-104500000D01*
X101020000Y-104250000D02*
X99775000Y-104250000D01*
X99730000Y-104705000D02*
X99525000Y-104500000D01*
X99730000Y-106250000D02*
X99730000Y-104705000D01*
D29*
X99280000Y-94750000D02*
X99250000Y-94720000D01*
X100750000Y-94750000D02*
X99280000Y-94750000D01*
X109525000Y-117705000D02*
X109520000Y-117700000D01*
X109525000Y-118900000D02*
X109525000Y-117705000D01*
X112070000Y-118900000D02*
X112100000Y-118870000D01*
X110825000Y-118900000D02*
X112070000Y-118900000D01*
X109525000Y-119300000D02*
X109525000Y-118900000D01*
X110175000Y-119950000D02*
X109525000Y-119300000D01*
X110175000Y-120500000D02*
X110175000Y-119950000D01*
D31*
X117637500Y-129237500D02*
X120175000Y-126700000D01*
X117637500Y-136700000D02*
X117637500Y-129237500D01*
X117400000Y-123925000D02*
X120175000Y-126700000D01*
X117400000Y-118900000D02*
X117400000Y-123925000D01*
D29*
X99525000Y-104500000D02*
X99525000Y-103424999D01*
X99525000Y-103424999D02*
X99599999Y-103350000D01*
X101020000Y-103370000D02*
X101000000Y-103350000D01*
X101020000Y-104250000D02*
X101020000Y-103370000D01*
X101250000Y-101750000D02*
X101200000Y-101700000D01*
X102040000Y-101750000D02*
X101250000Y-101750000D01*
X106000000Y-101750000D02*
X106050000Y-101700000D01*
X105210000Y-101750000D02*
X106000000Y-101750000D01*
X89250000Y-101750000D02*
X89300000Y-101700000D01*
X87930000Y-101750000D02*
X89250000Y-101750000D01*
X99950000Y-106250000D02*
X100450000Y-105750000D01*
X99730000Y-106250000D02*
X99950000Y-106250000D01*
X97885000Y-113985000D02*
X97900000Y-114000000D01*
X97000000Y-113985000D02*
X97885000Y-113985000D01*
X97000000Y-114700000D02*
X96900000Y-114800000D01*
X97000000Y-113985000D02*
X97000000Y-114700000D01*
X104490000Y-116910000D02*
X104800000Y-116600000D01*
X104490000Y-117500000D02*
X104490000Y-116910000D01*
X107760000Y-116910000D02*
X107450000Y-116600000D01*
X107760000Y-117500000D02*
X107760000Y-116910000D01*
X109520000Y-117320000D02*
X109050000Y-116850000D01*
X109520000Y-117700000D02*
X109520000Y-117320000D01*
D30*
X117400000Y-117500000D02*
X117450000Y-117450000D01*
X117400000Y-118900000D02*
X117400000Y-117500000D01*
X116500000Y-118900000D02*
X116000000Y-118400000D01*
X117400000Y-118900000D02*
X116500000Y-118900000D01*
X116825000Y-118900000D02*
X116000000Y-119725000D01*
X117400000Y-118900000D02*
X116825000Y-118900000D01*
X116000000Y-119725000D02*
X116000000Y-118400000D01*
X116500000Y-118400000D02*
X117450000Y-117450000D01*
X116000000Y-118400000D02*
X116500000Y-118400000D01*
X117687500Y-136650000D02*
X117637500Y-136700000D01*
X118750000Y-136650000D02*
X117687500Y-136650000D01*
X118425000Y-126700000D02*
X114825000Y-123100000D01*
X120175000Y-126700000D02*
X118425000Y-126700000D01*
X116600000Y-126700000D02*
X114850000Y-124950000D01*
X120175000Y-126700000D02*
X116600000Y-126700000D01*
X115050000Y-126700000D02*
X114775000Y-126975000D01*
X120175000Y-126700000D02*
X115050000Y-126700000D01*
X116850000Y-126700000D02*
X114800000Y-128750000D01*
X120175000Y-126700000D02*
X116850000Y-126700000D01*
X119000000Y-126700000D02*
X114850000Y-130850000D01*
X120175000Y-126700000D02*
X119000000Y-126700000D01*
X120175000Y-129175000D02*
X116450000Y-132900000D01*
X120175000Y-126700000D02*
X120175000Y-129175000D01*
X119100000Y-127775000D02*
X120175000Y-126700000D01*
X119100000Y-132800000D02*
X119100000Y-127775000D01*
X121500000Y-128025000D02*
X120175000Y-126700000D01*
X121500000Y-132750000D02*
X121500000Y-128025000D01*
X123500000Y-130025000D02*
X120175000Y-126700000D01*
X123500000Y-132750000D02*
X123500000Y-130025000D01*
X125000000Y-131525000D02*
X120175000Y-126700000D01*
X125000000Y-132750000D02*
X125000000Y-131525000D01*
X121775000Y-128300000D02*
X120175000Y-126700000D01*
X125575000Y-128300000D02*
X121775000Y-128300000D01*
X121025000Y-125850000D02*
X120175000Y-126700000D01*
X125525000Y-125850000D02*
X121025000Y-125850000D01*
X123225000Y-123650000D02*
X120175000Y-126700000D01*
X125500000Y-123650000D02*
X123225000Y-123650000D01*
X120650000Y-126700000D02*
X120175000Y-126700000D01*
X125500000Y-121850000D02*
X120650000Y-126700000D01*
X114825000Y-124925000D02*
X114850000Y-124950000D01*
X114825000Y-123100000D02*
X114825000Y-124925000D01*
X114850000Y-126900000D02*
X114775000Y-126975000D01*
X114850000Y-124950000D02*
X114850000Y-126900000D01*
X114775000Y-128725000D02*
X114800000Y-128750000D01*
X114775000Y-126975000D02*
X114775000Y-128725000D01*
X114800000Y-130800000D02*
X114850000Y-130850000D01*
X114800000Y-128750000D02*
X114800000Y-130800000D01*
X114850000Y-131300000D02*
X116450000Y-132900000D01*
X114850000Y-130850000D02*
X114850000Y-131300000D01*
X119000000Y-132900000D02*
X119100000Y-132800000D01*
X121450000Y-132800000D02*
X121500000Y-132750000D01*
X119100000Y-132800000D02*
X121450000Y-132800000D01*
X121500000Y-132750000D02*
X123500000Y-132750000D01*
X123500000Y-132750000D02*
X125000000Y-132750000D01*
X125575000Y-125900000D02*
X125525000Y-125850000D01*
X125575000Y-128300000D02*
X125575000Y-125900000D01*
X125500000Y-125825000D02*
X125525000Y-125850000D01*
X125500000Y-123650000D02*
X125500000Y-125825000D01*
X125500000Y-121850000D02*
X125500000Y-123650000D01*
X125000000Y-132750000D02*
X125675000Y-132075000D01*
X125675000Y-128400000D02*
X125575000Y-128300000D01*
X125675000Y-132075000D02*
X125675000Y-128400000D01*
D29*
X99250000Y-93775000D02*
X99225000Y-93750000D01*
X99250000Y-94720000D02*
X99250000Y-93775000D01*
X109020000Y-105395000D02*
X108950000Y-105325000D01*
X109020000Y-106250000D02*
X109020000Y-105395000D01*
D30*
X99250000Y-137775000D02*
X99300000Y-137725000D01*
X99250000Y-139500000D02*
X99250000Y-137775000D01*
D29*
X103450000Y-94050000D02*
X103450000Y-93500000D01*
X104730000Y-92910000D02*
X104730000Y-92600000D01*
X104365010Y-93274990D02*
X104730000Y-92910000D01*
X103675010Y-93274990D02*
X104365010Y-93274990D01*
X103450000Y-93500000D02*
X103675010Y-93274990D01*
X104730000Y-91895000D02*
X104925000Y-91700000D01*
X104730000Y-92600000D02*
X104730000Y-91895000D01*
D30*
X112830000Y-118870000D02*
X113000000Y-118700000D01*
X112100000Y-118870000D02*
X112830000Y-118870000D01*
D29*
X108320000Y-114380000D02*
X108700000Y-114000000D01*
X108320000Y-115050000D02*
X108320000Y-114380000D01*
X107632500Y-114362500D02*
X108320000Y-115050000D01*
X107150000Y-114362500D02*
X107632500Y-114362500D01*
%TD*%
M02*
